SplineFontDB: 3.0
FontName: Hentai
FullName: Hentai
FamilyName: Hentai
Weight: Book
Copyright: 
Version: 1.0
ItalicAngle: 0
UnderlinePosition: 0
UnderlineWidth: 0
Ascent: 1802
Descent: 246
InvalidEm: 0
sfntRevision: 0x0003028f
LayerCount: 2
Layer: 0 1 "Back" 1
Layer: 1 1 "Fore" 0
XUID: [1021 935 -1635957413 9954760]
StyleMap: 0x0040
FSType: 0
OS2Version: 3
OS2_WeightWidthSlopeOnly: 0
OS2_UseTypoMetrics: 0
CreationTime: 1273551961
ModificationTime: 1521042957
PfmFamily: 17
TTFWeight: 400
TTFWidth: 5
LineGap: 0
VLineGap: 0
Panose: 2 2 4 0 0 0 0 0 0 0
OS2TypoAscent: 1802
OS2TypoAOffset: 0
OS2TypoDescent: -246
OS2TypoDOffset: 0
OS2TypoLinegap: 0
OS2WinAscent: 1876
OS2WinAOffset: 0
OS2WinDescent: 571
OS2WinDOffset: 0
HheadAscent: 1802
HheadAOffset: 0
HheadDescent: -246
HheadDOffset: 0
OS2SubXSize: 1024
OS2SubYSize: 1579
OS2SubXOff: 0
OS2SubYOff: 307
OS2SupXSize: 1024
OS2SupYSize: 1579
OS2SupXOff: 0
OS2SupYOff: 0
OS2StrikeYSize: 94
OS2StrikeYPos: 858
OS2CapHeight: 1464
OS2XHeight: 1008
OS2FamilyClass: 261
OS2Vendor: 'Beu '
OS2CodePages: 00000001.00000000
OS2UnicodeRanges: e00002ff.3ac7edfa.00000012.00000000
MarkAttachClasses: 1
DEI: 91125
TtTable: prep
PUSHB_2
 48
 1
PUSHW_1
 292
RTG
SCANCTRL
SCANTYPE
SCVTCI
EndTTInstrs
TtTable: fpgm
NPUSHB
 15
 14
 13
 12
 11
 10
 9
 8
 7
 6
 5
 4
 3
 2
 1
 0
FDEF
SLOOP
MDAP[rnd]
ALIGNRP
ENDF
FDEF
MDAP[rnd]
ALIGNRP
ENDF
FDEF
SRP1
SRP2
IP
ENDF
FDEF
SRP1
SRP2
SLOOP
IP
ENDF
FDEF
SRP0
SLOOP
MIRP[rp0,min,rnd,black]
ALIGNRP
ENDF
FDEF
SRP0
SLOOP
MIRP[rp0,rnd,grey]
ALIGNRP
ENDF
FDEF
SRP0
SLOOP
MDRP[rp0,min,rnd,black]
ALIGNRP
ENDF
FDEF
SRP0
SLOOP
MDRP[rp0,rnd,grey]
ALIGNRP
ENDF
FDEF
SRP0
MIRP[rp0,min,rnd,black]
ENDF
FDEF
SRP0
MIRP[rp0,rnd,grey]
ENDF
FDEF
SRP0
MDRP[rp0,min,rnd,black]
ENDF
FDEF
SRP0
MDRP[rp0,rnd,grey]
ENDF
FDEF
MDRP[rnd,grey]
ENDF
FDEF
MDRP[grey]
ENDF
FDEF
SVTCA[y-axis]
NPUSHB
 18
 1
 0
 0
 1
 1
 2
 2
 3
 3
 4
 4
 5
 5
 6
 6
 7
 7
 0
SZPS
MIAP[rnd]
MIAP[rnd]
MIAP[rnd]
MIAP[rnd]
MIAP[rnd]
MIAP[rnd]
MIAP[rnd]
MIAP[rnd]
SZPS
ENDF

StartChar: u1B001
Encoding: 12481 110593 0
Width: 2048
Flags: W
LayerCount: 2
Fore
SplineSet
444 1585 m 1,0,1
 478 1563 478 1563 504.5 1542.5 c 128,-1,2
 531 1522 531 1522 552 1500.5 c 128,-1,3
 573 1479 573 1479 590.5 1456 c 128,-1,4
 608 1433 608 1433 625 1405 c 0,5,6
 639 1382 639 1382 643 1356.5 c 128,-1,7
 647 1331 647 1331 644 1306.5 c 128,-1,8
 641 1282 641 1282 632.5 1261 c 128,-1,9
 624 1240 624 1240 612 1225 c 0,10,11
 584 1190 584 1190 555 1164 c 128,-1,12
 526 1138 526 1138 492 1112 c 0,13,14
 455 1084 455 1084 421 1058.5 c 128,-1,15
 387 1033 387 1033 362 1020 c 0,16,17
 341 1009 341 1009 341 1001 c 128,-1,18
 341 993 341 993 352 979 c 0,19,20
 365 963 365 963 377.5 949.5 c 128,-1,21
 390 936 390 936 406 920 c 0,22,23
 431 895 431 895 438.5 855.5 c 128,-1,24
 446 816 446 816 440 776 c 0,25,26
 431 716 431 716 424.5 651 c 128,-1,27
 418 586 418 586 415 521.5 c 128,-1,28
 412 457 412 457 413 395 c 128,-1,29
 414 333 414 333 420 279 c 1,30,31
 549 529 549 529 690 707 c 128,-1,32
 831 885 831 885 972 999 c 128,-1,33
 1113 1113 1113 1113 1247 1166 c 128,-1,34
 1381 1219 1381 1219 1495 1219 c 0,35,36
 1543 1219 1543 1219 1575 1207.5 c 128,-1,37
 1607 1196 1607 1196 1625.5 1176 c 128,-1,38
 1644 1156 1644 1156 1651.5 1128.5 c 128,-1,39
 1659 1101 1659 1101 1659 1069 c 0,40,41
 1659 1018 1659 1018 1638.5 958.5 c 128,-1,42
 1618 899 1618 899 1582.5 833.5 c 128,-1,43
 1547 768 1547 768 1498.5 698 c 128,-1,44
 1450 628 1450 628 1395 556 c 128,-1,45
 1340 484 1340 484 1280 412 c 128,-1,46
 1220 340 1220 340 1161 270 c 1,47,48
 1221 280 1221 280 1279.5 287 c 128,-1,49
 1338 294 1338 294 1384 297 c 0,50,51
 1456 302 1456 302 1510.5 299.5 c 128,-1,52
 1565 297 1565 297 1616 285 c 0,53,54
 1664 273 1664 273 1687 260 c 128,-1,55
 1710 247 1710 247 1722 225 c 256,56,57
 1734 203 1734 203 1727 179.5 c 128,-1,58
 1720 156 1720 156 1698 150 c 0,59,60
 1678 145 1678 145 1660 147.5 c 128,-1,61
 1642 150 1642 150 1622 158 c 0,62,63
 1593 168 1593 168 1566.5 175.5 c 128,-1,64
 1540 183 1540 183 1512 187 c 128,-1,65
 1484 191 1484 191 1454 193 c 128,-1,66
 1424 195 1424 195 1389 195 c 0,67,68
 1329 195 1329 195 1261.5 188.5 c 128,-1,69
 1194 182 1194 182 1118 162 c 0,70,71
 1095 156 1095 156 1079.5 157.5 c 128,-1,72
 1064 159 1064 159 1061 174 c 0,73,74
 1058 187 1058 187 1057.5 199.5 c 128,-1,75
 1057 212 1057 212 1059 229 c 0,76,77
 1060 242 1060 242 1062 251 c 128,-1,78
 1064 260 1064 260 1068 267 c 128,-1,79
 1072 274 1072 274 1078 280.5 c 128,-1,80
 1084 287 1084 287 1094 295 c 0,81,82
 1108 306 1108 306 1114 313.5 c 128,-1,83
 1120 321 1120 321 1128 332 c 0,84,85
 1201 434 1201 434 1268 531 c 128,-1,86
 1335 628 1335 628 1387.5 717.5 c 128,-1,87
 1440 807 1440 807 1473 887.5 c 128,-1,88
 1506 968 1506 968 1511 1038 c 0,89,90
 1514 1070 1514 1070 1508.5 1090.5 c 128,-1,91
 1503 1111 1503 1111 1490.5 1122.5 c 128,-1,92
 1478 1134 1478 1134 1457.5 1138.5 c 128,-1,93
 1437 1143 1437 1143 1409 1143 c 0,94,95
 1366 1143 1366 1143 1306.5 1121.5 c 128,-1,96
 1247 1100 1247 1100 1176 1057 c 128,-1,97
 1105 1014 1105 1014 1026.5 949 c 128,-1,98
 948 884 948 884 868.5 796.5 c 128,-1,99
 789 709 789 709 711.5 598.5 c 128,-1,100
 634 488 634 488 565 354 c 0,101,102
 530 285 530 285 509.5 231 c 128,-1,103
 489 177 489 177 483 143 c 0,104,105
 478 117 478 117 474 95 c 128,-1,106
 470 73 470 73 461 51 c 0,107,108
 447 19 447 19 432.5 9.5 c 128,-1,109
 418 0 418 0 401 0 c 0,110,111
 372 0 372 0 352 30 c 128,-1,112
 332 60 332 60 324 106 c 0,113,114
 318 139 318 139 314 179.5 c 128,-1,115
 310 220 310 220 307.5 264.5 c 128,-1,116
 305 309 305 309 305 354.5 c 128,-1,117
 305 400 305 400 307 442 c 0,118,119
 309 492 309 492 312.5 536.5 c 128,-1,120
 316 581 316 581 320.5 624 c 128,-1,121
 325 667 325 667 330 710 c 128,-1,122
 335 753 335 753 340 799 c 0,123,124
 346 856 346 856 332 896.5 c 128,-1,125
 318 937 318 937 289 969 c 0,126,127
 270 989 270 989 273 1007.5 c 128,-1,128
 276 1026 276 1026 295 1042 c 0,129,130
 340 1080 340 1080 377.5 1114 c 128,-1,131
 415 1148 415 1148 442 1181 c 128,-1,132
 469 1214 469 1214 485.5 1248 c 128,-1,133
 502 1282 502 1282 506 1321 c 0,134,135
 509 1352 509 1352 502.5 1384.5 c 128,-1,136
 496 1417 496 1417 481.5 1447 c 128,-1,137
 467 1477 467 1477 446.5 1504 c 128,-1,138
 426 1531 426 1531 401 1552 c 1,139,-1
 444 1585 l 1,0,1
EndSplineSet
Validated: 33
EndChar

StartChar: u1B002
Encoding: 12482 110594 1
Width: 2048
Flags: W
LayerCount: 2
Fore
SplineSet
657 1612 m 1,0,1
 679 1610 679 1610 706 1608.5 c 128,-1,2
 733 1607 733 1607 756 1602 c 0,3,4
 835 1585 835 1585 867 1557.5 c 128,-1,5
 899 1530 899 1530 899 1505 c 0,6,7
 899 1487 899 1487 892.5 1468.5 c 128,-1,8
 886 1450 886 1450 874 1421 c 0,9,10
 870 1413 870 1413 861.5 1391.5 c 128,-1,11
 853 1370 853 1370 844 1341 c 1,12,13
 896 1364 896 1364 944.5 1383 c 128,-1,14
 993 1402 993 1402 1042 1419 c 0,15,16
 1127 1448 1127 1448 1212.5 1467.5 c 128,-1,17
 1298 1487 1298 1487 1370 1487 c 0,18,19
 1427 1487 1427 1487 1475.5 1471 c 128,-1,20
 1524 1455 1524 1455 1559 1423 c 0,21,22
 1579 1405 1579 1405 1589 1378.5 c 128,-1,23
 1599 1352 1599 1352 1599 1321 c 0,24,25
 1599 1270 1599 1270 1563 1223 c 128,-1,26
 1527 1176 1527 1176 1464 1151 c 0,27,28
 1417 1132 1417 1132 1373 1124 c 128,-1,29
 1329 1116 1329 1116 1272 1116 c 0,30,31
 1253 1116 1253 1116 1230.5 1119 c 128,-1,32
 1208 1122 1208 1122 1185 1129 c 128,-1,33
 1162 1136 1162 1136 1140.5 1146.5 c 128,-1,34
 1119 1157 1119 1157 1102 1171 c 1,35,-1
 1126 1219 l 1,36,37
 1154 1202 1154 1202 1179 1194 c 128,-1,38
 1204 1186 1204 1186 1239 1186 c 0,39,40
 1293 1186 1293 1186 1343 1200.5 c 128,-1,41
 1393 1215 1393 1215 1432 1247 c 0,42,43
 1462 1271 1462 1271 1462 1315 c 0,44,45
 1462 1361 1462 1361 1434 1389 c 128,-1,46
 1406 1417 1406 1417 1346 1417 c 0,47,48
 1316 1417 1316 1417 1276 1410.5 c 128,-1,49
 1236 1404 1236 1404 1193 1393.5 c 128,-1,50
 1150 1383 1150 1383 1107.5 1369.5 c 128,-1,51
 1065 1356 1065 1356 1030 1343 c 0,52,53
 997 1331 997 1331 971 1321 c 128,-1,54
 945 1311 945 1311 920.5 1300.5 c 128,-1,55
 896 1290 896 1290 871 1277.5 c 128,-1,56
 846 1265 846 1265 815 1249 c 1,57,58
 798 1190 798 1190 786 1140.5 c 128,-1,59
 774 1091 774 1091 766 1043 c 128,-1,60
 758 995 758 995 753 943.5 c 128,-1,61
 748 892 748 892 745 829 c 1,62,63
 783 849 783 849 813.5 863.5 c 128,-1,64
 844 878 844 878 872 889 c 128,-1,65
 900 900 900 900 928.5 909.5 c 128,-1,66
 957 919 957 919 991 928 c 0,67,68
 1008 933 1008 933 1025 937 c 128,-1,69
 1042 941 1042 941 1061 944 c 1,70,71
 1069 964 1069 964 1076.5 984 c 128,-1,72
 1084 1004 1084 1004 1092 1026 c 1,73,-1
 1139 999 l 1,74,75
 1136 988 1136 988 1132.5 978.5 c 128,-1,76
 1129 969 1129 969 1126 956 c 1,77,78
 1174 963 1174 963 1212 966 c 128,-1,79
 1250 969 1250 969 1270 969 c 0,80,81
 1385 969 1385 969 1477.5 946.5 c 128,-1,82
 1570 924 1570 924 1642 868 c 0,83,84
 1680 839 1680 839 1707.5 807 c 128,-1,85
 1735 775 1735 775 1753 738 c 128,-1,86
 1771 701 1771 701 1779.5 657.5 c 128,-1,87
 1788 614 1788 614 1788 563 c 0,88,89
 1788 486 1788 486 1767 416.5 c 128,-1,90
 1746 347 1746 347 1707.5 286 c 128,-1,91
 1669 225 1669 225 1614.5 172.5 c 128,-1,92
 1560 120 1560 120 1493 78 c 0,93,94
 1439 43 1439 43 1387 16 c 128,-1,95
 1335 -11 1335 -11 1281.5 -34 c 128,-1,96
 1228 -57 1228 -57 1170.5 -76.5 c 128,-1,97
 1113 -96 1113 -96 1047 -115 c 1,98,-1
 1012 -59 l 1,99,100
 1144 -15 1144 -15 1240.5 38 c 128,-1,101
 1337 91 1337 91 1417 147 c 0,102,103
 1481 192 1481 192 1525 239.5 c 128,-1,104
 1569 287 1569 287 1596.5 338.5 c 128,-1,105
 1624 390 1624 390 1636.5 445.5 c 128,-1,106
 1649 501 1649 501 1649 561 c 0,107,108
 1649 608 1649 608 1641 644.5 c 128,-1,109
 1633 681 1633 681 1618.5 710 c 128,-1,110
 1604 739 1604 739 1585 762 c 128,-1,111
 1566 785 1566 785 1544 805 c 0,112,113
 1490 853 1490 853 1420 877 c 128,-1,114
 1350 901 1350 901 1266 901 c 0,115,116
 1188 901 1188 901 1112 889 c 1,117,118
 1099 787 1099 787 1090.5 713.5 c 128,-1,119
 1082 640 1082 640 1077 581.5 c 128,-1,120
 1072 523 1072 523 1069 473 c 128,-1,121
 1066 423 1066 423 1065 369 c 0,122,123
 1063 321 1063 321 1064 274.5 c 128,-1,124
 1065 228 1065 228 1069 186 c 0,125,126
 1071 169 1071 169 1063 142.5 c 128,-1,127
 1055 116 1055 116 1032 96 c 0,128,129
 1021 87 1021 87 1007.5 81.5 c 128,-1,130
 994 76 994 76 973 76 c 0,131,132
 958 76 958 76 938.5 80 c 128,-1,133
 919 84 919 84 897 92 c 128,-1,134
 875 100 875 100 852.5 112 c 128,-1,135
 830 124 830 124 809 141 c 0,136,137
 792 155 792 155 772 178.5 c 128,-1,138
 752 202 752 202 733 229 c 1,139,140
 708 203 708 203 678.5 178 c 128,-1,141
 649 153 649 153 620 131.5 c 128,-1,142
 591 110 591 110 565.5 94.5 c 128,-1,143
 540 79 540 79 522 72 c 0,144,145
 459 47 459 47 424 59 c 0,146,147
 402 67 402 67 384 88 c 128,-1,148
 366 109 366 109 350 135 c 0,149,150
 345 144 345 144 336 159 c 128,-1,151
 327 174 327 174 316 190.5 c 128,-1,152
 305 207 305 207 293.5 223.5 c 128,-1,153
 282 240 282 240 272 252 c 0,154,155
 260 266 260 266 253 285.5 c 128,-1,156
 246 305 246 305 246 330 c 0,157,158
 246 344 246 344 249.5 366 c 128,-1,159
 253 388 253 388 266 410 c 0,160,161
 275 425 275 425 293 451.5 c 128,-1,162
 311 478 311 478 337.5 510 c 128,-1,163
 364 542 364 542 398.5 577.5 c 128,-1,164
 433 613 433 613 475 647 c 0,165,166
 513 678 513 678 557 711.5 c 128,-1,167
 601 745 601 745 649 776 c 1,168,169
 652 893 652 893 667 1000 c 128,-1,170
 682 1107 682 1107 700 1198 c 1,171,172
 649 1173 649 1173 605.5 1149 c 128,-1,173
 562 1125 562 1125 541 1108 c 0,174,175
 527 1097 527 1097 517 1085.5 c 128,-1,176
 507 1074 507 1074 496 1063 c 0,177,178
 488 1055 488 1055 473.5 1046.5 c 128,-1,179
 459 1038 459 1038 442 1038 c 0,180,181
 424 1038 424 1038 408.5 1044 c 128,-1,182
 393 1050 393 1050 381 1059 c 0,183,184
 319 1106 319 1106 319 1196 c 0,185,186
 319 1233 319 1233 325 1268 c 128,-1,187
 331 1303 331 1303 340 1333 c 128,-1,188
 349 1363 349 1363 360 1388 c 128,-1,189
 371 1413 371 1413 381 1430 c 1,190,-1
 428 1405 l 1,191,192
 419 1379 419 1379 411 1338.5 c 128,-1,193
 403 1298 403 1298 403 1260 c 0,194,195
 403 1225 403 1225 411 1204.5 c 128,-1,196
 419 1184 419 1184 440 1184 c 0,197,198
 448 1184 448 1184 457.5 1186 c 128,-1,199
 467 1188 467 1188 482.5 1194 c 128,-1,200
 498 1200 498 1200 520.5 1210.5 c 128,-1,201
 543 1221 543 1221 578 1237 c 0,202,203
 605 1249 605 1249 644 1267.5 c 128,-1,204
 683 1286 683 1286 719 1300 c 1,205,206
 725 1332 725 1332 732.5 1369.5 c 128,-1,207
 740 1407 740 1407 745 1430 c 0,208,209
 753 1467 753 1467 744 1497.5 c 128,-1,210
 735 1528 735 1528 705 1542 c 0,211,212
 691 1549 691 1549 669.5 1554 c 128,-1,213
 648 1559 648 1559 631 1561 c 1,214,-1
 657 1612 l 1,0,1
651 684 m 1,215,216
 614 659 614 659 576 625.5 c 128,-1,217
 538 592 538 592 510 561 c 0,218,219
 464 510 464 510 436.5 470.5 c 128,-1,220
 409 431 409 431 394.5 398.5 c 128,-1,221
 380 366 380 366 375.5 338 c 128,-1,222
 371 310 371 310 371 281 c 0,223,224
 371 236 371 236 394.5 210 c 128,-1,225
 418 184 418 184 455 184 c 0,226,227
 479 184 479 184 504 190.5 c 128,-1,228
 529 197 529 197 551 209 c 0,229,230
 583 227 583 227 620.5 259.5 c 128,-1,231
 658 292 658 292 692 324 c 1,232,233
 681 359 681 359 673.5 404.5 c 128,-1,234
 666 450 666 450 661 498.5 c 128,-1,235
 656 547 656 547 653.5 595 c 128,-1,236
 651 643 651 643 651 684 c 1,215,216
1036 709 m 1,237,238
 985 591 985 591 926.5 489 c 128,-1,239
 868 387 868 387 805 311 c 1,240,241
 823 276 823 276 853 246.5 c 128,-1,242
 883 217 883 217 911 205 c 0,243,244
 929 197 929 197 940 194 c 128,-1,245
 951 191 951 191 958.5 196.5 c 128,-1,246
 966 202 966 202 970.5 217.5 c 128,-1,247
 975 233 975 233 979 262 c 0,248,249
 985 305 985 305 991.5 358 c 128,-1,250
 998 411 998 411 1005.5 469.5 c 128,-1,251
 1013 528 1013 528 1020.5 589 c 128,-1,252
 1028 650 1028 650 1036 709 c 1,237,238
1028 870 m 1,253,254
 953 850 953 850 880.5 819 c 128,-1,255
 808 788 808 788 739 743 c 1,256,257
 740 709 740 709 743 667 c 128,-1,258
 746 625 746 625 750 581 c 128,-1,259
 754 537 754 537 759 494.5 c 128,-1,260
 764 452 764 452 770 418 c 1,261,262
 836 505 836 505 900.5 614.5 c 128,-1,263
 965 724 965 724 1028 870 c 1,253,254
EndSplineSet
Validated: 33
EndChar

StartChar: u1B003
Encoding: 12483 110595 2
Width: 2048
Flags: W
LayerCount: 2
Fore
SplineSet
860 1675 m 1,0,1
 908 1673 908 1673 953 1667.5 c 128,-1,2
 998 1662 998 1662 1032 1651 c 0,3,4
 1059 1642 1059 1642 1074 1630.5 c 128,-1,5
 1089 1619 1089 1619 1095.5 1605 c 128,-1,6
 1102 1591 1102 1591 1102 1573.5 c 128,-1,7
 1102 1556 1102 1556 1098 1534 c 0,8,9
 1092 1502 1092 1502 1088.5 1466 c 128,-1,10
 1085 1430 1085 1430 1085 1393 c 1,11,12
 1142 1405 1142 1405 1195 1420.5 c 128,-1,13
 1248 1436 1248 1436 1282 1452 c 0,14,15
 1317 1469 1317 1469 1335.5 1478 c 128,-1,16
 1354 1487 1354 1487 1372 1485 c 0,17,18
 1388 1483 1388 1483 1404 1470 c 128,-1,19
 1420 1457 1420 1457 1423 1440 c 0,20,21
 1428 1412 1428 1412 1410 1394.5 c 128,-1,22
 1392 1377 1392 1377 1364 1366 c 0,23,24
 1307 1343 1307 1343 1232 1324 c 128,-1,25
 1157 1305 1157 1305 1079 1292 c 1,26,27
 1079 1255 1079 1255 1078 1217 c 128,-1,28
 1077 1179 1077 1179 1077 1137 c 1,29,30
 1183 1174 1183 1174 1273.5 1195.5 c 128,-1,31
 1364 1217 1364 1217 1454 1217 c 0,32,33
 1516 1217 1516 1217 1569 1206.5 c 128,-1,34
 1622 1196 1622 1196 1660.5 1175 c 128,-1,35
 1699 1154 1699 1154 1721 1122.5 c 128,-1,36
 1743 1091 1743 1091 1743 1049 c 0,37,38
 1743 1014 1743 1014 1730 984.5 c 128,-1,39
 1717 955 1717 955 1693.5 927.5 c 128,-1,40
 1670 900 1670 900 1636.5 873.5 c 128,-1,41
 1603 847 1603 847 1563 819 c 0,42,43
 1521 790 1521 790 1477.5 764 c 128,-1,44
 1434 738 1434 738 1386.5 711.5 c 128,-1,45
 1339 685 1339 685 1287 657.5 c 128,-1,46
 1235 630 1235 630 1176 598 c 0,47,48
 1104 560 1104 560 1067.5 516.5 c 128,-1,49
 1031 473 1031 473 1028 436 c 0,50,51
 1025 402 1025 402 1043 376.5 c 128,-1,52
 1061 351 1061 351 1104 334 c 0,53,54
 1139 320 1139 320 1154 302 c 128,-1,55
 1169 284 1169 284 1169 264 c 0,56,57
 1169 241 1169 241 1155 222.5 c 128,-1,58
 1141 204 1141 204 1104 190 c 0,59,60
 1035 164 1035 164 997 104 c 0,61,62
 968 60 968 60 1024 39 c 0,63,64
 1064 23 1064 23 1104 19 c 128,-1,65
 1144 15 1144 15 1198 18 c 0,66,67
 1241 21 1241 21 1266 22 c 128,-1,68
 1291 23 1291 23 1313 12 c 0,69,70
 1338 0 1338 0 1346 -14 c 128,-1,71
 1354 -28 1354 -28 1354 -43 c 0,72,73
 1354 -65 1354 -65 1341 -76 c 128,-1,74
 1328 -87 1328 -87 1311 -90 c 0,75,76
 1286 -95 1286 -95 1260 -97.5 c 128,-1,77
 1234 -100 1234 -100 1200 -100 c 0,78,79
 1137 -100 1137 -100 1085.5 -90.5 c 128,-1,80
 1034 -81 1034 -81 995 -66 c 0,81,82
 937 -43 937 -43 916 -13 c 128,-1,83
 895 17 895 17 895 51 c 0,84,85
 895 71 895 71 901.5 90 c 128,-1,86
 908 109 908 109 920 131 c 0,87,88
 928 146 928 146 941 162.5 c 128,-1,89
 954 179 954 179 969.5 194.5 c 128,-1,90
 985 210 985 210 1002.5 224 c 128,-1,91
 1020 238 1020 238 1036 248 c 1,92,93
 1019 257 1019 257 1001.5 271 c 128,-1,94
 984 285 984 285 967 305 c 0,95,96
 953 322 953 322 945.5 345.5 c 128,-1,97
 938 369 938 369 938 403 c 0,98,99
 938 439 938 439 958 477 c 128,-1,100
 978 515 978 515 1026 563 c 1,101,102
 1004 555 1004 555 990.5 563 c 128,-1,103
 977 571 977 571 969 584 c 0,104,105
 960 598 960 598 950.5 608.5 c 128,-1,106
 941 619 941 619 930 629 c 0,107,108
 870 680 870 680 788.5 733.5 c 128,-1,109
 707 787 707 787 604 838 c 1,110,111
 579 824 579 824 550 804 c 128,-1,112
 521 784 521 784 489 756 c 0,113,114
 466 736 466 736 448 716.5 c 128,-1,115
 430 697 430 697 416 680 c 0,116,117
 399 660 399 660 385.5 653.5 c 128,-1,118
 372 647 372 647 358 647 c 0,119,120
 334 647 334 647 305 682 c 0,121,122
 291 699 291 699 283.5 724 c 128,-1,123
 276 749 276 749 276 791 c 0,124,125
 276 863 276 863 307 935 c 128,-1,126
 338 1007 338 1007 395 1085 c 1,127,-1
 436 1057 l 1,128,129
 421 1033 421 1033 409.5 1005 c 128,-1,130
 398 977 398 977 390.5 948 c 128,-1,131
 383 919 383 919 380 891.5 c 128,-1,132
 377 864 377 864 379 840 c 0,133,134
 381 818 381 818 390.5 816.5 c 128,-1,135
 400 815 400 815 414 821 c 0,136,137
 432 829 432 829 458.5 844.5 c 128,-1,138
 485 860 485 860 510 874 c 0,139,140
 577 912 577 912 637.5 943.5 c 128,-1,141
 698 975 698 975 755.5 1002 c 128,-1,142
 813 1029 813 1029 869 1053 c 128,-1,143
 925 1077 925 1077 983 1100 c 1,144,145
 985 1146 985 1146 985 1191.5 c 128,-1,146
 985 1237 985 1237 985 1282 c 1,147,148
 931 1280 931 1280 884 1284 c 128,-1,149
 837 1288 837 1288 795.5 1301 c 128,-1,150
 754 1314 754 1314 717 1337.5 c 128,-1,151
 680 1361 680 1361 647 1397 c 1,152,-1
 678 1440 l 1,153,154
 712 1416 712 1416 745.5 1400.5 c 128,-1,155
 779 1385 779 1385 815.5 1377.5 c 128,-1,156
 852 1370 852 1370 894 1370 c 128,-1,157
 936 1370 936 1370 987 1376 c 1,158,-1
 987 1495 l 2,159,160
 987 1555 987 1555 947.5 1585.5 c 128,-1,161
 908 1616 908 1616 842 1630 c 1,162,-1
 860 1675 l 1,0,1
1438 1161 m 0,163,164
 1369 1161 1369 1161 1278 1136 c 128,-1,165
 1187 1111 1187 1111 1075 1069 c 1,166,-1
 1075 743 l 2,167,168
 1075 708 1075 708 1076 685 c 128,-1,169
 1077 662 1077 662 1079 645 c 0,170,171
 1081 631 1081 631 1077 619 c 128,-1,172
 1073 607 1073 607 1065 596 c 1,173,174
 1082 607 1082 607 1100.5 619.5 c 128,-1,175
 1119 632 1119 632 1141 645 c 0,176,177
 1238 702 1238 702 1314 753 c 128,-1,178
 1390 804 1390 804 1456 858 c 0,179,180
 1528 918 1528 918 1560.5 961.5 c 128,-1,181
 1593 1005 1593 1005 1593 1040 c 0,182,183
 1593 1097 1593 1097 1553 1129 c 128,-1,184
 1513 1161 1513 1161 1438 1161 c 0,163,164
983 1032 m 1,185,186
 938 1014 938 1014 898 996.5 c 128,-1,187
 858 979 858 979 819 959.5 c 128,-1,188
 780 940 780 940 739.5 918 c 128,-1,189
 699 896 699 896 653 868 c 1,190,191
 744 834 744 834 826.5 797 c 128,-1,192
 909 760 909 760 981 723 c 1,193,194
 981 811 981 811 981 887 c 128,-1,195
 981 963 981 963 983 1032 c 1,185,186
EndSplineSet
Validated: 33
EndChar

StartChar: u1B004
Encoding: 12484 110596 3
Width: 2048
Flags: W
LayerCount: 2
Fore
SplineSet
1333 889 m 0,0,1
 1423 889 1423 889 1504 867.5 c 128,-1,2
 1585 846 1585 846 1645.5 803 c 128,-1,3
 1706 760 1706 760 1742 694.5 c 128,-1,4
 1778 629 1778 629 1778 541 c 0,5,6
 1778 451 1778 451 1738 360.5 c 128,-1,7
 1698 270 1698 270 1607.5 183 c 128,-1,8
 1517 96 1517 96 1371 14 c 128,-1,9
 1225 -68 1225 -68 1012 -141 c 1,10,-1
 971 -82 l 1,11,12
 1164 -10 1164 -10 1293 67.5 c 128,-1,13
 1422 145 1422 145 1499.5 225.5 c 128,-1,14
 1577 306 1577 306 1609.5 386.5 c 128,-1,15
 1642 467 1642 467 1642 545 c 0,16,17
 1642 684 1642 684 1560.5 751.5 c 128,-1,18
 1479 819 1479 819 1321 821 c 1,19,20
 1315 766 1315 766 1297 712 c 128,-1,21
 1279 658 1279 658 1257 616 c 0,22,23
 1242 587 1242 587 1222 559.5 c 128,-1,24
 1202 532 1202 532 1179.5 507.5 c 128,-1,25
 1157 483 1157 483 1133 462.5 c 128,-1,26
 1109 442 1109 442 1087 428 c 0,27,28
 1042 399 1042 399 1013.5 393.5 c 128,-1,29
 985 388 985 388 965 391 c 0,30,31
 948 394 948 394 933 408 c 128,-1,32
 918 422 918 422 909 446 c 0,33,34
 900 472 900 472 888.5 498 c 128,-1,35
 877 524 877 524 866 549 c 0,36,37
 858 566 858 566 849.5 580.5 c 128,-1,38
 841 595 841 595 829 610 c 0,39,40
 816 626 816 626 810.5 644.5 c 128,-1,41
 805 663 805 663 805 680 c 256,42,43
 805 697 805 697 818.5 719.5 c 128,-1,44
 832 742 832 742 864 764 c 0,45,46
 949 821 949 821 1064 855 c 128,-1,47
 1179 889 1179 889 1333 889 c 0,0,1
1243 817 m 1,48,49
 1180 809 1180 809 1121.5 788.5 c 128,-1,50
 1063 768 1063 768 1017.5 741 c 128,-1,51
 972 714 972 714 945 685 c 128,-1,52
 918 656 918 656 918 631 c 0,53,54
 918 613 918 613 923.5 591 c 128,-1,55
 929 569 929 569 940.5 550 c 128,-1,56
 952 531 952 531 969.5 518.5 c 128,-1,57
 987 506 987 506 1012 506 c 0,58,59
 1028 506 1028 506 1049 517.5 c 128,-1,60
 1070 529 1070 529 1092 548.5 c 128,-1,61
 1114 568 1114 568 1136 593.5 c 128,-1,62
 1158 619 1158 619 1176 647 c 0,63,64
 1200 685 1200 685 1217 728.5 c 128,-1,65
 1234 772 1234 772 1243 817 c 1,48,49
336 1532 m 1,66,67
 354 1495 354 1495 382 1467 c 128,-1,68
 410 1439 410 1439 444 1430 c 0,69,70
 473 1422 473 1422 502.5 1422.5 c 128,-1,71
 532 1423 532 1423 557 1436 c 0,72,73
 585 1450 585 1450 605 1455.5 c 128,-1,74
 625 1461 625 1461 645 1450 c 0,75,76
 659 1442 659 1442 669 1434 c 128,-1,77
 679 1426 679 1426 690 1415 c 0,78,79
 709 1397 709 1397 704.5 1375 c 128,-1,80
 700 1353 700 1353 678 1325 c 0,81,82
 666 1309 666 1309 653.5 1289.5 c 128,-1,83
 641 1270 641 1270 625 1241 c 0,84,85
 597 1189 597 1189 573.5 1132 c 128,-1,86
 550 1075 550 1075 531 1009.5 c 128,-1,87
 512 944 512 944 497 868.5 c 128,-1,88
 482 793 482 793 471 705 c 0,89,90
 457 590 457 590 458.5 465 c 128,-1,91
 460 340 460 340 479 190 c 0,92,93
 484 152 484 152 481 122.5 c 128,-1,94
 478 93 478 93 465 76 c 0,95,96
 454 62 454 62 434 59.5 c 128,-1,97
 414 57 414 57 395 76 c 0,98,99
 374 97 374 97 361 144 c 128,-1,100
 348 191 348 191 348 242 c 0,101,102
 348 295 348 295 348 347.5 c 128,-1,103
 348 400 348 400 350.5 456.5 c 128,-1,104
 353 513 353 513 358.5 575.5 c 128,-1,105
 364 638 364 638 375 711 c 0,106,107
 390 809 390 809 406.5 890.5 c 128,-1,108
 423 972 423 972 442.5 1045 c 128,-1,109
 462 1118 462 1118 485.5 1187 c 128,-1,110
 509 1256 509 1256 537 1329 c 1,111,112
 490 1321 490 1321 460 1325.5 c 128,-1,113
 430 1330 430 1330 401 1348 c 0,114,115
 363 1371 363 1371 338 1408.5 c 128,-1,116
 313 1446 313 1446 295 1495 c 1,117,-1
 336 1532 l 1,66,67
1126 1587 m 1,118,119
 1195 1488 1195 1488 1299 1439.5 c 128,-1,120
 1403 1391 1403 1391 1528 1384 c 0,121,122
 1560 1382 1560 1382 1582 1380 c 128,-1,123
 1604 1378 1604 1378 1618 1370 c 0,124,125
 1637 1359 1637 1359 1645 1345 c 128,-1,126
 1653 1331 1653 1331 1653 1319 c 0,127,128
 1653 1269 1653 1269 1606 1257 c 0,129,130
 1586 1252 1586 1252 1562 1253 c 128,-1,131
 1538 1254 1538 1254 1501 1260 c 0,132,133
 1427 1272 1427 1272 1362 1300 c 128,-1,134
 1297 1328 1297 1328 1243.5 1367 c 128,-1,135
 1190 1406 1190 1406 1148.5 1453 c 128,-1,136
 1107 1500 1107 1500 1079 1550 c 1,137,-1
 1126 1587 l 1,118,119
EndSplineSet
Validated: 33
EndChar

StartChar: u1B005
Encoding: 12485 110597 4
Width: 2048
Flags: W
LayerCount: 2
Fore
SplineSet
922 1669 m 1,0,1
 968 1594 968 1594 1034.5 1554 c 128,-1,2
 1101 1514 1101 1514 1180 1503 c 0,3,4
 1215 1498 1215 1498 1239.5 1489 c 128,-1,5
 1264 1480 1264 1480 1284 1460 c 0,6,7
 1307 1437 1307 1437 1307 1405 c 0,8,9
 1307 1388 1307 1388 1293 1375 c 128,-1,10
 1279 1362 1279 1362 1262 1360 c 0,11,12
 1242 1358 1242 1358 1222 1357 c 128,-1,13
 1202 1356 1202 1356 1176 1356 c 0,14,15
 1113 1356 1113 1356 1056.5 1341 c 128,-1,16
 1000 1326 1000 1326 934 1300 c 1,17,-1
 901 1346 l 1,18,19
 955 1369 955 1369 1003 1388.5 c 128,-1,20
 1051 1408 1051 1408 1083 1419 c 1,21,22
 1002 1451 1002 1451 951.5 1506 c 128,-1,23
 901 1561 901 1561 870 1636 c 1,24,-1
 922 1669 l 1,0,1
717 1204 m 1,25,26
 685 1186 685 1186 666.5 1170 c 128,-1,27
 648 1154 648 1154 639 1133 c 0,28,29
 630 1111 630 1111 638.5 1089.5 c 128,-1,30
 647 1068 647 1068 678 1057 c 0,31,32
 710 1046 710 1046 743.5 1045.5 c 128,-1,33
 777 1045 777 1045 819 1055 c 0,34,35
 847 1061 847 1061 870.5 1071 c 128,-1,36
 894 1081 894 1081 913 1094 c 0,37,38
 936 1110 936 1110 958 1108 c 128,-1,39
 980 1106 980 1106 1001 1094 c 0,40,41
 1015 1086 1015 1086 1030 1075.5 c 128,-1,42
 1045 1065 1045 1065 1053 1051 c 0,43,44
 1064 1031 1064 1031 1056.5 1013 c 128,-1,45
 1049 995 1049 995 1032 983 c 0,46,47
 1006 964 1006 964 981.5 944 c 128,-1,48
 957 924 957 924 940 893 c 0,49,50
 931 876 931 876 935.5 861.5 c 128,-1,51
 940 847 940 847 963 838 c 0,52,53
 994 825 994 825 1031 822 c 128,-1,54
 1068 819 1068 819 1122 825 c 0,55,56
 1148 828 1148 828 1169.5 824.5 c 128,-1,57
 1191 821 1191 821 1212 795 c 0,58,59
 1231 772 1231 772 1242 748.5 c 128,-1,60
 1253 725 1253 725 1253 707 c 0,61,62
 1253 675 1253 675 1231 657 c 128,-1,63
 1209 639 1209 639 1155 625 c 0,64,65
 1121 616 1121 616 1067 593.5 c 128,-1,66
 1013 571 1013 571 953 542.5 c 128,-1,67
 893 514 893 514 834 482.5 c 128,-1,68
 775 451 775 451 733 424 c 0,69,70
 612 346 612 346 516.5 281.5 c 128,-1,71
 421 217 421 217 352 160 c 1,72,73
 588 309 588 309 721 309 c 0,74,75
 757 309 757 309 797 301 c 128,-1,76
 837 293 837 293 875 278 c 128,-1,77
 913 263 913 263 947 242.5 c 128,-1,78
 981 222 981 222 1004 197 c 0,79,80
 1028 171 1028 171 1051 197 c 0,81,82
 1088 239 1088 239 1135.5 275.5 c 128,-1,83
 1183 312 1183 312 1231 338 c 0,84,85
 1276 363 1276 363 1329.5 376 c 128,-1,86
 1383 389 1383 389 1434 389 c 0,87,88
 1497 389 1497 389 1558 366 c 128,-1,89
 1619 343 1619 343 1673 306 c 128,-1,90
 1727 269 1727 269 1772 222 c 128,-1,91
 1817 175 1817 175 1849 127 c 0,92,93
 1869 96 1869 96 1880.5 68 c 128,-1,94
 1892 40 1892 40 1892 8 c 0,95,96
 1892 -26 1892 -26 1874.5 -49 c 128,-1,97
 1857 -72 1857 -72 1829 -72 c 0,98,99
 1806 -72 1806 -72 1787 -47.5 c 128,-1,100
 1768 -23 1768 -23 1741 31 c 0,101,102
 1709 95 1709 95 1672 149 c 128,-1,103
 1635 203 1635 203 1595.5 241 c 128,-1,104
 1556 279 1556 279 1515 300.5 c 128,-1,105
 1474 322 1474 322 1432 322 c 0,106,107
 1392 322 1392 322 1355.5 313.5 c 128,-1,108
 1319 305 1319 305 1283.5 284 c 128,-1,109
 1248 263 1248 263 1211 226.5 c 128,-1,110
 1174 190 1174 190 1133 135 c 0,111,112
 1110 104 1110 104 1097 80 c 128,-1,113
 1084 56 1084 56 1075 39 c 0,114,115
 1063 16 1063 16 1037 9.5 c 128,-1,116
 1011 3 1011 3 985 20 c 0,117,118
 962 35 962 35 928 96 c 0,119,120
 890 162 890 162 839 200.5 c 128,-1,121
 788 239 788 239 713 244 c 0,122,123
 681 246 681 246 645 234 c 128,-1,124
 609 222 609 222 569.5 199.5 c 128,-1,125
 530 177 530 177 488 144.5 c 128,-1,126
 446 112 446 112 403 74 c 0,127,128
 378 53 378 53 357 31.5 c 128,-1,129
 336 10 336 10 313 -16 c 0,130,131
 296 -35 296 -35 280 -48 c 128,-1,132
 264 -61 264 -61 250 -59 c 0,133,134
 217 -55 217 -55 207 -12 c 0,135,136
 202 9 202 9 199.5 28.5 c 128,-1,137
 197 48 197 48 199 68 c 0,138,139
 200 95 200 95 211 113 c 128,-1,140
 222 131 222 131 254 156 c 0,141,142
 279 175 279 175 329 213 c 128,-1,143
 379 251 379 251 440 296.5 c 128,-1,144
 501 342 501 342 565.5 389 c 128,-1,145
 630 436 630 436 684 473 c 0,146,147
 731 505 731 505 784 538 c 128,-1,148
 837 571 837 571 891 603 c 128,-1,149
 945 635 945 635 997.5 666 c 128,-1,150
 1050 697 1050 697 1096 725 c 1,151,152
 985 729 985 729 928 753 c 128,-1,153
 871 777 871 777 856 823 c 0,154,155
 834 893 834 893 887 981 c 1,156,157
 855 973 855 973 828.5 966 c 128,-1,158
 802 959 802 959 777.5 954.5 c 128,-1,159
 753 950 753 950 730 947.5 c 128,-1,160
 707 945 707 945 682 946 c 0,161,162
 650 947 650 947 621 955.5 c 128,-1,163
 592 964 592 964 570 979 c 128,-1,164
 548 994 548 994 535 1015.5 c 128,-1,165
 522 1037 522 1037 522 1065 c 0,166,167
 522 1098 522 1098 536.5 1125.5 c 128,-1,168
 551 1153 551 1153 575 1175 c 128,-1,169
 599 1197 599 1197 629.5 1214 c 128,-1,170
 660 1231 660 1231 692 1243 c 1,171,-1
 717 1204 l 1,25,26
EndSplineSet
Validated: 33
EndChar

StartChar: u1B006
Encoding: 12486 110598 5
Width: 2048
Flags: W
LayerCount: 2
Fore
SplineSet
432 999 m 1,0,1
 409 968 409 968 387.5 931.5 c 128,-1,2
 366 895 366 895 349.5 853.5 c 128,-1,3
 333 812 333 812 324.5 765.5 c 128,-1,4
 316 719 316 719 319 668 c 0,5,6
 321 643 321 643 330 636 c 128,-1,7
 339 629 339 629 356 649 c 0,8,9
 385 683 385 683 412.5 712 c 128,-1,10
 440 741 440 741 465 760 c 0,11,12
 490 778 490 778 512.5 788 c 128,-1,13
 535 798 535 798 555 795 c 0,14,15
 572 792 572 792 588.5 778 c 128,-1,16
 605 764 605 764 614 739 c 0,17,18
 626 708 626 708 641.5 676.5 c 128,-1,19
 657 645 657 645 680 614 c 0,20,21
 689 602 689 602 694.5 596.5 c 128,-1,22
 700 591 700 591 705.5 594 c 128,-1,23
 711 597 711 597 717 609 c 128,-1,24
 723 621 723 621 733 643 c 0,25,26
 776 740 776 740 829.5 837.5 c 128,-1,27
 883 935 883 935 942.5 1024 c 128,-1,28
 1002 1113 1002 1113 1064.5 1190 c 128,-1,29
 1127 1267 1127 1267 1189.5 1324 c 128,-1,30
 1252 1381 1252 1381 1310.5 1413.5 c 128,-1,31
 1369 1446 1369 1446 1421 1446 c 0,32,33
 1445 1446 1445 1446 1468 1437 c 128,-1,34
 1491 1428 1491 1428 1508.5 1411 c 128,-1,35
 1526 1394 1526 1394 1537 1367.5 c 128,-1,36
 1548 1341 1548 1341 1548 1307 c 0,37,38
 1548 1166 1548 1166 1528.5 1013 c 128,-1,39
 1509 860 1509 860 1487 690 c 0,40,41
 1484 667 1484 667 1490.5 661 c 128,-1,42
 1497 655 1497 655 1522 657 c 0,43,44
 1545 659 1545 659 1571 658 c 128,-1,45
 1597 657 1597 657 1620 655 c 0,46,47
 1670 651 1670 651 1709 636.5 c 128,-1,48
 1748 622 1748 622 1775 599 c 128,-1,49
 1802 576 1802 576 1816.5 545.5 c 128,-1,50
 1831 515 1831 515 1831 479 c 0,51,52
 1831 413 1831 413 1782.5 356.5 c 128,-1,53
 1734 300 1734 300 1634.5 249 c 128,-1,54
 1535 198 1535 198 1383.5 151.5 c 128,-1,55
 1232 105 1232 105 1026 59 c 1,56,-1
 997 117 l 1,57,58
 1157 160 1157 160 1286 206 c 128,-1,59
 1415 252 1415 252 1505 298.5 c 128,-1,60
 1595 345 1595 345 1643.5 391.5 c 128,-1,61
 1692 438 1692 438 1692 483 c 0,62,63
 1692 537 1692 537 1667 562 c 128,-1,64
 1642 587 1642 587 1604 592 c 0,65,66
 1559 598 1559 598 1518.5 586.5 c 128,-1,67
 1478 575 1478 575 1444 557 c 0,68,69
 1421 545 1421 545 1406.5 546.5 c 128,-1,70
 1392 548 1392 548 1382 557 c 0,71,72
 1359 580 1359 580 1354 604 c 0,73,74
 1352 618 1352 618 1355 640.5 c 128,-1,75
 1358 663 1358 663 1364 698 c 0,76,77
 1393 867 1393 867 1410 1014.5 c 128,-1,78
 1427 1162 1427 1162 1427 1303 c 0,79,80
 1427 1397 1427 1397 1329 1352 c 0,81,82
 1231 1306 1231 1306 1099 1121.5 c 128,-1,83
 967 937 967 937 821 610 c 0,84,85
 801 565 801 565 793.5 532.5 c 128,-1,86
 786 500 786 500 788 469 c 0,87,88
 790 429 790 429 773.5 410 c 128,-1,89
 757 391 757 391 717 391 c 0,90,91
 692 391 692 391 664.5 419 c 128,-1,92
 637 447 637 447 608 492 c 0,93,94
 598 507 598 507 586.5 530.5 c 128,-1,95
 575 554 575 554 564.5 580 c 128,-1,96
 554 606 554 606 545.5 633 c 128,-1,97
 537 660 537 660 532 682 c 0,98,99
 527 705 527 705 518.5 706 c 128,-1,100
 510 707 510 707 498 696 c 0,101,102
 466 667 466 667 436.5 623.5 c 128,-1,103
 407 580 407 580 383 532 c 0,104,105
 366 498 366 498 349.5 479.5 c 128,-1,106
 333 461 333 461 301 461 c 0,107,108
 285 461 285 461 267.5 472.5 c 128,-1,109
 250 484 250 484 235 505 c 128,-1,110
 220 526 220 526 210.5 554.5 c 128,-1,111
 201 583 201 583 201 618 c 0,112,113
 201 677 201 677 217 735.5 c 128,-1,114
 233 794 233 794 259 847 c 128,-1,115
 285 900 285 900 318.5 946.5 c 128,-1,116
 352 993 352 993 387 1028 c 1,117,-1
 432 999 l 1,0,1
EndSplineSet
Validated: 33
EndChar

StartChar: u1B007
Encoding: 12487 110599 6
Width: 2048
Flags: W
LayerCount: 2
Fore
SplineSet
600 1554 m 1,0,1
 623 1499 623 1499 625 1428.5 c 128,-1,2
 627 1358 627 1358 604 1280 c 0,3,4
 579 1195 579 1195 514.5 1092 c 128,-1,5
 450 989 450 989 356 868 c 0,6,7
 342 850 342 850 342 830 c 128,-1,8
 342 810 342 810 367 791 c 0,9,10
 385 777 385 777 404 756.5 c 128,-1,11
 423 736 423 736 438 715 c 0,12,13
 453 695 453 695 462 667.5 c 128,-1,14
 471 640 471 640 475 609 c 128,-1,15
 479 578 479 578 479.5 544 c 128,-1,16
 480 510 480 510 479 477 c 0,17,18
 478 461 478 461 477 436 c 128,-1,19
 476 411 476 411 474.5 383 c 128,-1,20
 473 355 473 355 471.5 326 c 128,-1,21
 470 297 470 297 469 272 c 1,22,23
 490 311 490 311 512.5 353 c 128,-1,24
 535 395 535 395 557.5 435.5 c 128,-1,25
 580 476 580 476 601.5 514.5 c 128,-1,26
 623 553 623 553 641 586 c 1,27,-1
 674 561 l 1,28,29
 636 473 636 473 596.5 383.5 c 128,-1,30
 557 294 557 294 528 219 c 0,31,32
 509 171 509 171 500.5 131.5 c 128,-1,33
 492 92 492 92 494 66 c 0,34,35
 497 27 497 27 478 10.5 c 128,-1,36
 459 -6 459 -6 438 -6 c 256,37,38
 417 -6 417 -6 402.5 6 c 128,-1,39
 388 18 388 18 377 35 c 0,40,41
 363 58 363 58 358 82 c 128,-1,42
 353 106 353 106 356 135 c 0,43,44
 362 191 362 191 367.5 261 c 128,-1,45
 373 331 373 331 375.5 404.5 c 128,-1,46
 378 478 378 478 377 549 c 128,-1,47
 376 620 376 620 369 678 c 0,48,49
 366 704 366 704 356.5 723 c 128,-1,50
 347 742 347 742 330 764 c 0,51,52
 324 772 324 772 311.5 784.5 c 128,-1,53
 299 797 299 797 291 803 c 0,54,55
 269 820 269 820 256.5 840 c 128,-1,56
 244 860 244 860 244 883 c 0,57,58
 244 904 244 904 255 930.5 c 128,-1,59
 266 957 266 957 295 989 c 0,60,61
 349 1049 349 1049 400.5 1116 c 128,-1,62
 452 1183 452 1183 489 1255 c 0,63,64
 511 1298 511 1298 526 1335.5 c 128,-1,65
 541 1373 541 1373 550 1408 c 128,-1,66
 559 1443 559 1443 562 1476 c 128,-1,67
 565 1509 565 1509 563 1544 c 1,68,-1
 600 1554 l 1,0,1
920 1133 m 1,69,70
 944 1117 944 1117 975.5 1109.5 c 128,-1,71
 1007 1102 1007 1102 1067 1102 c 0,72,73
 1094 1102 1094 1102 1123 1108.5 c 128,-1,74
 1152 1115 1152 1115 1180 1125.5 c 128,-1,75
 1208 1136 1208 1136 1232 1148.5 c 128,-1,76
 1256 1161 1256 1161 1274 1174 c 0,77,78
 1294 1189 1294 1189 1311.5 1196.5 c 128,-1,79
 1329 1204 1329 1204 1344 1207 c 128,-1,80
 1359 1210 1359 1210 1371.5 1210 c 128,-1,81
 1384 1210 1384 1210 1395 1210 c 0,82,83
 1409 1210 1409 1210 1424.5 1206 c 128,-1,84
 1440 1202 1440 1202 1454 1195 c 128,-1,85
 1468 1188 1468 1188 1478.5 1178.5 c 128,-1,86
 1489 1169 1489 1169 1493 1157 c 0,87,88
 1502 1129 1502 1129 1488 1109.5 c 128,-1,89
 1474 1090 1474 1090 1436 1073 c 0,90,91
 1418 1065 1418 1065 1394 1043 c 128,-1,92
 1370 1021 1370 1021 1344 993 c 128,-1,93
 1318 965 1318 965 1293 935 c 128,-1,94
 1268 905 1268 905 1249 881 c 0,95,96
 1228 855 1228 855 1208 827.5 c 128,-1,97
 1188 800 1188 800 1171 773.5 c 128,-1,98
 1154 747 1154 747 1141.5 722.5 c 128,-1,99
 1129 698 1129 698 1124 678 c 256,100,101
 1119 658 1119 658 1131.5 653.5 c 128,-1,102
 1144 649 1144 649 1186 651 c 0,103,104
 1203 652 1203 652 1227.5 656.5 c 128,-1,105
 1252 661 1252 661 1277 667.5 c 128,-1,106
 1302 674 1302 674 1324 681 c 128,-1,107
 1346 688 1346 688 1358 694 c 1,108,109
 1360 732 1360 732 1362 781.5 c 128,-1,110
 1364 831 1364 831 1378 877 c 0,111,112
 1393 925 1393 925 1423 951 c 128,-1,113
 1453 977 1453 977 1491 977 c 0,114,115
 1516 977 1516 977 1533.5 968.5 c 128,-1,116
 1551 960 1551 960 1573 940 c 0,117,118
 1585 928 1585 928 1595 920.5 c 128,-1,119
 1605 913 1605 913 1616.5 907 c 128,-1,120
 1628 901 1628 901 1642 895.5 c 128,-1,121
 1656 890 1656 890 1677 883 c 0,122,123
 1709 872 1709 872 1721 856.5 c 128,-1,124
 1733 841 1733 841 1733 825 c 0,125,126
 1733 794 1733 794 1708.5 764.5 c 128,-1,127
 1684 735 1684 735 1642 709 c 0,128,129
 1611 690 1611 690 1566 667.5 c 128,-1,130
 1521 645 1521 645 1473 633 c 1,131,132
 1473 599 1473 599 1470 558 c 128,-1,133
 1467 517 1467 517 1462.5 475.5 c 128,-1,134
 1458 434 1458 434 1451.5 396 c 128,-1,135
 1445 358 1445 358 1438 330 c 0,136,137
 1426 285 1426 285 1411.5 247.5 c 128,-1,138
 1397 210 1397 210 1379 178 c 128,-1,139
 1361 146 1361 146 1340 118 c 128,-1,140
 1319 90 1319 90 1294 63 c 0,141,142
 1242 6 1242 6 1181.5 -38 c 128,-1,143
 1121 -82 1121 -82 1067 -113 c 1,144,-1
 1032 -76 l 1,145,146
 1092 -31 1092 -31 1145.5 19 c 128,-1,147
 1199 69 1199 69 1247 135 c 0,148,149
 1282 183 1282 183 1302.5 240 c 128,-1,150
 1323 297 1323 297 1335 367 c 0,151,152
 1339 388 1339 388 1342.5 415 c 128,-1,153
 1346 442 1346 442 1349 472.5 c 128,-1,154
 1352 503 1352 503 1354 534 c 128,-1,155
 1356 565 1356 565 1356 594 c 1,156,157
 1341 587 1341 587 1314.5 578.5 c 128,-1,158
 1288 570 1288 570 1259.5 562.5 c 128,-1,159
 1231 555 1231 555 1203 549 c 128,-1,160
 1175 543 1175 543 1157 541 c 0,161,162
 1084 534 1084 534 1063 559 c 0,163,164
 1036 589 1036 589 1051 649 c 0,165,166
 1058 677 1058 677 1073.5 710 c 128,-1,167
 1089 743 1089 743 1107.5 774.5 c 128,-1,168
 1126 806 1126 806 1145.5 835 c 128,-1,169
 1165 864 1165 864 1180 885 c 0,170,171
 1198 911 1198 911 1220.5 941.5 c 128,-1,172
 1243 972 1243 972 1267 1002 c 128,-1,173
 1291 1032 1291 1032 1314 1060 c 128,-1,174
 1337 1088 1337 1088 1356 1108 c 1,175,176
 1293 1070 1293 1070 1227 1046.5 c 128,-1,177
 1161 1023 1161 1023 1098 1020 c 256,178,179
 1035 1017 1035 1017 981.5 1036 c 128,-1,180
 928 1055 928 1055 899 1100 c 1,181,-1
 920 1133 l 1,69,70
1475 733 m 1,182,183
 1494 739 1494 739 1514 748.5 c 128,-1,184
 1534 758 1534 758 1553 769 c 128,-1,185
 1572 780 1572 780 1589 793 c 128,-1,186
 1606 806 1606 806 1618 819 c 0,187,188
 1631 833 1631 833 1630 844 c 128,-1,189
 1629 855 1629 855 1612 866 c 256,190,191
 1595 877 1595 877 1573.5 890 c 128,-1,192
 1552 903 1552 903 1540 911 c 0,193,194
 1498 938 1498 938 1485 872 c 0,195,196
 1482 858 1482 858 1480 840 c 128,-1,197
 1478 822 1478 822 1477 803 c 128,-1,198
 1476 784 1476 784 1475.5 765.5 c 128,-1,199
 1475 747 1475 747 1475 733 c 1,182,183
1044 1421 m 1,200,201
 1089 1455 1089 1455 1136 1484 c 128,-1,202
 1183 1513 1183 1513 1233.5 1534.5 c 128,-1,203
 1284 1556 1284 1556 1339 1568.5 c 128,-1,204
 1394 1581 1394 1581 1454 1581 c 0,205,206
 1492 1581 1492 1581 1520.5 1574 c 128,-1,207
 1549 1567 1549 1567 1569 1556 c 0,208,209
 1586 1547 1586 1547 1600.5 1533 c 128,-1,210
 1615 1519 1615 1519 1620 1505 c 256,211,212
 1625 1491 1625 1491 1622.5 1475.5 c 128,-1,213
 1620 1460 1620 1460 1612 1452 c 0,214,215
 1602 1440 1602 1440 1584 1439 c 128,-1,216
 1566 1438 1566 1438 1550 1440 c 0,217,218
 1533 1442 1533 1442 1514 1432 c 128,-1,219
 1495 1422 1495 1422 1477 1413 c 0,220,221
 1449 1399 1449 1399 1402 1372.5 c 128,-1,222
 1355 1346 1355 1346 1309 1315 c 1,223,-1
 1276 1346 l 1,224,225
 1318 1372 1318 1372 1352 1401.5 c 128,-1,226
 1386 1431 1386 1431 1403 1452 c 0,227,228
 1411 1462 1411 1462 1393 1469.5 c 128,-1,229
 1375 1477 1375 1477 1348 1477 c 0,230,231
 1318 1477 1318 1477 1282 1469 c 128,-1,232
 1246 1461 1246 1461 1209 1448.5 c 128,-1,233
 1172 1436 1172 1436 1136.5 1419 c 128,-1,234
 1101 1402 1101 1402 1073 1384 c 1,235,-1
 1044 1421 l 1,200,201
EndSplineSet
Validated: 33
EndChar

StartChar: u1B008
Encoding: 12488 110600 7
Width: 2048
Flags: W
LayerCount: 2
Fore
SplineSet
840 1698 m 1,0,1
 854 1682 854 1682 867.5 1670.5 c 128,-1,2
 881 1659 881 1659 896 1650.5 c 128,-1,3
 911 1642 911 1642 928 1635.5 c 128,-1,4
 945 1629 945 1629 967 1622 c 0,5,6
 1012 1608 1012 1608 1054.5 1605 c 128,-1,7
 1097 1602 1097 1602 1139 1602 c 0,8,9
 1151 1602 1151 1602 1170 1603 c 128,-1,10
 1189 1604 1189 1604 1198 1606 c 0,11,12
 1221 1609 1221 1609 1245.5 1599 c 128,-1,13
 1270 1589 1270 1589 1290 1569 c 0,14,15
 1303 1556 1303 1556 1308 1541.5 c 128,-1,16
 1313 1527 1313 1527 1313 1513 c 0,17,18
 1313 1501 1313 1501 1302.5 1491 c 128,-1,19
 1292 1481 1292 1481 1274 1473 c 0,20,21
 1263 1468 1263 1468 1243 1464 c 128,-1,22
 1223 1460 1223 1460 1204 1458 c 0,23,24
 1178 1456 1178 1456 1149.5 1453.5 c 128,-1,25
 1121 1451 1121 1451 1085 1446 c 0,26,27
 1030 1438 1030 1438 968 1427 c 128,-1,28
 906 1416 906 1416 846 1401 c 1,29,-1
 823 1442 l 1,30,31
 857 1454 857 1454 893.5 1465 c 128,-1,32
 930 1476 930 1476 965.5 1485 c 128,-1,33
 1001 1494 1001 1494 1034 1502 c 128,-1,34
 1067 1510 1067 1510 1094 1516 c 1,35,36
 981 1524 981 1524 913.5 1565 c 128,-1,37
 846 1606 846 1606 811 1669 c 1,38,-1
 840 1698 l 1,0,1
692 1356 m 1,39,40
 674 1339 674 1339 663.5 1324 c 128,-1,41
 653 1309 653 1309 653 1290 c 0,42,43
 653 1270 653 1270 674.5 1254 c 128,-1,44
 696 1238 696 1238 750 1231 c 0,45,46
 788 1226 788 1226 850.5 1225 c 128,-1,47
 913 1224 913 1224 985 1235 c 0,48,49
 1100 1253 1100 1253 1175 1277 c 128,-1,50
 1250 1301 1250 1301 1286 1315 c 0,51,52
 1311 1325 1311 1325 1334 1337.5 c 128,-1,53
 1357 1350 1357 1350 1372 1358 c 0,54,55
 1388 1366 1388 1366 1410 1368.5 c 128,-1,56
 1432 1371 1432 1371 1452 1366 c 0,57,58
 1481 1359 1481 1359 1499.5 1345.5 c 128,-1,59
 1518 1332 1518 1332 1518 1311 c 0,60,61
 1518 1295 1518 1295 1506.5 1280.5 c 128,-1,62
 1495 1266 1495 1266 1466 1251 c 0,63,64
 1450 1243 1450 1243 1426.5 1233.5 c 128,-1,65
 1403 1224 1403 1224 1374.5 1214 c 128,-1,66
 1346 1204 1346 1204 1313.5 1194.5 c 128,-1,67
 1281 1185 1281 1185 1247 1178 c 0,68,69
 1138 1155 1138 1155 1044.5 1139.5 c 128,-1,70
 951 1124 951 1124 866 1124 c 0,71,72
 815 1124 815 1124 775.5 1127 c 128,-1,73
 736 1130 736 1130 706 1136.5 c 128,-1,74
 676 1143 676 1143 653.5 1152.5 c 128,-1,75
 631 1162 631 1162 614 1174 c 0,76,77
 593 1189 593 1189 578 1211.5 c 128,-1,78
 563 1234 563 1234 563 1262 c 0,79,80
 563 1283 563 1283 568.5 1299.5 c 128,-1,81
 574 1316 574 1316 588 1333 c 256,82,83
 602 1350 602 1350 623.5 1364 c 128,-1,84
 645 1378 645 1378 670 1384 c 1,85,-1
 692 1356 l 1,39,40
903 1026 m 1,86,87
 885 1015 885 1015 873.5 1000.5 c 128,-1,88
 862 986 862 986 862 971 c 0,89,90
 862 958 862 958 868 949.5 c 128,-1,91
 874 941 874 941 897 932 c 0,92,93
 924 922 924 922 987 928 c 0,94,95
 1025 931 1025 931 1063.5 942.5 c 128,-1,96
 1102 954 1102 954 1126 965 c 0,97,98
 1143 972 1143 972 1160.5 970.5 c 128,-1,99
 1178 969 1178 969 1192 962 c 128,-1,100
 1206 955 1206 955 1214.5 944 c 128,-1,101
 1223 933 1223 933 1223 922 c 0,102,103
 1223 906 1223 906 1213.5 896.5 c 128,-1,104
 1204 887 1204 887 1190 881 c 0,105,106
 1173 873 1173 873 1144.5 856 c 128,-1,107
 1116 839 1116 839 1092 819 c 0,108,109
 1064 796 1064 796 1048 772.5 c 128,-1,110
 1032 749 1032 749 1032 727 c 0,111,112
 1032 713 1032 713 1047 700.5 c 128,-1,113
 1062 688 1062 688 1096 680 c 256,114,115
 1130 672 1130 672 1164 663.5 c 128,-1,116
 1198 655 1198 655 1227 647 c 0,117,118
 1255 639 1255 639 1275.5 632.5 c 128,-1,119
 1296 626 1296 626 1314 618.5 c 128,-1,120
 1332 611 1332 611 1349 602.5 c 128,-1,121
 1366 594 1366 594 1386 582 c 0,122,123
 1409 568 1409 568 1418 550.5 c 128,-1,124
 1427 533 1427 533 1425 516 c 256,125,126
 1423 499 1423 499 1418.5 484 c 128,-1,127
 1414 469 1414 469 1405 457 c 0,128,129
 1394 443 1394 443 1375.5 438 c 128,-1,130
 1357 433 1357 433 1341 436 c 0,131,132
 1330 438 1330 438 1316 440 c 128,-1,133
 1302 442 1302 442 1287.5 443.5 c 128,-1,134
 1273 445 1273 445 1259 446.5 c 128,-1,135
 1245 448 1245 448 1235 449 c 0,136,137
 1218 450 1218 450 1192.5 451 c 128,-1,138
 1167 452 1167 452 1136.5 451.5 c 128,-1,139
 1106 451 1106 451 1072.5 448.5 c 128,-1,140
 1039 446 1039 446 1006 442 c 0,141,142
 971 437 971 437 935 430 c 128,-1,143
 899 423 899 423 866 413.5 c 128,-1,144
 833 404 833 404 804 393.5 c 128,-1,145
 775 383 775 383 754 373 c 0,146,147
 724 358 724 358 685 337 c 128,-1,148
 646 316 646 316 611 289.5 c 128,-1,149
 576 263 576 263 552 233 c 128,-1,150
 528 203 528 203 528 172 c 0,151,152
 528 160 528 160 532 150 c 128,-1,153
 536 140 536 140 547 130 c 128,-1,154
 558 120 558 120 577 110 c 128,-1,155
 596 100 596 100 627 88 c 0,156,157
 645 81 645 81 677 74 c 128,-1,158
 709 67 709 67 749.5 60.5 c 128,-1,159
 790 54 790 54 837.5 49 c 128,-1,160
 885 44 885 44 936 41 c 0,161,162
 990 38 990 38 1055.5 40.5 c 128,-1,163
 1121 43 1121 43 1206 49 c 0,164,165
 1254 53 1254 53 1300.5 59 c 128,-1,166
 1347 65 1347 65 1378 72 c 0,167,168
 1407 78 1407 78 1430.5 83 c 128,-1,169
 1454 88 1454 88 1477 94 c 0,170,171
 1503 101 1503 101 1528 103.5 c 128,-1,172
 1553 106 1553 106 1579 104 c 0,173,174
 1604 102 1604 102 1618 93 c 128,-1,175
 1632 84 1632 84 1632 66 c 0,176,177
 1632 46 1632 46 1617 25 c 128,-1,178
 1602 4 1602 4 1567 -14 c 0,179,180
 1545 -25 1545 -25 1513.5 -34 c 128,-1,181
 1482 -43 1482 -43 1425 -53 c 0,182,183
 1347 -67 1347 -67 1229 -74 c 128,-1,184
 1111 -81 1111 -81 961 -78 c 0,185,186
 901 -77 901 -77 842.5 -71 c 128,-1,187
 784 -65 784 -65 731 -54 c 128,-1,188
 678 -43 678 -43 631.5 -27.5 c 128,-1,189
 585 -12 585 -12 549 8 c 0,190,191
 518 25 518 25 498.5 42.5 c 128,-1,192
 479 60 479 60 468 79.5 c 128,-1,193
 457 99 457 99 452 120.5 c 128,-1,194
 447 142 447 142 446 166 c 0,195,196
 444 201 444 201 468.5 239 c 128,-1,197
 493 277 493 277 532.5 312.5 c 128,-1,198
 572 348 572 348 621.5 379 c 128,-1,199
 671 410 671 410 719 432 c 0,200,201
 753 447 753 447 793.5 461 c 128,-1,202
 834 475 834 475 874.5 487 c 128,-1,203
 915 499 915 499 953 508.5 c 128,-1,204
 991 518 991 518 1020 524 c 0,205,206
 1077 536 1077 536 1112.5 539.5 c 128,-1,207
 1148 543 1148 543 1174 543 c 0,208,209
 1216 543 1216 543 1215 546.5 c 128,-1,210
 1214 550 1214 550 1182 567 c 0,211,212
 1162 578 1162 578 1142.5 586.5 c 128,-1,213
 1123 595 1123 595 1104 602 c 0,214,215
 1067 614 1067 614 1034 625.5 c 128,-1,216
 1001 637 1001 637 973 657 c 0,217,218
 957 668 957 668 947.5 682.5 c 128,-1,219
 938 697 938 697 938 723 c 0,220,221
 938 746 938 746 947.5 772 c 128,-1,222
 957 798 957 798 977 819 c 1,223,224
 955 819 955 819 930.5 820 c 128,-1,225
 906 821 906 821 885 823 c 0,226,227
 856 825 856 825 838.5 830.5 c 128,-1,228
 821 836 821 836 807 844 c 256,229,230
 793 852 793 852 782.5 869 c 128,-1,231
 772 886 772 886 772 901 c 0,232,233
 772 918 772 918 776 936.5 c 128,-1,234
 780 955 780 955 788 969 c 0,235,236
 805 998 805 998 827.5 1018.5 c 128,-1,237
 850 1039 850 1039 874 1049 c 1,238,-1
 903 1026 l 1,86,87
EndSplineSet
Validated: 33
EndChar

StartChar: u1B009
Encoding: 12489 110601 8
Width: 2048
Flags: W
LayerCount: 2
Fore
SplineSet
461 1655 m 1,0,1
 490 1652 490 1652 514 1647 c 128,-1,2
 538 1642 538 1642 563 1632 c 0,3,4
 595 1620 595 1620 622 1602 c 128,-1,5
 649 1584 649 1584 666 1567 c 256,6,7
 683 1550 683 1550 690 1527.5 c 128,-1,8
 697 1505 697 1505 692 1481 c 2,9,-1
 670 1384 l 2,10,11
 666 1366 666 1366 662 1337 c 128,-1,12
 658 1308 658 1308 654.5 1273 c 128,-1,13
 651 1238 651 1238 647.5 1198.5 c 128,-1,14
 644 1159 644 1159 641 1120 c 0,15,16
 636 1056 636 1056 629 975 c 128,-1,17
 622 894 622 894 616 776 c 1,18,19
 646 824 646 824 690.5 880.5 c 128,-1,20
 735 937 735 937 785.5 995 c 128,-1,21
 836 1053 836 1053 887.5 1109 c 128,-1,22
 939 1165 939 1165 983 1212 c 0,23,24
 1088 1324 1088 1324 1168 1395.5 c 128,-1,25
 1248 1467 1248 1467 1296 1499 c 256,26,27
 1344 1531 1344 1531 1384.5 1541.5 c 128,-1,28
 1425 1552 1425 1552 1450 1552 c 0,29,30
 1508 1552 1508 1552 1538 1493 c 0,31,32
 1546 1478 1546 1478 1548 1457 c 128,-1,33
 1550 1436 1550 1436 1550 1419 c 0,34,35
 1550 1404 1550 1404 1546.5 1387 c 128,-1,36
 1543 1370 1543 1370 1537 1352 c 128,-1,37
 1531 1334 1531 1334 1523.5 1317.5 c 128,-1,38
 1516 1301 1516 1301 1509 1288 c 0,39,40
 1503 1277 1503 1277 1491.5 1256.5 c 128,-1,41
 1480 1236 1480 1236 1467 1212 c 128,-1,42
 1454 1188 1454 1188 1442 1161.5 c 128,-1,43
 1430 1135 1430 1135 1423 1112 c 0,44,45
 1418 1095 1418 1095 1416.5 1083.5 c 128,-1,46
 1415 1072 1415 1072 1421 1063 c 128,-1,47
 1427 1054 1427 1054 1442.5 1046.5 c 128,-1,48
 1458 1039 1458 1039 1487 1030 c 0,49,50
 1535 1016 1535 1016 1587 992 c 128,-1,51
 1639 968 1639 968 1677 936 c 0,52,53
 1701 916 1701 916 1719.5 899 c 128,-1,54
 1738 882 1738 882 1752.5 866 c 128,-1,55
 1767 850 1767 850 1779.5 832.5 c 128,-1,56
 1792 815 1792 815 1804 793 c 0,57,58
 1822 760 1822 760 1835.5 708 c 128,-1,59
 1849 656 1849 656 1849 584 c 0,60,61
 1849 520 1849 520 1836.5 457 c 128,-1,62
 1824 394 1824 394 1797 335.5 c 128,-1,63
 1770 277 1770 277 1728 225 c 128,-1,64
 1686 173 1686 173 1628 131 c 0,65,66
 1602 113 1602 113 1566 93 c 128,-1,67
 1530 73 1530 73 1487.5 56.5 c 128,-1,68
 1445 40 1445 40 1399.5 29 c 128,-1,69
 1354 18 1354 18 1311 18 c 0,70,71
 1254 18 1254 18 1208.5 32 c 128,-1,72
 1163 46 1163 46 1135 66 c 0,73,74
 1090 98 1090 98 1063.5 133 c 128,-1,75
 1037 168 1037 168 1016 211 c 1,76,77
 1004 204 1004 204 986 198.5 c 128,-1,78
 968 193 968 193 948.5 189 c 128,-1,79
 929 185 929 185 909.5 182.5 c 128,-1,80
 890 180 890 180 874 180 c 0,81,82
 851 180 851 180 829 185 c 128,-1,83
 807 190 807 190 789.5 202.5 c 128,-1,84
 772 215 772 215 760 235 c 128,-1,85
 748 255 748 255 745 285 c 0,86,87
 741 323 741 323 765 371.5 c 128,-1,88
 789 420 789 420 834 465 c 0,89,90
 859 490 859 490 894 520.5 c 128,-1,91
 929 551 929 551 965 567 c 1,92,93
 970 612 970 612 980.5 661.5 c 128,-1,94
 991 711 991 711 1008 750 c 0,95,96
 1029 799 1029 799 1051.5 832 c 128,-1,97
 1074 865 1074 865 1097.5 884.5 c 128,-1,98
 1121 904 1121 904 1145.5 912 c 128,-1,99
 1170 920 1170 920 1196 920 c 0,100,101
 1253 920 1253 920 1290 891.5 c 128,-1,102
 1327 863 1327 863 1341 809 c 256,103,104
 1355 755 1355 755 1353.5 700.5 c 128,-1,105
 1352 646 1352 646 1339 598 c 1,106,107
 1361 594 1361 594 1385.5 585 c 128,-1,108
 1410 576 1410 576 1434 564 c 128,-1,109
 1458 552 1458 552 1479.5 538.5 c 128,-1,110
 1501 525 1501 525 1516 512 c 0,111,112
 1567 468 1567 468 1567 422 c 0,113,114
 1567 397 1567 397 1553.5 383 c 128,-1,115
 1540 369 1540 369 1511 369 c 0,116,117
 1474 369 1474 369 1423 420 c 0,118,119
 1406 437 1406 437 1374.5 458.5 c 128,-1,120
 1343 480 1343 480 1311 498 c 1,121,122
 1292 463 1292 463 1266.5 426.5 c 128,-1,123
 1241 390 1241 390 1210 356 c 0,124,125
 1181 324 1181 324 1149 295.5 c 128,-1,126
 1117 267 1117 267 1079 246 c 1,127,128
 1089 221 1089 221 1107 196 c 128,-1,129
 1125 171 1125 171 1159 143 c 0,130,131
 1188 120 1188 120 1233.5 112 c 128,-1,132
 1279 104 1279 104 1323 104 c 0,133,134
 1356 104 1356 104 1390 112.5 c 128,-1,135
 1424 121 1424 121 1457 136 c 128,-1,136
 1490 151 1490 151 1520.5 172 c 128,-1,137
 1551 193 1551 193 1577 219 c 0,138,139
 1611 253 1611 253 1636.5 295 c 128,-1,140
 1662 337 1662 337 1679.5 384.5 c 128,-1,141
 1697 432 1697 432 1705 482 c 128,-1,142
 1713 532 1713 532 1712 582 c 0,143,144
 1710 656 1710 656 1700.5 708.5 c 128,-1,145
 1691 761 1691 761 1671.5 800.5 c 128,-1,146
 1652 840 1652 840 1621 870.5 c 128,-1,147
 1590 901 1590 901 1544 932 c 0,148,149
 1530 941 1530 941 1511.5 950 c 128,-1,150
 1493 959 1493 959 1472.5 967.5 c 128,-1,151
 1452 976 1452 976 1431 982 c 128,-1,152
 1410 988 1410 988 1391 991 c 0,153,154
 1359 996 1359 996 1346 1009 c 128,-1,155
 1333 1022 1333 1022 1333 1042 c 0,156,157
 1333 1053 1333 1053 1334.5 1071 c 128,-1,158
 1336 1089 1336 1089 1341 1106 c 0,159,160
 1345 1120 1345 1120 1351 1141 c 128,-1,161
 1357 1162 1357 1162 1363 1184 c 128,-1,162
 1369 1206 1369 1206 1374 1226 c 128,-1,163
 1379 1246 1379 1246 1382 1257 c 0,164,165
 1390 1288 1390 1288 1399.5 1328.5 c 128,-1,166
 1409 1369 1409 1369 1409 1409 c 0,167,168
 1409 1431 1409 1431 1405.5 1445.5 c 128,-1,169
 1402 1460 1402 1460 1392 1464.5 c 128,-1,170
 1382 1469 1382 1469 1364.5 1463.5 c 128,-1,171
 1347 1458 1347 1458 1319 1440 c 0,172,173
 1265 1405 1265 1405 1208.5 1348.5 c 128,-1,174
 1152 1292 1152 1292 1094 1229 c 0,175,176
 1044 1175 1044 1175 979.5 1100.5 c 128,-1,177
 915 1026 915 1026 849 944.5 c 128,-1,178
 783 863 783 863 721 779.5 c 128,-1,179
 659 696 659 696 614 623 c 1,180,181
 610 571 610 571 608.5 517 c 128,-1,182
 607 463 607 463 608 413 c 128,-1,183
 609 363 609 363 610.5 320.5 c 128,-1,184
 612 278 612 278 614 250 c 0,185,186
 617 202 617 202 620 164 c 128,-1,187
 623 126 623 126 623 106 c 0,188,189
 623 35 623 35 584 -23 c 0,190,191
 570 -43 570 -43 554.5 -58.5 c 128,-1,192
 539 -74 539 -74 522 -74 c 0,193,194
 515 -74 515 -74 508.5 -68.5 c 128,-1,195
 502 -63 502 -63 497 -54 c 128,-1,196
 492 -45 492 -45 489 -34 c 128,-1,197
 486 -23 486 -23 487 -12 c 0,198,199
 488 4 488 4 490 26.5 c 128,-1,200
 492 49 492 49 494 75 c 128,-1,201
 496 101 496 101 497 129 c 128,-1,202
 498 157 498 157 498 184 c 0,203,204
 498 266 498 266 497.5 321 c 128,-1,205
 497 376 497 376 495.5 413 c 128,-1,206
 494 450 494 450 492 473 c 128,-1,207
 490 496 490 496 487 514 c 1,208,209
 478 503 478 503 470 488 c 128,-1,210
 462 473 462 473 451 455 c 0,211,212
 434 426 434 426 415.5 382.5 c 128,-1,213
 397 339 397 339 377 293 c 0,214,215
 357 248 357 248 335 233.5 c 128,-1,216
 313 219 313 219 295 219 c 0,217,218
 275 219 275 219 260 228.5 c 128,-1,219
 245 238 245 238 231 258 c 0,220,221
 223 269 223 269 215.5 287.5 c 128,-1,222
 208 306 208 306 202.5 328.5 c 128,-1,223
 197 351 197 351 193.5 376.5 c 128,-1,224
 190 402 190 402 190 428 c 0,225,226
 190 452 190 452 191.5 485 c 128,-1,227
 193 518 193 518 195.5 554 c 128,-1,228
 198 590 198 590 202 625 c 128,-1,229
 206 660 206 660 211 688 c 0,230,231
 228 785 228 785 267 840 c 128,-1,232
 306 895 306 895 352 895 c 0,233,234
 378 895 378 895 403 877.5 c 128,-1,235
 428 860 428 860 451 817 c 0,236,237
 468 786 468 786 484 743 c 128,-1,238
 500 700 500 700 512 662 c 1,239,-1
 530 688 l 1,240,241
 534 779 534 779 540.5 885 c 128,-1,242
 547 991 547 991 553 1124 c 0,243,244
 556 1187 556 1187 558.5 1265 c 128,-1,245
 561 1343 561 1343 561 1434 c 0,246,247
 561 1466 561 1466 558 1487.5 c 128,-1,248
 555 1509 555 1509 549 1524 c 128,-1,249
 543 1539 543 1539 535 1549.5 c 128,-1,250
 527 1560 527 1560 518 1569 c 0,251,252
 500 1587 500 1587 480.5 1598 c 128,-1,253
 461 1609 461 1609 442 1618 c 1,254,-1
 461 1655 l 1,0,1
461 598 m 1,255,256
 441 655 441 655 424.5 693 c 128,-1,257
 408 731 408 731 395 754 c 0,258,259
 367 807 367 807 351.5 805.5 c 128,-1,260
 336 804 336 804 326 768 c 0,261,262
 315 734 315 734 306 667 c 128,-1,263
 297 600 297 600 297 500 c 0,264,265
 297 449 297 449 302.5 417 c 128,-1,266
 308 385 308 385 324 385 c 0,267,268
 336 385 336 385 349 406.5 c 128,-1,269
 362 428 362 428 391 481 c 0,270,271
 413 521 413 521 433 553.5 c 128,-1,272
 453 586 453 586 461 598 c 1,255,256
1030 600 m 1,273,274
 1065 611 1065 611 1116 617.5 c 128,-1,275
 1167 624 1167 624 1217 621 c 1,276,277
 1226 650 1226 650 1230.5 682.5 c 128,-1,278
 1235 715 1235 715 1235 745 c 0,279,280
 1235 799 1235 799 1222 823.5 c 128,-1,281
 1209 848 1209 848 1171 850 c 0,282,283
 1113 853 1113 853 1069 752 c 0,284,285
 1054 716 1054 716 1043 675.5 c 128,-1,286
 1032 635 1032 635 1030 600 c 1,273,274
1030 510 m 1,287,288
 1028 493 1028 493 1028.5 469 c 128,-1,289
 1029 445 1029 445 1032 418 c 128,-1,290
 1035 391 1035 391 1040.5 363.5 c 128,-1,291
 1046 336 1046 336 1053 313 c 1,292,293
 1074 331 1074 331 1095.5 357 c 128,-1,294
 1117 383 1117 383 1135.5 411.5 c 128,-1,295
 1154 440 1154 440 1168.5 469 c 128,-1,296
 1183 498 1183 498 1190 522 c 1,297,298
 1150 527 1150 527 1111 524.5 c 128,-1,299
 1072 522 1072 522 1030 510 c 1,287,288
963 494 m 1,300,301
 944 483 944 483 917.5 467 c 128,-1,302
 891 451 891 451 868 426 c 0,303,304
 850 407 850 407 838 391.5 c 128,-1,305
 826 376 826 376 818 361.5 c 128,-1,306
 810 347 810 347 806.5 332 c 128,-1,307
 803 317 803 317 803 299 c 0,308,309
 803 274 803 274 817.5 261 c 128,-1,310
 832 248 832 248 872 248 c 0,311,312
 901 248 901 248 932 255 c 128,-1,313
 963 262 963 262 989 281 c 1,314,315
 977 329 977 329 969 384.5 c 128,-1,316
 961 440 961 440 963 494 c 1,300,301
EndSplineSet
Validated: 33
EndChar

StartChar: u1B00A
Encoding: 12490 110602 9
Width: 2048
Flags: W
LayerCount: 2
Fore
SplineSet
961 870 m 1,0,1
 1002 850 1002 850 1026.5 839 c 128,-1,2
 1051 828 1051 828 1071 819 c 256,3,4
 1091 810 1091 810 1105.5 790.5 c 128,-1,5
 1120 771 1120 771 1114 743 c 0,6,7
 1111 728 1111 728 1109.5 712 c 128,-1,8
 1108 696 1108 696 1106 678 c 0,9,10
 1101 627 1101 627 1100.5 553.5 c 128,-1,11
 1100 480 1100 480 1102 395 c 1,12,13
 1142 395 1142 395 1182 391.5 c 128,-1,14
 1222 388 1222 388 1260 383 c 0,15,16
 1303 378 1303 378 1345.5 370.5 c 128,-1,17
 1388 363 1388 363 1419 352 c 0,18,19
 1435 347 1435 347 1449.5 337.5 c 128,-1,20
 1464 328 1464 328 1475 316 c 128,-1,21
 1486 304 1486 304 1491.5 289 c 128,-1,22
 1497 274 1497 274 1495 258 c 0,23,24
 1492 232 1492 232 1462.5 224.5 c 128,-1,25
 1433 217 1433 217 1395 231 c 0,26,27
 1367 241 1367 241 1329 250 c 128,-1,28
 1291 259 1291 259 1251 266 c 128,-1,29
 1211 273 1211 273 1172 278 c 128,-1,30
 1133 283 1133 283 1102 285 c 1,31,32
 1100 222 1100 222 1101.5 168 c 128,-1,33
 1103 114 1103 114 1106 63 c 0,34,35
 1109 9 1109 9 1100 -27 c 128,-1,36
 1091 -63 1091 -63 1077 -86 c 0,37,38
 1068 -101 1068 -101 1056.5 -110 c 128,-1,39
 1045 -119 1045 -119 1028 -119 c 0,40,41
 1008 -119 1008 -119 991 -106 c 128,-1,42
 974 -93 974 -93 952 -59 c 0,43,44
 942 -44 942 -44 909 -20 c 128,-1,45
 876 4 876 4 833 29.5 c 128,-1,46
 790 55 790 55 744.5 78.5 c 128,-1,47
 699 102 699 102 664 115 c 0,48,49
 614 134 614 134 599 156.5 c 128,-1,50
 584 179 584 179 584 201 c 0,51,52
 584 234 584 234 632.5 271 c 128,-1,53
 681 308 681 308 760 338 c 0,54,55
 787 348 787 348 817.5 357 c 128,-1,56
 848 366 848 366 880 373 c 128,-1,57
 912 380 912 380 943.5 384.5 c 128,-1,58
 975 389 975 389 1004 391 c 1,59,60
 1005 420 1005 420 1005.5 458 c 128,-1,61
 1006 496 1006 496 1006.5 536 c 128,-1,62
 1007 576 1007 576 1007.5 613.5 c 128,-1,63
 1008 651 1008 651 1010 680 c 0,64,65
 1012 711 1012 711 1007.5 725.5 c 128,-1,66
 1003 740 1003 740 989 748 c 0,67,68
 972 757 972 757 947 770.5 c 128,-1,69
 922 784 922 784 893 799 c 0,70,71
 878 807 878 807 869.5 819 c 128,-1,72
 861 831 861 831 864 844 c 0,73,74
 867 856 867 856 871.5 865 c 128,-1,75
 876 874 876 874 883.5 881 c 128,-1,76
 891 888 891 888 903.5 894 c 128,-1,77
 916 900 916 900 934 905 c 0,78,79
 982 928 982 928 1040 957.5 c 128,-1,80
 1098 987 1098 987 1153 1016 c 128,-1,81
 1208 1045 1208 1045 1254.5 1071 c 128,-1,82
 1301 1097 1301 1097 1327 1114 c 0,83,84
 1403 1163 1403 1163 1439 1200.5 c 128,-1,85
 1475 1238 1475 1238 1475 1266 c 0,86,87
 1475 1290 1475 1290 1444.5 1300.5 c 128,-1,88
 1414 1311 1414 1311 1360 1311 c 0,89,90
 1303 1311 1303 1311 1235.5 1297 c 128,-1,91
 1168 1283 1168 1283 1099.5 1261.5 c 128,-1,92
 1031 1240 1031 1240 967 1213 c 128,-1,93
 903 1186 903 1186 852 1159 c 0,94,95
 829 1147 829 1147 798.5 1129 c 128,-1,96
 768 1111 768 1111 736 1090.5 c 128,-1,97
 704 1070 704 1070 674 1049 c 128,-1,98
 644 1028 644 1028 621 1010 c 0,99,100
 595 990 595 990 559.5 964.5 c 128,-1,101
 524 939 524 939 498 915 c 0,102,103
 459 880 459 880 437.5 870 c 128,-1,104
 416 860 416 860 399 860 c 0,105,106
 384 860 384 860 371 868 c 128,-1,107
 358 876 358 876 348.5 889 c 128,-1,108
 339 902 339 902 333.5 919.5 c 128,-1,109
 328 937 328 937 328 956 c 0,110,111
 328 994 328 994 333.5 1031 c 128,-1,112
 339 1068 339 1068 354 1106 c 0,113,114
 361 1123 361 1123 371 1141.5 c 128,-1,115
 381 1160 381 1160 392.5 1177.5 c 128,-1,116
 404 1195 404 1195 415.5 1209 c 128,-1,117
 427 1223 427 1223 438 1231 c 1,118,-1
 473 1208 l 1,119,120
 468 1201 468 1201 461 1183.5 c 128,-1,121
 454 1166 454 1166 447.5 1144.5 c 128,-1,122
 441 1123 441 1123 436 1100.5 c 128,-1,123
 431 1078 431 1078 430 1061 c 0,124,125
 428 1044 428 1044 432.5 1038.5 c 128,-1,126
 437 1033 437 1033 457 1042 c 0,127,128
 473 1049 473 1049 503 1063.5 c 128,-1,129
 533 1078 533 1078 571 1097 c 128,-1,130
 609 1116 609 1116 653.5 1138.5 c 128,-1,131
 698 1161 698 1161 743 1184 c 0,132,133
 785 1206 785 1206 842 1230 c 128,-1,134
 899 1254 899 1254 955 1275.5 c 128,-1,135
 1011 1297 1011 1297 1059 1313 c 128,-1,136
 1107 1329 1107 1329 1133 1335 c 0,137,138
 1185 1347 1185 1347 1228 1354.5 c 128,-1,139
 1271 1362 1271 1362 1307 1366.5 c 128,-1,140
 1343 1371 1343 1371 1373.5 1372.5 c 128,-1,141
 1404 1374 1404 1374 1432 1374 c 0,142,143
 1486 1374 1486 1374 1525 1366 c 128,-1,144
 1564 1358 1564 1358 1589 1344 c 128,-1,145
 1614 1330 1614 1330 1626 1312 c 128,-1,146
 1638 1294 1638 1294 1638 1274 c 0,147,148
 1638 1221 1638 1221 1577 1176 c 0,149,150
 1559 1163 1559 1163 1537.5 1148.5 c 128,-1,151
 1516 1134 1516 1134 1494 1120.5 c 128,-1,152
 1472 1107 1472 1107 1453.5 1096 c 128,-1,153
 1435 1085 1435 1085 1423 1079 c 0,154,155
 1404 1069 1404 1069 1371 1053 c 128,-1,156
 1338 1037 1338 1037 1302.5 1020 c 128,-1,157
 1267 1003 1267 1003 1235 988 c 128,-1,158
 1203 973 1203 973 1186 965 c 0,159,160
 1162 953 1162 953 1133.5 940.5 c 128,-1,161
 1105 928 1105 928 1075.5 916 c 128,-1,162
 1046 904 1046 904 1016.5 892 c 128,-1,163
 987 880 987 880 961 870 c 1,0,1
999 281 m 1,164,165
 974 282 974 282 947.5 279.5 c 128,-1,166
 921 277 921 277 895.5 272.5 c 128,-1,167
 870 268 870 268 847.5 262 c 128,-1,168
 825 256 825 256 807 252 c 0,169,170
 770 242 770 242 747.5 233 c 128,-1,171
 725 224 725 224 712.5 216 c 128,-1,172
 700 208 700 208 696 201.5 c 128,-1,173
 692 195 692 195 692 190 c 0,174,175
 692 182 692 182 698 172.5 c 128,-1,176
 704 163 704 163 733 147 c 0,177,178
 748 139 748 139 769.5 129 c 128,-1,179
 791 119 791 119 822.5 105.5 c 128,-1,180
 854 92 854 92 896.5 74.5 c 128,-1,181
 939 57 939 57 995 35 c 1,182,183
 996 65 996 65 997 88.5 c 128,-1,184
 998 112 998 112 998.5 138 c 128,-1,185
 999 164 999 164 999 197.5 c 128,-1,186
 999 231 999 231 999 281 c 1,164,165
834 1679 m 1,187,188
 886 1645 886 1645 943 1631 c 128,-1,189
 1000 1617 1000 1617 1057 1614 c 0,190,191
 1092 1612 1092 1612 1123 1606 c 128,-1,192
 1154 1600 1154 1600 1180 1589 c 0,193,194
 1201 1580 1201 1580 1219 1563 c 128,-1,195
 1237 1546 1237 1546 1237 1528 c 0,196,197
 1237 1505 1237 1505 1224.5 1489 c 128,-1,198
 1212 1473 1212 1473 1180 1473 c 0,199,200
 1155 1473 1155 1473 1094 1464 c 0,201,202
 1049 1458 1049 1458 991 1443.5 c 128,-1,203
 933 1429 933 1429 881 1415 c 1,204,-1
 850 1450 l 1,205,206
 873 1457 873 1457 899 1466 c 128,-1,207
 925 1475 925 1475 949.5 1485 c 128,-1,208
 974 1495 974 1495 996 1504 c 128,-1,209
 1018 1513 1018 1513 1032 1520 c 1,210,211
 966 1531 966 1531 907.5 1561.5 c 128,-1,212
 849 1592 849 1592 803 1649 c 1,213,-1
 834 1679 l 1,187,188
EndSplineSet
Validated: 33
EndChar

StartChar: u1B00B
Encoding: 12491 110603 10
Width: 2048
Flags: W
LayerCount: 2
Fore
SplineSet
805 1683 m 1,0,1
 828 1666 828 1666 865.5 1651.5 c 128,-1,2
 903 1637 903 1637 969 1632 c 0,3,4
 997 1630 997 1630 1028 1630 c 128,-1,5
 1059 1630 1059 1630 1088.5 1631.5 c 128,-1,6
 1118 1633 1118 1633 1144.5 1636 c 128,-1,7
 1171 1639 1171 1639 1192 1642 c 0,8,9
 1226 1647 1226 1647 1251 1641.5 c 128,-1,10
 1276 1636 1276 1636 1294 1624 c 0,11,12
 1316 1610 1316 1610 1324.5 1594.5 c 128,-1,13
 1333 1579 1333 1579 1333 1561 c 0,14,15
 1333 1544 1333 1544 1328 1532.5 c 128,-1,16
 1323 1521 1323 1521 1309 1513 c 0,17,18
 1301 1509 1301 1509 1281 1505 c 128,-1,19
 1261 1501 1261 1501 1239 1499 c 0,20,21
 1210 1497 1210 1497 1184.5 1495 c 128,-1,22
 1159 1493 1159 1493 1122 1487 c 0,23,24
 1074 1479 1074 1479 988.5 1458.5 c 128,-1,25
 903 1438 903 1438 791 1403 c 1,26,-1
 766 1438 l 1,27,28
 793 1449 793 1449 825.5 1461.5 c 128,-1,29
 858 1474 858 1474 890.5 1485.5 c 128,-1,30
 923 1497 923 1497 953 1506.5 c 128,-1,31
 983 1516 983 1516 1006 1522 c 0,32,33
 1027 1528 1027 1528 1026 1533.5 c 128,-1,34
 1025 1539 1025 1539 997 1542 c 0,35,36
 925 1550 925 1550 871.5 1575 c 128,-1,37
 818 1600 818 1600 780 1651 c 1,38,-1
 805 1683 l 1,0,1
537 1274 m 1,39,40
 523 1268 523 1268 508.5 1255 c 128,-1,41
 494 1242 494 1242 482 1224.5 c 128,-1,42
 470 1207 470 1207 462 1187 c 128,-1,43
 454 1167 454 1167 453 1147 c 0,44,45
 451 1116 451 1116 463.5 1105 c 128,-1,46
 476 1094 476 1094 516 1094 c 0,47,48
 528 1094 528 1094 542 1094.5 c 128,-1,49
 556 1095 556 1095 573.5 1098 c 128,-1,50
 591 1101 591 1101 613.5 1107 c 128,-1,51
 636 1113 636 1113 666 1124 c 0,52,53
 692 1133 692 1133 723 1146 c 128,-1,54
 754 1159 754 1159 787 1173 c 128,-1,55
 820 1187 820 1187 853.5 1201.5 c 128,-1,56
 887 1216 887 1216 918 1229 c 0,57,58
 987 1258 987 1258 1056.5 1279 c 128,-1,59
 1126 1300 1126 1300 1180 1313 c 0,60,61
 1205 1319 1205 1319 1237 1324.5 c 128,-1,62
 1269 1330 1269 1330 1303.5 1334 c 128,-1,63
 1338 1338 1338 1338 1371.5 1340.5 c 128,-1,64
 1405 1343 1405 1343 1434 1343 c 0,65,66
 1482 1343 1482 1343 1527 1335.5 c 128,-1,67
 1572 1328 1572 1328 1604 1311 c 0,68,69
 1647 1288 1647 1288 1662 1264 c 128,-1,70
 1677 1240 1677 1240 1677 1217 c 256,71,72
 1677 1194 1677 1194 1666 1175.5 c 128,-1,73
 1655 1157 1655 1157 1630 1149 c 0,74,75
 1609 1142 1609 1142 1583.5 1138 c 128,-1,76
 1558 1134 1558 1134 1536 1130 c 0,77,78
 1505 1125 1505 1125 1472 1119 c 128,-1,79
 1439 1113 1439 1113 1407 1102 c 0,80,81
 1362 1087 1362 1087 1312 1068.5 c 128,-1,82
 1262 1050 1262 1050 1211.5 1030 c 128,-1,83
 1161 1010 1161 1010 1113 988.5 c 128,-1,84
 1065 967 1065 967 1026 946 c 0,85,86
 992 928 992 928 989.5 911 c 128,-1,87
 987 894 987 894 1016 883 c 0,88,89
 1033 877 1033 877 1053.5 869.5 c 128,-1,90
 1074 862 1074 862 1093.5 855 c 128,-1,91
 1113 848 1113 848 1130.5 841.5 c 128,-1,92
 1148 835 1148 835 1159 831 c 0,93,94
 1181 823 1181 823 1191.5 805.5 c 128,-1,95
 1202 788 1202 788 1202 772 c 0,96,97
 1202 750 1202 750 1190 733 c 128,-1,98
 1178 716 1178 716 1153 707 c 0,99,100
 1137 701 1137 701 1113.5 690 c 128,-1,101
 1090 679 1090 679 1071 670 c 0,102,103
 1043 656 1043 656 1014.5 639 c 128,-1,104
 986 622 986 622 963 606 c 0,105,106
 931 585 931 585 929.5 565.5 c 128,-1,107
 928 546 928 546 961 532 c 0,108,109
 998 517 998 517 1040.5 505.5 c 128,-1,110
 1083 494 1083 494 1114 485 c 0,111,112
 1132 480 1132 480 1150 472 c 128,-1,113
 1168 464 1168 464 1184.5 455 c 128,-1,114
 1201 446 1201 446 1214 436.5 c 128,-1,115
 1227 427 1227 427 1235 418 c 0,116,117
 1257 395 1257 395 1270.5 368.5 c 128,-1,118
 1284 342 1284 342 1284 305 c 0,119,120
 1284 287 1284 287 1276 252.5 c 128,-1,121
 1268 218 1268 218 1243 176 c 0,122,123
 1220 138 1220 138 1187 101 c 128,-1,124
 1154 64 1154 64 1102 20 c 0,125,126
 1066 -11 1066 -11 1036 -34.5 c 128,-1,127
 1006 -58 1006 -58 979 -77 c 128,-1,128
 952 -96 952 -96 926 -111.5 c 128,-1,129
 900 -127 900 -127 872 -141 c 1,130,-1
 840 -102 l 1,131,132
 903 -59 903 -59 962 -5 c 128,-1,133
 1021 49 1021 49 1063 106 c 0,134,135
 1108 166 1108 166 1125.5 212.5 c 128,-1,136
 1143 259 1143 259 1143 299 c 0,137,138
 1143 372 1143 372 1016 408 c 0,139,140
 988 416 988 416 957.5 429 c 128,-1,141
 927 442 927 442 907 453 c 0,142,143
 878 469 878 469 867 490 c 128,-1,144
 856 511 856 511 856 545 c 0,145,146
 856 574 856 574 874.5 599.5 c 128,-1,147
 893 625 893 625 922 651 c 0,148,149
 940 668 940 668 962.5 686 c 128,-1,150
 985 704 985 704 1010 719 c 0,151,152
 1045 741 1045 741 1046.5 752 c 128,-1,153
 1048 763 1048 763 1022 774 c 0,154,155
 1003 782 1003 782 978 793.5 c 128,-1,156
 953 805 953 805 936 817 c 0,157,158
 893 848 893 848 899 895 c 0,159,160
 902 921 902 921 916 939.5 c 128,-1,161
 930 958 930 958 971 981 c 0,162,163
 1046 1023 1046 1023 1135.5 1070.5 c 128,-1,164
 1225 1118 1225 1118 1325 1163 c 0,165,166
 1373 1185 1373 1185 1406.5 1198.5 c 128,-1,167
 1440 1212 1440 1212 1466 1223 c 0,168,169
 1502 1238 1502 1238 1498.5 1252.5 c 128,-1,170
 1495 1267 1495 1267 1450 1272 c 0,171,172
 1416 1276 1416 1276 1377 1275.5 c 128,-1,173
 1338 1275 1338 1275 1296 1270 c 0,174,175
 1236 1263 1236 1263 1187 1253.5 c 128,-1,176
 1138 1244 1138 1244 1087 1227 c 0,177,178
 1041 1211 1041 1211 981 1186.5 c 128,-1,179
 921 1162 921 1162 864 1130 c 0,180,181
 843 1118 843 1118 816.5 1102.5 c 128,-1,182
 790 1087 790 1087 761.5 1070.5 c 128,-1,183
 733 1054 733 1054 704.5 1037.5 c 128,-1,184
 676 1021 676 1021 651 1006 c 0,185,186
 614 984 614 984 563 968 c 128,-1,187
 512 952 512 952 461 952 c 0,188,189
 430 952 430 952 406 962 c 128,-1,190
 382 972 382 972 365 987 c 0,191,192
 346 1004 346 1004 338 1029.5 c 128,-1,193
 330 1055 330 1055 330 1075 c 0,194,195
 330 1096 330 1096 333 1113 c 128,-1,196
 336 1130 336 1130 342 1146.5 c 128,-1,197
 348 1163 348 1163 357.5 1179 c 128,-1,198
 367 1195 367 1195 381 1214 c 0,199,200
 389 1225 389 1225 403.5 1237.5 c 128,-1,201
 418 1250 418 1250 436 1262.5 c 128,-1,202
 454 1275 454 1275 474 1286.5 c 128,-1,203
 494 1298 494 1298 512 1307 c 1,204,-1
 537 1274 l 1,39,40
EndSplineSet
Validated: 33
EndChar

StartChar: u1B00C
Encoding: 12492 110604 11
Width: 2048
Flags: W
LayerCount: 2
Fore
SplineSet
627 1599 m 1,0,1
 648 1578 648 1578 678 1562 c 128,-1,2
 708 1546 708 1546 739 1538 c 256,3,4
 770 1530 770 1530 806.5 1527 c 128,-1,5
 843 1524 843 1524 881.5 1524.5 c 128,-1,6
 920 1525 920 1525 958 1529.5 c 128,-1,7
 996 1534 996 1534 1030 1540 c 0,8,9
 1051 1544 1051 1544 1067 1547.5 c 128,-1,10
 1083 1551 1083 1551 1096.5 1553.5 c 128,-1,11
 1110 1556 1110 1556 1123.5 1557.5 c 128,-1,12
 1137 1559 1137 1559 1153 1559 c 0,13,14
 1191 1559 1191 1559 1213.5 1546 c 128,-1,15
 1236 1533 1236 1533 1251 1518 c 0,16,17
 1264 1505 1264 1505 1267 1490 c 128,-1,18
 1270 1475 1270 1475 1270 1464 c 0,19,20
 1270 1422 1270 1422 1178 1411 c 0,21,22
 1133 1406 1133 1406 1086 1384.5 c 128,-1,23
 1039 1363 1039 1363 991 1337 c 0,24,25
 942 1311 942 1311 913.5 1273.5 c 128,-1,26
 885 1236 885 1236 885 1198 c 0,27,28
 885 1170 885 1170 888.5 1139.5 c 128,-1,29
 892 1109 892 1109 901 1083 c 256,30,31
 910 1057 910 1057 917.5 1031 c 128,-1,32
 925 1005 925 1005 928 983 c 1,33,34
 965 994 965 994 1004 1006 c 128,-1,35
 1043 1018 1043 1018 1102 1032 c 0,36,37
 1169 1048 1169 1048 1227.5 1054.5 c 128,-1,38
 1286 1061 1286 1061 1352 1061 c 0,39,40
 1479 1061 1479 1061 1568 1026.5 c 128,-1,41
 1657 992 1657 992 1720 936 c 0,42,43
 1762 898 1762 898 1782 847.5 c 128,-1,44
 1802 797 1802 797 1802 743 c 0,45,46
 1802 683 1802 683 1790.5 636 c 128,-1,47
 1779 589 1779 589 1756.5 550.5 c 128,-1,48
 1734 512 1734 512 1699.5 479.5 c 128,-1,49
 1665 447 1665 447 1620 416 c 0,50,51
 1548 366 1548 366 1447.5 324 c 128,-1,52
 1347 282 1347 282 1235 262 c 1,53,54
 1215 240 1215 240 1192 212.5 c 128,-1,55
 1169 185 1169 185 1149 162 c 0,56,57
 1118 127 1118 127 1103 104 c 128,-1,58
 1088 81 1088 81 1090 61 c 0,59,60
 1092 37 1092 37 1114 26.5 c 128,-1,61
 1136 16 1136 16 1161 12 c 0,62,63
 1174 10 1174 10 1193.5 10 c 128,-1,64
 1213 10 1213 10 1232.5 11.5 c 128,-1,65
 1252 13 1252 13 1270 16 c 128,-1,66
 1288 19 1288 19 1300 23 c 0,67,68
 1326 31 1326 31 1354.5 36.5 c 128,-1,69
 1383 42 1383 42 1409 39 c 0,70,71
 1438 36 1438 36 1457.5 22 c 128,-1,72
 1477 8 1477 8 1477 -16 c 0,73,74
 1477 -38 1477 -38 1457 -53 c 128,-1,75
 1437 -68 1437 -68 1411 -76 c 0,76,77
 1377 -86 1377 -86 1332.5 -90 c 128,-1,78
 1288 -94 1288 -94 1237 -94 c 0,79,80
 1189 -94 1189 -94 1146.5 -85.5 c 128,-1,81
 1104 -77 1104 -77 1073 -59 c 0,82,83
 1047 -43 1047 -43 1032.5 -22.5 c 128,-1,84
 1018 -2 1018 -2 1016 16 c 0,85,86
 1013 47 1013 47 1021.5 77.5 c 128,-1,87
 1030 108 1030 108 1059 150 c 0,88,89
 1076 174 1076 174 1094.5 201.5 c 128,-1,90
 1113 229 1113 229 1128 252 c 1,91,92
 1088 249 1088 249 1056 254 c 128,-1,93
 1024 259 1024 259 1001 270 c 0,94,95
 974 283 974 283 959 309.5 c 128,-1,96
 944 336 944 336 944 367 c 0,97,98
 944 396 944 396 961.5 431.5 c 128,-1,99
 979 467 979 467 1024 504 c 0,100,101
 1079 549 1079 549 1127.5 570.5 c 128,-1,102
 1176 592 1176 592 1214 592 c 0,103,104
 1246 592 1246 592 1272 586.5 c 128,-1,105
 1298 581 1298 581 1315 565 c 0,106,107
 1333 548 1333 548 1339 520.5 c 128,-1,108
 1345 493 1345 493 1341 467 c 0,109,110
 1336 433 1336 433 1322 401 c 128,-1,111
 1308 369 1308 369 1286 334 c 1,112,113
 1322 346 1322 346 1363 364 c 128,-1,114
 1404 382 1404 382 1443 404 c 128,-1,115
 1482 426 1482 426 1516.5 450.5 c 128,-1,116
 1551 475 1551 475 1575 500 c 0,117,118
 1627 555 1627 555 1644 616 c 128,-1,119
 1661 677 1661 677 1661 737 c 0,120,121
 1661 809 1661 809 1640.5 857 c 128,-1,122
 1620 905 1620 905 1575 940 c 0,123,124
 1540 967 1540 967 1482 983 c 128,-1,125
 1424 999 1424 999 1352 999 c 0,126,127
 1305 999 1305 999 1249 992 c 128,-1,128
 1193 985 1193 985 1136.5 972 c 128,-1,129
 1080 959 1080 959 1028.5 942 c 128,-1,130
 977 925 977 925 940 905 c 1,131,132
 943 820 943 820 933 746 c 128,-1,133
 923 672 923 672 901 606 c 0,134,135
 890 573 890 573 872.5 538.5 c 128,-1,136
 855 504 855 504 834.5 472.5 c 128,-1,137
 814 441 814 441 792 414 c 128,-1,138
 770 387 770 387 750 369 c 0,139,140
 718 340 718 340 680.5 312 c 128,-1,141
 643 284 643 284 604 262.5 c 128,-1,142
 565 241 565 241 525.5 228 c 128,-1,143
 486 215 486 215 449 215 c 0,144,145
 432 215 432 215 413 217 c 128,-1,146
 394 219 394 219 375 224 c 128,-1,147
 356 229 356 229 339 236.5 c 128,-1,148
 322 244 322 244 309 256 c 0,149,150
 281 281 281 281 268.5 309 c 128,-1,151
 256 337 256 337 256 379 c 0,152,153
 256 418 256 418 271.5 463.5 c 128,-1,154
 287 509 287 509 315.5 556 c 128,-1,155
 344 603 344 603 384.5 649.5 c 128,-1,156
 425 696 425 696 475 737 c 0,157,158
 556 803 556 803 643 857.5 c 128,-1,159
 730 912 730 912 815 946 c 1,160,161
 812 983 812 983 807 1016 c 128,-1,162
 802 1049 802 1049 795 1087 c 0,163,164
 790 1113 790 1113 792 1148.5 c 128,-1,165
 794 1184 794 1184 803 1212 c 0,166,167
 814 1246 814 1246 835 1280.5 c 128,-1,168
 856 1315 856 1315 887 1341 c 0,169,170
 921 1370 921 1370 957 1394 c 128,-1,171
 993 1418 993 1418 1036 1438 c 1,172,173
 933 1425 933 1425 859.5 1434 c 128,-1,174
 786 1443 786 1443 729 1464 c 0,175,176
 684 1481 684 1481 654.5 1504 c 128,-1,177
 625 1527 625 1527 600 1556 c 1,178,-1
 627 1599 l 1,0,1
1174 322 m 1,179,180
 1192 352 1192 352 1205.5 391 c 128,-1,181
 1219 430 1219 430 1223 459 c 0,182,183
 1227 490 1227 490 1220.5 506 c 128,-1,184
 1214 522 1214 522 1192 522 c 0,185,186
 1149 522 1149 522 1102 475 c 0,187,188
 1071 444 1071 444 1059 416 c 128,-1,189
 1047 388 1047 388 1047 367 c 0,190,191
 1047 333 1047 333 1077.5 322.5 c 128,-1,192
 1108 312 1108 312 1174 322 c 1,179,180
821 860 m 1,193,194
 774 839 774 839 725 809.5 c 128,-1,195
 676 780 676 780 631 746.5 c 128,-1,196
 586 713 586 713 548 677.5 c 128,-1,197
 510 642 510 642 485 610 c 0,198,199
 428 538 428 538 402.5 478.5 c 128,-1,200
 377 419 377 419 375 379 c 0,201,202
 374 358 374 358 376.5 340.5 c 128,-1,203
 379 323 379 323 386.5 309.5 c 128,-1,204
 394 296 394 296 408 288.5 c 128,-1,205
 422 281 422 281 444 281 c 0,206,207
 463 281 463 281 489 288.5 c 128,-1,208
 515 296 515 296 543 310 c 128,-1,209
 571 324 571 324 599 344 c 128,-1,210
 627 364 627 364 651 389 c 0,211,212
 699 440 699 440 731 498 c 128,-1,213
 763 556 763 556 786 631 c 256,214,215
 809 706 809 706 816 760.5 c 128,-1,216
 823 815 823 815 821 860 c 1,193,194
EndSplineSet
Validated: 33
EndChar

StartChar: u1B00D
Encoding: 12493 110605 12
Width: 2048
Flags: W
LayerCount: 2
Fore
SplineSet
623 1534 m 1,0,1
 646 1494 646 1494 677.5 1472 c 128,-1,2
 709 1450 709 1450 743 1450 c 0,3,4
 754 1450 754 1450 765 1450.5 c 128,-1,5
 776 1451 776 1451 790.5 1453 c 128,-1,6
 805 1455 805 1455 823.5 1459 c 128,-1,7
 842 1463 842 1463 868 1470 c 0,8,9
 891 1476 891 1476 913.5 1484 c 128,-1,10
 936 1492 936 1492 963.5 1504 c 128,-1,11
 991 1516 991 1516 1027 1534 c 128,-1,12
 1063 1552 1063 1552 1114 1579 c 0,13,14
 1140 1593 1140 1593 1165.5 1608.5 c 128,-1,15
 1191 1624 1191 1624 1214 1636 c 0,16,17
 1240 1650 1240 1650 1267 1651 c 128,-1,18
 1294 1652 1294 1652 1329 1630 c 0,19,20
 1349 1618 1349 1618 1370.5 1598 c 128,-1,21
 1392 1578 1392 1578 1409 1550 c 0,22,23
 1427 1521 1427 1521 1416 1488.5 c 128,-1,24
 1405 1456 1405 1456 1374 1425 c 0,25,26
 1353 1404 1353 1404 1320 1368.5 c 128,-1,27
 1287 1333 1287 1333 1245 1282 c 0,28,29
 1228 1262 1228 1262 1204 1233.5 c 128,-1,30
 1180 1205 1180 1205 1153.5 1173 c 128,-1,31
 1127 1141 1127 1141 1100.5 1109 c 128,-1,32
 1074 1077 1074 1077 1053 1051 c 1,33,34
 1074 1031 1074 1031 1089.5 991.5 c 128,-1,35
 1105 952 1105 952 1108 907 c 0,36,37
 1114 805 1114 805 1096 717 c 1,38,39
 1156 738 1156 738 1214 752 c 128,-1,40
 1272 766 1272 766 1341 766 c 0,41,42
 1401 766 1401 766 1453.5 754.5 c 128,-1,43
 1506 743 1506 743 1544.5 719 c 128,-1,44
 1583 695 1583 695 1605.5 658 c 128,-1,45
 1628 621 1628 621 1628 571 c 0,46,47
 1628 505 1628 505 1587.5 450 c 128,-1,48
 1547 395 1547 395 1466 356 c 0,49,50
 1416 332 1416 332 1376.5 315 c 128,-1,51
 1337 298 1337 298 1292 285 c 0,52,53
 1214 262 1214 262 1157 240.5 c 128,-1,54
 1100 219 1100 219 1069 205 c 0,55,56
 1047 195 1047 195 1027.5 184 c 128,-1,57
 1008 173 1008 173 993 161 c 128,-1,58
 978 149 978 149 969.5 137 c 128,-1,59
 961 125 961 125 961 113 c 0,60,61
 961 90 961 90 981 72.5 c 128,-1,62
 1001 55 1001 55 1049 47 c 0,63,64
 1066 44 1066 44 1080.5 41.5 c 128,-1,65
 1095 39 1095 39 1109.5 37.5 c 128,-1,66
 1124 36 1124 36 1139.5 36 c 128,-1,67
 1155 36 1155 36 1174 39 c 0,68,69
 1191 41 1191 41 1208.5 42 c 128,-1,70
 1226 43 1226 43 1247 45 c 0,71,72
 1276 47 1276 47 1296.5 41.5 c 128,-1,73
 1317 36 1317 36 1335 25 c 0,74,75
 1355 12 1355 12 1364.5 -1 c 128,-1,76
 1374 -14 1374 -14 1374 -31 c 0,77,78
 1374 -62 1374 -62 1321 -76 c 0,79,80
 1296 -82 1296 -82 1262 -85 c 128,-1,81
 1228 -88 1228 -88 1196 -88 c 0,82,83
 1173 -88 1173 -88 1144 -85.5 c 128,-1,84
 1115 -83 1115 -83 1085 -77.5 c 128,-1,85
 1055 -72 1055 -72 1027 -64 c 128,-1,86
 999 -56 999 -56 979 -45 c 0,87,88
 919 -13 919 -13 899 25 c 128,-1,89
 879 63 879 63 879 106 c 0,90,91
 879 139 879 139 907 176.5 c 128,-1,92
 935 214 935 214 1004 246 c 0,93,94
 1022 254 1022 254 1047 266 c 128,-1,95
 1072 278 1072 278 1099 291 c 128,-1,96
 1126 304 1126 304 1152 316 c 128,-1,97
 1178 328 1178 328 1196 336 c 0,98,99
 1218 346 1218 346 1243.5 357 c 128,-1,100
 1269 368 1269 368 1294.5 380 c 128,-1,101
 1320 392 1320 392 1343.5 405.5 c 128,-1,102
 1367 419 1367 419 1386 434 c 0,103,104
 1424 464 1424 464 1452.5 503 c 128,-1,105
 1481 542 1481 542 1481 584 c 0,106,107
 1481 650 1481 650 1446.5 681.5 c 128,-1,108
 1412 713 1412 713 1337 713 c 0,109,110
 1297 713 1297 713 1254 700 c 128,-1,111
 1211 687 1211 687 1174 670 c 0,112,113
 1141 655 1141 655 1110.5 637.5 c 128,-1,114
 1080 620 1080 620 1044 598 c 0,115,116
 1021 584 1021 584 1005.5 586 c 128,-1,117
 990 588 990 588 985 602 c 0,118,119
 979 618 979 618 976 629 c 128,-1,120
 973 640 973 640 971 647 c 0,121,122
 969 660 969 660 969.5 669.5 c 128,-1,123
 970 679 970 679 977 694 c 0,124,125
 983 708 983 708 986.5 724.5 c 128,-1,126
 990 741 990 741 993 760 c 0,127,128
 996 775 996 775 997.5 798.5 c 128,-1,129
 999 822 999 822 999 848 c 0,130,131
 999 883 999 883 995.5 910.5 c 128,-1,132
 992 938 992 938 981 956 c 1,133,134
 946 914 946 914 903.5 871 c 128,-1,135
 861 828 861 828 807 786 c 256,136,137
 753 744 753 744 698.5 719 c 128,-1,138
 644 694 644 694 578 692 c 0,139,140
 549 691 549 691 521 699 c 128,-1,141
 493 707 493 707 471.5 723 c 128,-1,142
 450 739 450 739 437 761.5 c 128,-1,143
 424 784 424 784 424 813 c 0,144,145
 424 875 424 875 458 923 c 128,-1,146
 492 971 492 971 549 1018 c 0,147,148
 578 1042 578 1042 611.5 1060 c 128,-1,149
 645 1078 645 1078 679.5 1090 c 128,-1,150
 714 1102 714 1102 747.5 1109 c 128,-1,151
 781 1116 781 1116 811 1118 c 0,152,153
 865 1121 865 1121 908.5 1118 c 128,-1,154
 952 1115 952 1115 981 1100 c 1,155,156
 1027 1157 1027 1157 1079 1227.5 c 128,-1,157
 1131 1298 1131 1298 1182 1376 c 0,158,159
 1215 1426 1215 1426 1231 1458 c 128,-1,160
 1247 1490 1247 1490 1255 1516 c 0,161,162
 1263 1540 1263 1540 1252.5 1549 c 128,-1,163
 1242 1558 1242 1558 1219 1544 c 0,164,165
 1199 1532 1199 1532 1171.5 1516 c 128,-1,166
 1144 1500 1144 1500 1115.5 1482.5 c 128,-1,167
 1087 1465 1087 1465 1060.5 1449 c 128,-1,168
 1034 1433 1034 1433 1016 1421 c 0,169,170
 982 1399 982 1399 945 1378 c 128,-1,171
 908 1357 908 1357 874 1335 c 0,172,173
 843 1315 843 1315 816.5 1310 c 128,-1,174
 790 1305 790 1305 762 1305 c 0,175,176
 747 1305 747 1305 733.5 1307.5 c 128,-1,177
 720 1310 720 1310 706.5 1317 c 128,-1,178
 693 1324 693 1324 679 1337.5 c 128,-1,179
 665 1351 665 1351 649 1372 c 0,180,181
 640 1384 640 1384 630.5 1399.5 c 128,-1,182
 621 1415 621 1415 612 1433 c 128,-1,183
 603 1451 603 1451 595.5 1469 c 128,-1,184
 588 1487 588 1487 584 1503 c 1,185,-1
 623 1534 l 1,0,1
920 1010 m 1,186,187
 894 1025 894 1025 861 1029 c 128,-1,188
 828 1033 828 1033 786 1030 c 0,189,190
 737 1027 737 1027 686 1010.5 c 128,-1,191
 635 994 635 994 592 965 c 256,192,193
 549 936 549 936 519 900 c 128,-1,194
 489 864 489 864 489 819 c 0,195,196
 489 745 489 745 584 750 c 0,197,198
 627 752 627 752 669.5 777.5 c 128,-1,199
 712 803 712 803 766 848 c 0,200,201
 806 880 806 880 845.5 921 c 128,-1,202
 885 962 885 962 920 1010 c 1,186,187
EndSplineSet
Validated: 33
EndChar

StartChar: u1B00E
Encoding: 12494 110606 13
Width: 2048
Flags: W
LayerCount: 2
Fore
SplineSet
694 1642 m 1,0,1
 731 1625 731 1625 779.5 1607.5 c 128,-1,2
 828 1590 828 1590 891 1581 c 0,3,4
 958 1572 958 1572 1016 1570 c 128,-1,5
 1074 1568 1074 1568 1139 1577 c 0,6,7
 1154 1579 1154 1579 1173 1580.5 c 128,-1,8
 1192 1582 1192 1582 1210 1582 c 128,-1,9
 1228 1582 1228 1582 1242.5 1580.5 c 128,-1,10
 1257 1579 1257 1579 1264 1575 c 0,11,12
 1288 1561 1288 1561 1307.5 1539.5 c 128,-1,13
 1327 1518 1327 1518 1327 1493 c 0,14,15
 1327 1484 1327 1484 1323.5 1474 c 128,-1,16
 1320 1464 1320 1464 1311 1456 c 128,-1,17
 1302 1448 1302 1448 1286.5 1443 c 128,-1,18
 1271 1438 1271 1438 1247 1438 c 0,19,20
 1207 1438 1207 1438 1167 1431 c 128,-1,21
 1127 1424 1127 1424 1073 1411 c 0,22,23
 1022 1399 1022 1399 978.5 1387.5 c 128,-1,24
 935 1376 935 1376 890.5 1362.5 c 128,-1,25
 846 1349 846 1349 795.5 1331.5 c 128,-1,26
 745 1314 745 1314 680 1290 c 1,27,-1
 653 1331 l 1,28,29
 701 1353 701 1353 748.5 1373 c 128,-1,30
 796 1393 796 1393 845.5 1412 c 128,-1,31
 895 1431 895 1431 948.5 1449 c 128,-1,32
 1002 1467 1002 1467 1061 1485 c 1,33,34
 987 1489 987 1489 927.5 1498.5 c 128,-1,35
 868 1508 868 1508 821 1523 c 128,-1,36
 774 1538 774 1538 738 1558 c 128,-1,37
 702 1578 702 1578 674 1604 c 1,38,-1
 694 1642 l 1,0,1
289 1147 m 1,39,40
 276 1131 276 1131 272 1103.5 c 128,-1,41
 268 1076 268 1076 268 1049 c 0,42,43
 268 1020 268 1020 293 1003.5 c 128,-1,44
 318 987 318 987 381 989 c 0,45,46
 427 991 427 991 478 1004 c 128,-1,47
 529 1017 529 1017 592 1040 c 256,48,49
 655 1063 655 1063 718 1088 c 128,-1,50
 781 1113 781 1113 827 1135 c 1,51,52
 847 1192 847 1192 878.5 1228 c 128,-1,53
 910 1264 910 1264 956 1286 c 1,54,-1
 981 1266 l 1,55,56
 966 1244 966 1244 952.5 1217 c 128,-1,57
 939 1190 939 1190 936 1165 c 1,58,59
 956 1177 956 1177 975.5 1187.5 c 128,-1,60
 995 1198 995 1198 1018 1209.5 c 128,-1,61
 1041 1221 1041 1221 1069 1233 c 128,-1,62
 1097 1245 1097 1245 1133 1260 c 0,63,64
 1165 1273 1165 1273 1204.5 1287.5 c 128,-1,65
 1244 1302 1244 1302 1283 1315 c 128,-1,66
 1322 1328 1322 1328 1356 1339 c 128,-1,67
 1390 1350 1390 1350 1411 1356 c 0,68,69
 1460 1370 1460 1370 1521 1382 c 128,-1,70
 1582 1394 1582 1394 1645 1391 c 0,71,72
 1711 1387 1711 1387 1759 1367.5 c 128,-1,73
 1807 1348 1807 1348 1841 1317 c 0,74,75
 1876 1285 1876 1285 1891.5 1251 c 128,-1,76
 1907 1217 1907 1217 1907 1169 c 0,77,78
 1907 1114 1907 1114 1881 1065.5 c 128,-1,79
 1855 1017 1855 1017 1810 985 c 0,80,81
 1775 959 1775 959 1724 940.5 c 128,-1,82
 1673 922 1673 922 1616 922 c 0,83,84
 1579 922 1579 922 1544 925 c 128,-1,85
 1509 928 1509 928 1464 940 c 0,86,87
 1419 953 1419 953 1378.5 976 c 128,-1,88
 1338 999 1338 999 1307 1024 c 1,89,-1
 1325 1069 l 1,90,91
 1368 1041 1368 1041 1419.5 1025.5 c 128,-1,92
 1471 1010 1471 1010 1516 1010 c 0,93,94
 1585 1010 1585 1010 1636 1024 c 128,-1,95
 1687 1038 1687 1038 1722 1073 c 0,96,97
 1739 1090 1739 1090 1751 1112.5 c 128,-1,98
 1763 1135 1763 1135 1763 1169 c 0,99,100
 1763 1195 1763 1195 1758.5 1214.5 c 128,-1,101
 1754 1234 1754 1234 1745.5 1248 c 128,-1,102
 1737 1262 1737 1262 1726.5 1272 c 128,-1,103
 1716 1282 1716 1282 1704 1290 c 0,104,105
 1657 1319 1657 1319 1565 1319 c 0,106,107
 1536 1319 1536 1319 1503.5 1314 c 128,-1,108
 1471 1309 1471 1309 1426.5 1296.5 c 128,-1,109
 1382 1284 1382 1284 1321.5 1262.5 c 128,-1,110
 1261 1241 1261 1241 1176 1208 c 0,111,112
 1093 1176 1093 1176 1035 1147 c 128,-1,113
 977 1118 977 1118 928 1090 c 1,114,115
 923 1055 923 1055 921.5 1022 c 128,-1,116
 920 989 920 989 920 944 c 0,117,118
 920 921 920 921 928 911 c 128,-1,119
 936 901 936 901 956 895 c 0,120,121
 978 889 978 889 996.5 883 c 128,-1,122
 1015 877 1015 877 1047 870 c 0,123,124
 1070 865 1070 865 1093 859.5 c 128,-1,125
 1116 854 1116 854 1135 844 c 0,126,127
 1156 833 1156 833 1165 816.5 c 128,-1,128
 1174 800 1174 800 1174 778 c 0,129,130
 1174 760 1174 760 1160.5 746 c 128,-1,131
 1147 732 1147 732 1128 721 c 0,132,133
 1107 708 1107 708 1077.5 695.5 c 128,-1,134
 1048 683 1048 683 1016 672 c 0,135,136
 989 663 989 663 959.5 648.5 c 128,-1,137
 930 634 930 634 902.5 618.5 c 128,-1,138
 875 603 875 603 851.5 587 c 128,-1,139
 828 571 828 571 813 559 c 0,140,141
 791 542 791 542 782.5 528 c 128,-1,142
 774 514 774 514 774 496 c 0,143,144
 774 474 774 474 792 462 c 128,-1,145
 810 450 810 450 842 438 c 0,146,147
 855 433 855 433 881.5 428 c 128,-1,148
 908 423 908 423 937 418.5 c 128,-1,149
 966 414 966 414 993 411 c 128,-1,150
 1020 408 1020 408 1034 408 c 0,151,152
 1100 407 1100 407 1126 365 c 0,153,154
 1136 349 1136 349 1135 329.5 c 128,-1,155
 1134 310 1134 310 1124 293 c 0,156,157
 1115 276 1115 276 1089 263 c 128,-1,158
 1063 250 1063 250 1020 229 c 0,159,160
 983 211 983 211 943.5 190 c 128,-1,161
 904 169 904 169 879 154 c 0,162,163
 855 140 855 140 841 124.5 c 128,-1,164
 827 109 827 109 827 90 c 0,165,166
 827 73 827 73 838 63.5 c 128,-1,167
 849 54 849 54 877 45 c 0,168,169
 898 38 898 38 930.5 33 c 128,-1,170
 963 28 963 28 999 24.5 c 128,-1,171
 1035 21 1035 21 1071 19.5 c 128,-1,172
 1107 18 1107 18 1135 18 c 0,173,174
 1184 18 1184 18 1233 23.5 c 128,-1,175
 1282 29 1282 29 1313 37 c 0,176,177
 1352 47 1352 47 1378 23 c 0,178,179
 1391 10 1391 10 1392 -6 c 128,-1,180
 1393 -22 1393 -22 1376 -39 c 0,181,182
 1364 -51 1364 -51 1347.5 -58.5 c 128,-1,183
 1331 -66 1331 -66 1307 -74 c 0,184,185
 1295 -78 1295 -78 1272.5 -82 c 128,-1,186
 1250 -86 1250 -86 1223.5 -89 c 128,-1,187
 1197 -92 1197 -92 1170.5 -94 c 128,-1,188
 1144 -96 1144 -96 1124 -96 c 0,189,190
 1091 -96 1091 -96 1056 -93.5 c 128,-1,191
 1021 -91 1021 -91 986.5 -86 c 128,-1,192
 952 -81 952 -81 919.5 -73 c 128,-1,193
 887 -65 887 -65 860 -53 c 0,194,195
 825 -38 825 -38 803.5 -23.5 c 128,-1,196
 782 -9 782 -9 770 6 c 128,-1,197
 758 21 758 21 754 36 c 128,-1,198
 750 51 750 51 750 66 c 0,199,200
 750 100 750 100 765.5 126 c 128,-1,201
 781 152 781 152 815 180 c 0,202,203
 824 188 824 188 840.5 200 c 128,-1,204
 857 212 857 212 876 225.5 c 128,-1,205
 895 239 895 239 914 252 c 128,-1,206
 933 265 933 265 948 274 c 0,207,208
 980 294 980 294 978 304.5 c 128,-1,209
 976 315 976 315 950 319 c 0,210,211
 929 322 929 322 903 326.5 c 128,-1,212
 877 331 877 331 850.5 337.5 c 128,-1,213
 824 344 824 344 799.5 353 c 128,-1,214
 775 362 775 362 756 373 c 0,215,216
 727 390 727 390 712.5 418 c 128,-1,217
 698 446 698 446 698 477 c 0,218,219
 698 497 698 497 710 522.5 c 128,-1,220
 722 548 722 548 748 580 c 0,221,222
 761 596 761 596 786.5 617.5 c 128,-1,223
 812 639 812 639 844 661 c 128,-1,224
 876 683 876 683 912 704 c 128,-1,225
 948 725 948 725 983 741 c 0,226,227
 1000 749 1000 749 1000.5 757 c 128,-1,228
 1001 765 1001 765 985 770 c 0,229,230
 963 777 963 777 934.5 786.5 c 128,-1,231
 906 796 906 796 885 805 c 0,232,233
 860 815 860 815 845 825.5 c 128,-1,234
 830 836 830 836 822 847.5 c 128,-1,235
 814 859 814 859 811.5 871.5 c 128,-1,236
 809 884 809 884 809 899 c 0,237,238
 809 941 809 941 810.5 975 c 128,-1,239
 812 1009 812 1009 817 1047 c 1,240,241
 801 1038 801 1038 775.5 1025 c 128,-1,242
 750 1012 750 1012 721.5 997.5 c 128,-1,243
 693 983 693 983 665 969 c 128,-1,244
 637 955 637 955 616 944 c 0,245,246
 541 906 541 906 478.5 887 c 128,-1,247
 416 868 416 868 356 868 c 0,248,249
 304 868 304 868 268.5 880.5 c 128,-1,250
 233 893 233 893 213 913 c 0,251,252
 174 952 174 952 174 1012 c 0,253,254
 174 1057 174 1057 196 1094 c 128,-1,255
 218 1131 218 1131 258 1169 c 1,256,-1
 289 1147 l 1,39,40
EndSplineSet
Validated: 33
EndChar

StartChar: u1B00F
Encoding: 12495 110607 14
Width: 2048
Flags: W
LayerCount: 2
Fore
SplineSet
1253 1649 m 0,0,1
 1273 1640 1273 1640 1290 1631 c 128,-1,2
 1307 1622 1307 1622 1321 1602 c 0,3,4
 1337 1579 1337 1579 1334.5 1558.5 c 128,-1,5
 1332 1538 1332 1538 1303 1503 c 0,6,7
 1277 1472 1277 1472 1250.5 1438.5 c 128,-1,8
 1224 1405 1224 1405 1202 1370 c 0,9,10
 1182 1338 1182 1338 1221 1333 c 0,11,12
 1253 1328 1253 1328 1298.5 1316 c 128,-1,13
 1344 1304 1344 1304 1382 1284 c 0,14,15
 1416 1266 1416 1266 1442 1239.5 c 128,-1,16
 1468 1213 1468 1213 1485 1181 c 128,-1,17
 1502 1149 1502 1149 1511 1112.5 c 128,-1,18
 1520 1076 1520 1076 1520 1038 c 0,19,20
 1520 959 1520 959 1481.5 895 c 128,-1,21
 1443 831 1443 831 1379 786 c 128,-1,22
 1315 741 1315 741 1232.5 716 c 128,-1,23
 1150 691 1150 691 1063 690 c 1,24,25
 942 603 942 603 819.5 539 c 128,-1,26
 697 475 697 475 588 420 c 1,27,28
 630 429 630 429 673 443 c 128,-1,29
 716 457 716 457 770 479 c 256,30,31
 824 501 824 501 893 525 c 128,-1,32
 962 549 962 549 1037.5 573 c 128,-1,33
 1113 597 1113 597 1191.5 619 c 128,-1,34
 1270 641 1270 641 1343.5 659 c 128,-1,35
 1417 677 1417 677 1481.5 689 c 128,-1,36
 1546 701 1546 701 1593 705 c 0,37,38
 1710 714 1710 714 1776 666 c 0,39,40
 1820 634 1820 634 1834.5 608 c 128,-1,41
 1849 582 1849 582 1849 559 c 0,42,43
 1849 539 1849 539 1836 518 c 128,-1,44
 1823 497 1823 497 1798 483 c 0,45,46
 1775 470 1775 470 1742.5 461 c 128,-1,47
 1710 452 1710 452 1659 442 c 0,48,49
 1570 426 1570 426 1481 407 c 128,-1,50
 1392 388 1392 388 1307 364 c 128,-1,51
 1222 340 1222 340 1142.5 311 c 128,-1,52
 1063 282 1063 282 993 246 c 0,53,54
 951 224 951 224 927.5 199 c 128,-1,55
 904 174 904 174 907 137 c 0,56,57
 909 112 909 112 925 95 c 128,-1,58
 941 78 941 78 967 66 c 0,59,60
 1007 47 1007 47 1056 39.5 c 128,-1,61
 1105 32 1105 32 1171 29 c 0,62,63
 1216 27 1216 27 1247.5 31 c 128,-1,64
 1279 35 1279 35 1296 37 c 0,65,66
 1322 40 1322 40 1337 38 c 128,-1,67
 1352 36 1352 36 1364 27 c 0,68,69
 1386 9 1386 9 1386 -18 c 0,70,71
 1386 -32 1386 -32 1375 -46 c 128,-1,72
 1364 -60 1364 -60 1341 -68 c 0,73,74
 1314 -77 1314 -77 1273 -80.5 c 128,-1,75
 1232 -84 1232 -84 1186 -84 c 0,76,77
 1126 -84 1126 -84 1061 -74.5 c 128,-1,78
 996 -65 996 -65 936 -37 c 256,79,80
 876 -9 876 -9 849.5 30 c 128,-1,81
 823 69 823 69 821 117 c 0,82,83
 820 147 820 147 830 172.5 c 128,-1,84
 840 198 840 198 858 219.5 c 128,-1,85
 876 241 876 241 899.5 259 c 128,-1,86
 923 277 923 277 950 293 c 0,87,88
 1016 332 1016 332 1098.5 363.5 c 128,-1,89
 1181 395 1181 395 1269 422 c 128,-1,90
 1357 449 1357 449 1444.5 473.5 c 128,-1,91
 1532 498 1532 498 1608 522 c 0,92,93
 1632 530 1632 530 1654.5 537.5 c 128,-1,94
 1677 545 1677 545 1688 553 c 0,95,96
 1702 563 1702 563 1706.5 573.5 c 128,-1,97
 1711 584 1711 584 1696 602 c 0,98,99
 1680 621 1680 621 1659 628 c 128,-1,100
 1638 635 1638 635 1599 635 c 0,101,102
 1564 635 1564 635 1507.5 626 c 128,-1,103
 1451 617 1451 617 1381.5 600.5 c 128,-1,104
 1312 584 1312 584 1233.5 561.5 c 128,-1,105
 1155 539 1155 539 1075.5 512.5 c 128,-1,106
 996 486 996 486 920 456.5 c 128,-1,107
 844 427 844 427 780 397 c 0,108,109
 734 376 734 376 688 350 c 128,-1,110
 642 324 642 324 594 295 c 0,111,112
 548 267 548 267 507.5 258.5 c 128,-1,113
 467 250 467 250 424 250 c 0,114,115
 395 250 395 250 363.5 259.5 c 128,-1,116
 332 269 332 269 299.5 286.5 c 128,-1,117
 267 304 267 304 235.5 328.5 c 128,-1,118
 204 353 204 353 176 383 c 1,119,-1
 211 426 l 1,120,121
 230 407 230 407 261.5 398 c 128,-1,122
 293 389 293 389 330 387 c 0,123,124
 376 385 376 385 418 393.5 c 128,-1,125
 460 402 460 402 512 430 c 0,126,127
 638 497 638 497 744.5 561 c 128,-1,128
 851 625 851 625 948 700 c 1,129,130
 911 708 911 708 877.5 720.5 c 128,-1,131
 844 733 844 733 815 750 c 1,132,133
 683 660 683 660 514 655 c 0,134,135
 478 654 478 654 453 662 c 128,-1,136
 428 670 428 670 412 685 c 128,-1,137
 396 700 396 700 388 719.5 c 128,-1,138
 380 739 380 739 379 762 c 0,139,140
 374 828 374 828 439.5 898 c 128,-1,141
 505 968 505 968 641 1034 c 1,142,143
 645 1106 645 1106 673 1166.5 c 128,-1,144
 701 1227 701 1227 741.5 1270.5 c 128,-1,145
 782 1314 782 1314 829 1338 c 128,-1,146
 876 1362 876 1362 918 1362 c 0,147,148
 1002 1362 1002 1362 1041.5 1314 c 128,-1,149
 1081 1266 1081 1266 1069 1149 c 1,150,151
 1160 1143 1160 1143 1206.5 1098.5 c 128,-1,152
 1253 1054 1253 1054 1253 985 c 0,153,154
 1253 937 1253 937 1229.5 879.5 c 128,-1,155
 1206 822 1206 822 1155 768 c 1,156,157
 1203 781 1203 781 1245 807 c 128,-1,158
 1287 833 1287 833 1318.5 868.5 c 128,-1,159
 1350 904 1350 904 1368 947 c 128,-1,160
 1386 990 1386 990 1386 1038 c 0,161,162
 1386 1104 1386 1104 1371 1152 c 128,-1,163
 1356 1200 1356 1200 1313 1229 c 0,164,165
 1272 1257 1272 1257 1241.5 1269 c 128,-1,166
 1211 1281 1211 1281 1180 1290 c 0,167,168
 1142 1301 1142 1301 1134 1323 c 128,-1,169
 1126 1345 1126 1345 1139 1374 c 0,170,171
 1150 1400 1150 1400 1162.5 1440 c 128,-1,172
 1175 1480 1175 1480 1186 1528 c 0,173,174
 1191 1550 1191 1550 1183.5 1561 c 128,-1,175
 1176 1572 1176 1572 1157 1563 c 0,176,177
 1079 1524 1079 1524 993 1488 c 128,-1,178
 907 1452 907 1452 825 1423 c 0,179,180
 756 1398 756 1398 713 1403 c 128,-1,181
 670 1408 670 1408 639 1442 c 0,182,183
 612 1471 612 1471 593 1506.5 c 128,-1,184
 574 1542 574 1542 563 1579 c 1,185,-1
 610 1612 l 1,186,187
 632 1558 632 1558 688 1528 c 0,188,189
 710 1516 710 1516 740.5 1515.5 c 128,-1,190
 771 1515 771 1515 805 1522 c 0,191,192
 842 1529 842 1529 877 1536.5 c 128,-1,193
 912 1544 912 1544 947.5 1554 c 128,-1,194
 983 1564 983 1564 1020 1576.5 c 128,-1,195
 1057 1589 1057 1589 1098 1606 c 0,196,197
 1116 1614 1116 1614 1131 1622 c 128,-1,198
 1146 1630 1146 1630 1167 1642 c 0,199,200
 1189 1655 1189 1655 1209 1657.5 c 128,-1,201
 1229 1660 1229 1660 1253 1649 c 0,0,1
645 971 m 1,202,203
 548 920 548 920 501.5 872.5 c 128,-1,204
 455 825 455 825 455 780 c 0,205,206
 455 745 455 745 470.5 728 c 128,-1,207
 486 711 486 711 528 713 c 0,208,209
 588 716 588 716 645.5 735.5 c 128,-1,210
 703 755 703 755 754 793 c 1,211,212
 709 831 709 831 681.5 877 c 128,-1,213
 654 923 654 923 645 971 c 1,202,203
1055 1075 m 1,214,215
 1033 997 1033 997 988 926.5 c 128,-1,216
 943 856 943 856 877 799 c 1,217,218
 908 783 908 783 943 774 c 128,-1,219
 978 765 978 765 1020 760 c 1,220,221
 1044 785 1044 785 1064 813.5 c 128,-1,222
 1084 842 1084 842 1098.5 870.5 c 128,-1,223
 1113 899 1113 899 1121.5 926.5 c 128,-1,224
 1130 954 1130 954 1130 977 c 0,225,226
 1130 1026 1130 1026 1111 1048 c 128,-1,227
 1092 1070 1092 1070 1055 1075 c 1,214,215
940 1071 m 1,228,229
 886 1063 886 1063 832 1046 c 128,-1,230
 778 1029 778 1029 715 1001 c 1,231,232
 721 955 721 955 745 914.5 c 128,-1,233
 769 874 769 874 809 842 c 1,234,235
 854 885 854 885 887.5 943.5 c 128,-1,236
 921 1002 921 1002 940 1071 c 1,228,229
885 1284 m 0,237,238
 856 1284 856 1284 828 1267 c 128,-1,239
 800 1250 800 1250 776.5 1221 c 128,-1,240
 753 1192 753 1192 736.5 1152 c 128,-1,241
 720 1112 720 1112 715 1067 c 1,242,243
 839 1122 839 1122 952 1141 c 1,244,245
 959 1213 959 1213 946.5 1248.5 c 128,-1,246
 934 1284 934 1284 885 1284 c 0,237,238
EndSplineSet
Validated: 33
EndChar

StartChar: u1B010
Encoding: 12496 110608 15
Width: 2048
Flags: W
LayerCount: 2
Fore
SplineSet
201 1411 m 1,0,1
 209 1391 209 1391 217.5 1375.5 c 128,-1,2
 226 1360 226 1360 242 1343 c 0,3,4
 263 1319 263 1319 287 1313 c 0,5,6
 313 1306 313 1306 350 1317.5 c 128,-1,7
 387 1329 387 1329 432 1358 c 0,8,9
 439 1362 439 1362 456 1374 c 128,-1,10
 473 1386 473 1386 495 1400.5 c 128,-1,11
 517 1415 517 1415 541.5 1430.5 c 128,-1,12
 566 1446 566 1446 588 1458 c 0,13,14
 633 1483 633 1483 664.5 1496 c 128,-1,15
 696 1509 696 1509 727 1509 c 0,16,17
 743 1509 743 1509 757.5 1499 c 128,-1,18
 772 1489 772 1489 784 1475 c 0,19,20
 797 1461 797 1461 804.5 1445.5 c 128,-1,21
 812 1430 812 1430 817 1419 c 0,22,23
 823 1404 823 1404 820 1389 c 128,-1,24
 817 1374 817 1374 809 1359.5 c 128,-1,25
 801 1345 801 1345 789 1330.5 c 128,-1,26
 777 1316 777 1316 766 1303 c 0,27,28
 746 1280 746 1280 713 1240.5 c 128,-1,29
 680 1201 680 1201 643 1156 c 128,-1,30
 606 1111 606 1111 570.5 1067.5 c 128,-1,31
 535 1024 535 1024 512 995 c 0,32,33
 500 980 500 980 500 968.5 c 128,-1,34
 500 957 500 957 512 944 c 0,35,36
 529 927 529 927 551.5 901 c 128,-1,37
 574 875 574 875 590 850 c 1,38,39
 621 890 621 890 659 934 c 128,-1,40
 697 978 697 978 736 1020.5 c 128,-1,41
 775 1063 775 1063 812.5 1102 c 128,-1,42
 850 1141 850 1141 881 1171 c 0,43,44
 1014 1301 1014 1301 1111.5 1385.5 c 128,-1,45
 1209 1470 1209 1470 1272 1507 c 0,46,47
 1344 1549 1344 1549 1399.5 1568 c 128,-1,48
 1455 1587 1455 1587 1507 1587 c 0,49,50
 1545 1587 1545 1587 1578.5 1575 c 128,-1,51
 1612 1563 1612 1563 1637.5 1540.5 c 128,-1,52
 1663 1518 1663 1518 1677.5 1486 c 128,-1,53
 1692 1454 1692 1454 1692 1415 c 0,54,55
 1692 1373 1692 1373 1683 1339.5 c 128,-1,56
 1674 1306 1674 1306 1657 1272 c 0,57,58
 1640 1237 1640 1237 1615.5 1211 c 128,-1,59
 1591 1185 1591 1185 1559 1165 c 0,60,61
 1524 1143 1524 1143 1479.5 1125.5 c 128,-1,62
 1435 1108 1435 1108 1389 1108 c 1,63,64
 1379 1089 1379 1089 1357 1056 c 128,-1,65
 1335 1023 1335 1023 1309 989 c 0,66,67
 1293 969 1293 969 1294.5 960 c 128,-1,68
 1296 951 1296 951 1315 936 c 0,69,70
 1344 913 1344 913 1375.5 883.5 c 128,-1,71
 1407 854 1407 854 1427 825 c 1,72,73
 1447 850 1447 850 1474.5 881 c 128,-1,74
 1502 912 1502 912 1528 938 c 0,75,76
 1566 976 1566 976 1602.5 998 c 128,-1,77
 1639 1020 1639 1020 1677 1032 c 0,78,79
 1702 1040 1702 1040 1729 1041 c 128,-1,80
 1756 1042 1756 1042 1778 1032 c 0,81,82
 1813 1017 1813 1017 1832 989 c 128,-1,83
 1851 961 1851 961 1849 913 c 0,84,85
 1847 876 1847 876 1827 824 c 128,-1,86
 1807 772 1807 772 1765 723 c 0,87,88
 1714 663 1714 663 1660.5 619 c 128,-1,89
 1607 575 1607 575 1569 547 c 1,90,91
 1605 521 1605 521 1648.5 484.5 c 128,-1,92
 1692 448 1692 448 1733.5 409.5 c 128,-1,93
 1775 371 1775 371 1809.5 335 c 128,-1,94
 1844 299 1844 299 1862 274 c 0,95,96
 1892 233 1892 233 1904.5 202.5 c 128,-1,97
 1917 172 1917 172 1917 135 c 0,98,99
 1917 97 1917 97 1901.5 75 c 128,-1,100
 1886 53 1886 53 1866 53 c 0,101,102
 1847 53 1847 53 1829 66 c 128,-1,103
 1811 79 1811 79 1804 94 c 0,104,105
 1793 120 1793 120 1778 154.5 c 128,-1,106
 1763 189 1763 189 1749 215 c 0,107,108
 1734 244 1734 244 1712 278 c 128,-1,109
 1690 312 1690 312 1663.5 347 c 128,-1,110
 1637 382 1637 382 1607.5 414.5 c 128,-1,111
 1578 447 1578 447 1548 473 c 1,112,113
 1549 437 1549 437 1546.5 393.5 c 128,-1,114
 1544 350 1544 350 1538.5 306 c 128,-1,115
 1533 262 1533 262 1524 221.5 c 128,-1,116
 1515 181 1515 181 1503 152 c 0,117,118
 1462 55 1462 55 1405 -1 c 128,-1,119
 1348 -57 1348 -57 1288 -57 c 0,120,121
 1240 -57 1240 -57 1206.5 -38.5 c 128,-1,122
 1173 -20 1173 -20 1139 14 c 0,123,124
 1110 43 1110 43 1092.5 65 c 128,-1,125
 1075 87 1075 87 1055 117 c 1,126,127
 1041 98 1041 98 1029.5 79 c 128,-1,128
 1018 60 1018 60 1004 37 c 0,129,130
 982 2 982 2 963.5 1.5 c 128,-1,131
 945 1 945 1 936 16 c 0,132,133
 927 32 927 32 919 52 c 128,-1,134
 911 72 911 72 909 98 c 0,135,136
 907 121 907 121 914 139 c 128,-1,137
 921 157 921 157 944 174 c 0,138,139
 966 191 966 191 989 221.5 c 128,-1,140
 1012 252 1012 252 1036 287 c 0,141,142
 1061 322 1061 322 1078.5 362.5 c 128,-1,143
 1096 403 1096 403 1106 449 c 0,144,145
 1110 468 1110 468 1098.5 473 c 128,-1,146
 1087 478 1087 478 1073 461 c 0,147,148
 1063 449 1063 449 1056 444.5 c 128,-1,149
 1049 440 1049 440 1042 440 c 0,150,151
 1030 440 1030 440 1022 446 c 128,-1,152
 1014 452 1014 452 1004 467 c 0,153,154
 996 479 996 479 999.5 493 c 128,-1,155
 1003 507 1003 507 1014 528 c 0,156,157
 1031 562 1031 562 1040.5 606.5 c 128,-1,158
 1050 651 1050 651 1059 700 c 0,159,160
 1071 769 1071 769 1014 709 c 0,161,162
 991 684 991 684 963.5 643.5 c 128,-1,163
 936 603 936 603 918 563 c 1,164,-1
 881 590 l 1,165,166
 904 639 904 639 925.5 684 c 128,-1,167
 947 729 947 729 963 754 c 0,168,169
 1003 817 1003 817 1036 838.5 c 128,-1,170
 1069 860 1069 860 1092 860 c 0,171,172
 1118 860 1118 860 1135.5 849 c 128,-1,173
 1153 838 1153 838 1161 809 c 0,174,175
 1169 782 1169 782 1169 758.5 c 128,-1,176
 1169 735 1169 735 1161 700 c 0,177,178
 1153 663 1153 663 1144 640 c 128,-1,179
 1135 617 1135 617 1124 594 c 1,180,181
 1169 599 1169 599 1192 573 c 0,182,183
 1201 562 1201 562 1202.5 538.5 c 128,-1,184
 1204 515 1204 515 1198 489 c 1,185,186
 1224 531 1224 531 1244 563 c 128,-1,187
 1264 595 1264 595 1283.5 623 c 128,-1,188
 1303 651 1303 651 1324 678.5 c 128,-1,189
 1345 706 1345 706 1372 739 c 1,190,191
 1363 764 1363 764 1346 793 c 128,-1,192
 1329 822 1329 822 1309 849 c 128,-1,193
 1289 876 1289 876 1268.5 898.5 c 128,-1,194
 1248 921 1248 921 1231 934 c 0,195,196
 1211 949 1211 949 1218 973 c 128,-1,197
 1225 997 1225 997 1257 1028 c 0,198,199
 1279 1048 1279 1048 1290 1073.5 c 128,-1,200
 1301 1099 1301 1099 1303 1116 c 1,201,202
 1268 1132 1268 1132 1259.5 1148 c 128,-1,203
 1251 1164 1251 1164 1260 1190 c 0,204,205
 1265 1205 1265 1205 1273.5 1219.5 c 128,-1,206
 1282 1234 1282 1234 1292.5 1245.5 c 128,-1,207
 1303 1257 1303 1257 1315 1263.5 c 128,-1,208
 1327 1270 1327 1270 1339 1270 c 0,209,210
 1375 1270 1375 1270 1384 1227 c 0,211,212
 1388 1211 1388 1211 1390 1193 c 128,-1,213
 1392 1175 1392 1175 1389 1161 c 1,214,215
 1431 1172 1431 1172 1462.5 1196 c 128,-1,216
 1494 1220 1494 1220 1520 1257 c 0,217,218
 1538 1283 1538 1283 1547 1323 c 128,-1,219
 1556 1363 1556 1363 1556 1409 c 0,220,221
 1556 1472 1556 1472 1537.5 1497 c 128,-1,222
 1519 1522 1519 1522 1479 1522 c 0,223,224
 1442 1522 1442 1522 1393 1504.5 c 128,-1,225
 1344 1487 1344 1487 1296 1456 c 0,226,227
 1265 1436 1265 1436 1222 1401 c 128,-1,228
 1179 1366 1179 1366 1130.5 1323.5 c 128,-1,229
 1082 1281 1082 1281 1032.5 1234 c 128,-1,230
 983 1187 983 1187 940 1143 c 0,231,232
 909 1111 909 1111 869 1067.5 c 128,-1,233
 829 1024 829 1024 787.5 976 c 128,-1,234
 746 928 746 928 706.5 879 c 128,-1,235
 667 830 667 830 637 788 c 1,236,237
 665 745 665 745 683.5 704.5 c 128,-1,238
 702 664 702 664 721 616 c 0,239,240
 743 561 743 561 753.5 498 c 128,-1,241
 764 435 764 435 764 375 c 0,242,243
 764 331 764 331 754.5 288.5 c 128,-1,244
 745 246 745 246 729.5 208 c 128,-1,245
 714 170 714 170 694.5 138 c 128,-1,246
 675 106 675 106 655 82 c 0,247,248
 628 50 628 50 593.5 25 c 128,-1,249
 559 0 559 0 521.5 -17 c 128,-1,250
 484 -34 484 -34 446.5 -43.5 c 128,-1,251
 409 -53 409 -53 377 -53 c 0,252,253
 326 -53 326 -53 289 -38.5 c 128,-1,254
 252 -24 252 -24 228 2 c 128,-1,255
 204 28 204 28 192 64 c 128,-1,256
 180 100 180 100 180 143 c 0,257,258
 180 180 180 180 189 218.5 c 128,-1,259
 198 257 198 257 212.5 294.5 c 128,-1,260
 227 332 227 332 245.5 368 c 128,-1,261
 264 404 264 404 283 436 c 0,262,263
 308 479 308 479 339 527 c 128,-1,264
 370 575 370 575 402.5 621.5 c 128,-1,265
 435 668 435 668 467 709.5 c 128,-1,266
 499 751 499 751 526 780 c 1,267,268
 521 792 521 792 510 810.5 c 128,-1,269
 499 829 499 829 485.5 850 c 128,-1,270
 472 871 472 871 457.5 892.5 c 128,-1,271
 443 914 443 914 430 932 c 0,272,273
 413 955 413 955 417 981 c 128,-1,274
 421 1007 421 1007 438 1024 c 0,275,276
 472 1058 472 1058 506 1100.5 c 128,-1,277
 540 1143 540 1143 563 1182 c 0,278,279
 575 1201 575 1201 588.5 1225.5 c 128,-1,280
 602 1250 602 1250 614.5 1275 c 128,-1,281
 627 1300 627 1300 637.5 1321.5 c 128,-1,282
 648 1343 648 1343 653 1356 c 0,283,284
 683 1433 683 1433 610 1391 c 0,285,286
 595 1382 595 1382 576 1369 c 128,-1,287
 557 1356 557 1356 537.5 1341.5 c 128,-1,288
 518 1327 518 1327 500 1312.5 c 128,-1,289
 482 1298 482 1298 467 1286 c 0,290,291
 450 1272 450 1272 427 1248.5 c 128,-1,292
 404 1225 404 1225 379 1200 c 0,293,294
 365 1186 365 1186 345 1174.5 c 128,-1,295
 325 1163 325 1163 303 1163 c 0,296,297
 269 1163 269 1163 243 1181.5 c 128,-1,298
 217 1200 217 1200 193 1235 c 0,299,300
 176 1260 176 1260 168 1301 c 128,-1,301
 160 1342 160 1342 158 1382 c 1,302,-1
 201 1411 l 1,0,1
571 711 m 1,303,304
 526 655 526 655 477.5 587 c 128,-1,305
 429 519 429 519 377 422 c 0,306,307
 351 374 351 374 334 336.5 c 128,-1,308
 317 299 317 299 306.5 264.5 c 128,-1,309
 296 230 296 230 291.5 197 c 128,-1,310
 287 164 287 164 287 125 c 0,311,312
 287 74 287 74 307 45 c 128,-1,313
 327 16 327 16 381 16 c 0,314,315
 400 16 400 16 422.5 23.5 c 128,-1,316
 445 31 445 31 468.5 44.5 c 128,-1,317
 492 58 492 58 514.5 77 c 128,-1,318
 537 96 537 96 555 119 c 0,319,320
 575 144 575 144 590 170 c 128,-1,321
 605 196 605 196 615.5 226.5 c 128,-1,322
 626 257 626 257 631.5 294 c 128,-1,323
 637 331 637 331 637 377 c 0,324,325
 637 431 637 431 632.5 481 c 128,-1,326
 628 531 628 531 619 574.5 c 128,-1,327
 610 618 610 618 598 653 c 128,-1,328
 586 688 586 688 571 711 c 1,303,304
1401 686 m 1,329,330
 1366 644 1366 644 1331 592 c 128,-1,331
 1296 540 1296 540 1258 477 c 128,-1,332
 1220 414 1220 414 1178 339 c 128,-1,333
 1136 264 1136 264 1087 176 c 1,334,335
 1092 167 1092 167 1100.5 156.5 c 128,-1,336
 1109 146 1109 146 1119 135.5 c 128,-1,337
 1129 125 1129 125 1140 115 c 128,-1,338
 1151 105 1151 105 1161 98 c 0,339,340
 1183 84 1183 84 1212.5 77 c 128,-1,341
 1242 70 1242 70 1270 70 c 0,342,343
 1293 70 1293 70 1321.5 93.5 c 128,-1,344
 1350 117 1350 117 1378 174 c 0,345,346
 1396 211 1396 211 1406.5 255 c 128,-1,347
 1417 299 1417 299 1423 344 c 128,-1,348
 1429 389 1429 389 1430.5 431.5 c 128,-1,349
 1432 474 1432 474 1432 508 c 0,350,351
 1432 572 1432 572 1422.5 612 c 128,-1,352
 1413 652 1413 652 1401 686 c 1,329,330
1458 776 m 1,353,354
 1483 742 1483 742 1503.5 696 c 128,-1,355
 1524 650 1524 650 1538 608 c 1,356,357
 1566 631 1566 631 1594 659.5 c 128,-1,358
 1622 688 1622 688 1645 719 c 0,359,360
 1675 759 1675 759 1696 801.5 c 128,-1,361
 1717 844 1717 844 1726 901 c 0,362,363
 1731 932 1731 932 1718.5 946.5 c 128,-1,364
 1706 961 1706 961 1681 958 c 0,365,366
 1652 955 1652 955 1620.5 934 c 128,-1,367
 1589 913 1589 913 1554 881 c 0,368,369
 1528 856 1528 856 1502.5 828.5 c 128,-1,370
 1477 801 1477 801 1458 776 c 1,353,354
EndSplineSet
Validated: 33
EndChar

StartChar: u1B011
Encoding: 12497 110609 16
Width: 2048
Flags: W
LayerCount: 2
Fore
SplineSet
1155 1260 m 0,0,1
 1180 1273 1180 1273 1200 1276 c 128,-1,2
 1220 1279 1220 1279 1243 1262 c 0,3,4
 1265 1245 1265 1245 1279.5 1226 c 128,-1,5
 1294 1207 1294 1207 1300 1186 c 0,6,7
 1304 1171 1304 1171 1300 1159 c 128,-1,8
 1296 1147 1296 1147 1287.5 1138 c 128,-1,9
 1279 1129 1279 1129 1267.5 1122 c 128,-1,10
 1256 1115 1256 1115 1245 1110 c 0,11,12
 1233 1104 1233 1104 1219.5 1094 c 128,-1,13
 1206 1084 1206 1084 1194 1073 c 0,14,15
 1164 1046 1164 1046 1121 1007.5 c 128,-1,16
 1078 969 1078 969 1027.5 923.5 c 128,-1,17
 977 878 977 878 922 828 c 128,-1,18
 867 778 867 778 813 728.5 c 128,-1,19
 759 679 759 679 708.5 631 c 128,-1,20
 658 583 658 583 618 543 c 1,21,22
 639 548 639 548 653.5 551 c 128,-1,23
 668 554 668 554 679.5 555 c 128,-1,24
 691 556 691 556 700 556 c 128,-1,25
 709 556 709 556 719 555 c 0,26,27
 752 551 752 551 782.5 531 c 128,-1,28
 813 511 813 511 829 463 c 0,29,30
 834 449 834 449 840.5 426.5 c 128,-1,31
 847 404 847 404 854.5 378 c 128,-1,32
 862 352 862 352 869 323.5 c 128,-1,33
 876 295 876 295 881 270 c 0,34,35
 887 239 887 239 894 202.5 c 128,-1,36
 901 166 901 166 907 123 c 1,37,38
 946 163 946 163 991.5 207 c 128,-1,39
 1037 251 1037 251 1084.5 294 c 128,-1,40
 1132 337 1132 337 1179 376 c 128,-1,41
 1226 415 1226 415 1268 444 c 0,42,43
 1328 486 1328 486 1372.5 506 c 128,-1,44
 1417 526 1417 526 1464 526 c 0,45,46
 1515 526 1515 526 1567.5 498 c 128,-1,47
 1620 470 1620 470 1665 422 c 0,48,49
 1685 401 1685 401 1701 374 c 128,-1,50
 1717 347 1717 347 1727.5 320 c 128,-1,51
 1738 293 1738 293 1743.5 269 c 128,-1,52
 1749 245 1749 245 1749 229 c 0,53,54
 1749 171 1749 171 1715 139.5 c 128,-1,55
 1681 108 1681 108 1618 96 c 0,56,57
 1570 86 1570 86 1520 80.5 c 128,-1,58
 1470 75 1470 75 1425 70 c 1,59,-1
 1401 119 l 1,60,61
 1446 127 1446 127 1485.5 136 c 128,-1,62
 1525 145 1525 145 1548 154 c 0,63,64
 1583 167 1583 167 1595.5 180.5 c 128,-1,65
 1608 194 1608 194 1608 223 c 0,66,67
 1608 260 1608 260 1596 302 c 128,-1,68
 1584 344 1584 344 1556 381 c 0,69,70
 1529 418 1529 418 1503.5 439.5 c 128,-1,71
 1478 461 1478 461 1446 461 c 0,72,73
 1437 461 1437 461 1425 459 c 128,-1,74
 1413 457 1413 457 1397 450 c 128,-1,75
 1381 443 1381 443 1360.5 430.5 c 128,-1,76
 1340 418 1340 418 1313 397 c 0,77,78
 1268 362 1268 362 1222 317.5 c 128,-1,79
 1176 273 1176 273 1132.5 225.5 c 128,-1,80
 1089 178 1089 178 1049.5 130.5 c 128,-1,81
 1010 83 1010 83 977 41 c 0,82,83
 959 18 959 18 948 -35 c 0,84,85
 945 -53 945 -53 928.5 -65.5 c 128,-1,86
 912 -78 912 -78 893 -78 c 0,87,88
 877 -78 877 -78 858 -72.5 c 128,-1,89
 839 -67 839 -67 823 -47 c 0,90,91
 811 -32 811 -32 804.5 -18.5 c 128,-1,92
 798 -5 798 -5 794.5 8.5 c 128,-1,93
 791 22 791 22 790 37 c 128,-1,94
 789 52 789 52 788 70 c 0,95,96
 786 113 786 113 780 168.5 c 128,-1,97
 774 224 774 224 765.5 278 c 128,-1,98
 757 332 757 332 746 377 c 128,-1,99
 735 422 735 422 723 444 c 256,100,101
 711 466 711 466 696 475.5 c 128,-1,102
 681 485 681 485 655 475 c 0,103,104
 635 467 635 467 610 450.5 c 128,-1,105
 585 434 585 434 563 416 c 0,106,107
 554 408 554 408 537.5 393.5 c 128,-1,108
 521 379 521 379 503 362.5 c 128,-1,109
 485 346 485 346 468 328.5 c 128,-1,110
 451 311 451 311 440 297 c 0,111,112
 411 259 411 259 390.5 245 c 128,-1,113
 370 231 370 231 356 231 c 0,114,115
 345 231 345 231 335.5 240.5 c 128,-1,116
 326 250 326 250 318 265 c 128,-1,117
 310 280 310 280 305.5 297.5 c 128,-1,118
 301 315 301 315 301 332 c 0,119,120
 301 345 301 345 303.5 357 c 128,-1,121
 306 369 306 369 313 380.5 c 128,-1,122
 320 392 320 392 332.5 404 c 128,-1,123
 345 416 345 416 365 428 c 0,124,125
 389 443 389 443 422 469.5 c 128,-1,126
 455 496 455 496 489.5 527 c 128,-1,127
 524 558 524 558 557 589 c 128,-1,128
 590 620 590 620 614 643 c 0,129,130
 645 672 645 672 686.5 713 c 128,-1,131
 728 754 728 754 774 800.5 c 128,-1,132
 820 847 820 847 867.5 896.5 c 128,-1,133
 915 946 915 946 959 992.5 c 128,-1,134
 1003 1039 1003 1039 1040.5 1079.5 c 128,-1,135
 1078 1120 1078 1120 1104 1149 c 1,136,137
 1073 1141 1073 1141 1030.5 1126.5 c 128,-1,138
 988 1112 988 1112 943 1095.5 c 128,-1,139
 898 1079 898 1079 854.5 1061.5 c 128,-1,140
 811 1044 811 1044 778 1030 c 0,141,142
 723 1007 723 1007 687 1011 c 128,-1,143
 651 1015 651 1015 625 1042 c 0,144,145
 596 1073 596 1073 581 1112.5 c 128,-1,146
 566 1152 566 1152 555 1198 c 1,147,-1
 594 1227 l 1,148,149
 608 1198 608 1198 631 1175.5 c 128,-1,150
 654 1153 654 1153 670 1145 c 0,151,152
 688 1136 688 1136 722 1134.5 c 128,-1,153
 756 1133 756 1133 791 1141 c 0,154,155
 833 1150 833 1150 882.5 1163.5 c 128,-1,156
 932 1177 932 1177 982 1193 c 128,-1,157
 1032 1209 1032 1209 1077 1226 c 128,-1,158
 1122 1243 1122 1243 1155 1260 c 0,0,1
829 1636 m 1,159,160
 853 1614 853 1614 873.5 1603.5 c 128,-1,161
 894 1593 894 1593 924 1583 c 0,162,163
 939 1578 939 1578 962.5 1576 c 128,-1,164
 986 1574 986 1574 1012 1577 c 0,165,166
 1055 1582 1055 1582 1088 1584.5 c 128,-1,167
 1121 1587 1121 1587 1155 1575 c 0,168,169
 1180 1566 1180 1566 1195 1548 c 128,-1,170
 1210 1530 1210 1530 1210 1511 c 0,171,172
 1210 1488 1210 1488 1194.5 1475 c 128,-1,173
 1179 1462 1179 1462 1159 1458 c 0,174,175
 1133 1453 1133 1453 1113 1451 c 128,-1,176
 1093 1449 1093 1449 1073 1442 c 0,177,178
 1050 1434 1050 1434 1027.5 1426.5 c 128,-1,179
 1005 1419 1005 1419 977 1407 c 0,180,181
 952 1396 952 1396 913 1379.5 c 128,-1,182
 874 1363 874 1363 829 1343 c 1,183,-1
 791 1378 l 1,184,185
 819 1392 819 1392 847 1407 c 128,-1,186
 875 1422 875 1422 899 1436 c 128,-1,187
 923 1450 923 1450 941.5 1462 c 128,-1,188
 960 1474 960 1474 969 1481 c 1,189,190
 941 1483 941 1483 913.5 1493 c 128,-1,191
 886 1503 886 1503 863 1519.5 c 128,-1,192
 840 1536 840 1536 823 1559 c 128,-1,193
 806 1582 806 1582 799 1610 c 1,194,-1
 829 1636 l 1,159,160
EndSplineSet
Validated: 33
EndChar

StartChar: u1B012
Encoding: 12498 110610 17
Width: 2048
Flags: W
LayerCount: 2
Fore
SplineSet
739 1608 m 1,0,1
 750 1571 750 1571 768.5 1545.5 c 128,-1,2
 787 1520 787 1520 813 1497 c 0,3,4
 841 1472 841 1472 874.5 1451.5 c 128,-1,5
 908 1431 908 1431 950 1417 c 0,6,7
 975 1409 975 1409 991.5 1391.5 c 128,-1,8
 1008 1374 1008 1374 1008 1343 c 0,9,10
 1008 1325 1008 1325 992.5 1310.5 c 128,-1,11
 977 1296 977 1296 954 1294 c 0,12,13
 934 1292 934 1292 909.5 1288.5 c 128,-1,14
 885 1285 885 1285 872 1280 c 0,15,16
 842 1269 842 1269 810.5 1247.5 c 128,-1,17
 779 1226 779 1226 756 1206 c 0,18,19
 730 1183 730 1183 727.5 1161.5 c 128,-1,20
 725 1140 725 1140 741 1118 c 0,21,22
 756 1097 756 1097 776.5 1058.5 c 128,-1,23
 797 1020 797 1020 815 983 c 0,24,25
 824 965 824 965 831.5 939.5 c 128,-1,26
 839 914 839 914 846.5 884.5 c 128,-1,27
 854 855 854 855 861 823.5 c 128,-1,28
 868 792 868 792 874 762 c 0,29,30
 885 711 885 711 904 642 c 128,-1,31
 923 573 923 573 947 502 c 128,-1,32
 971 431 971 431 998 366 c 128,-1,33
 1025 301 1025 301 1053 256 c 0,34,35
 1091 194 1091 194 1126.5 161.5 c 128,-1,36
 1162 129 1162 129 1212 119 c 0,37,38
 1254 111 1254 111 1302 107.5 c 128,-1,39
 1350 104 1350 104 1395 109 c 0,40,41
 1443 114 1443 114 1477 120.5 c 128,-1,42
 1511 127 1511 127 1540 139 c 0,43,44
 1569 152 1569 152 1597 150.5 c 128,-1,45
 1625 149 1625 149 1642 141 c 0,46,47
 1672 127 1672 127 1683 113.5 c 128,-1,48
 1694 100 1694 100 1694 82 c 0,49,50
 1694 57 1694 57 1674.5 42 c 128,-1,51
 1655 27 1655 27 1610 16 c 0,52,53
 1579 8 1579 8 1534.5 2.5 c 128,-1,54
 1490 -3 1490 -3 1442 -6 c 0,55,56
 1391 -9 1391 -9 1339 -7.5 c 128,-1,57
 1287 -6 1287 -6 1239 0 c 0,58,59
 1213 3 1213 3 1184.5 8 c 128,-1,60
 1156 13 1156 13 1128 23 c 128,-1,61
 1100 33 1100 33 1073 48.5 c 128,-1,62
 1046 64 1046 64 1022 88 c 0,63,64
 999 111 999 111 977.5 145.5 c 128,-1,65
 956 180 956 180 932 223 c 0,66,67
 914 255 914 255 895.5 301 c 128,-1,68
 877 347 877 347 859 401 c 128,-1,69
 841 455 841 455 823.5 513.5 c 128,-1,70
 806 572 806 572 791.5 629.5 c 128,-1,71
 777 687 777 687 765 739.5 c 128,-1,72
 753 792 753 792 745 834 c 0,73,74
 733 897 733 897 719.5 936 c 128,-1,75
 706 975 706 975 692 999 c 0,76,77
 669 1038 669 1038 657 1066.5 c 128,-1,78
 645 1095 645 1095 645 1130 c 0,79,80
 645 1153 645 1153 654 1179 c 128,-1,81
 663 1205 663 1205 688 1231 c 0,82,83
 710 1254 710 1254 741.5 1279 c 128,-1,84
 773 1304 773 1304 799 1321 c 0,85,86
 820 1335 820 1335 821.5 1344.5 c 128,-1,87
 823 1354 823 1354 807 1366 c 0,88,89
 789 1380 789 1380 774.5 1397 c 128,-1,90
 760 1414 760 1414 743 1440 c 0,91,92
 725 1468 725 1468 710.5 1503 c 128,-1,93
 696 1538 696 1538 690 1575 c 1,94,-1
 739 1608 l 1,0,1
EndSplineSet
Validated: 33
EndChar

StartChar: u1B013
Encoding: 12499 110611 18
Width: 2048
Flags: W
LayerCount: 2
Fore
SplineSet
735 1352 m 1,0,1
 786 1347 786 1347 829 1335 c 128,-1,2
 872 1323 872 1323 897 1303 c 256,3,4
 922 1283 922 1283 922 1246 c 128,-1,5
 922 1209 922 1209 899 1167 c 1,6,7
 918 1174 918 1174 947 1185 c 128,-1,8
 976 1196 976 1196 1006 1207 c 128,-1,9
 1036 1218 1036 1218 1063.5 1227.5 c 128,-1,10
 1091 1237 1091 1237 1106 1241 c 0,11,12
 1146 1252 1146 1252 1194.5 1262 c 128,-1,13
 1243 1272 1243 1272 1288 1274 c 256,14,15
 1333 1276 1333 1276 1373 1269.5 c 128,-1,16
 1413 1263 1413 1263 1436 1249 c 0,17,18
 1501 1211 1501 1211 1501 1151 c 0,19,20
 1501 1114 1501 1114 1479.5 1082.5 c 128,-1,21
 1458 1051 1458 1051 1427 1032 c 0,22,23
 1399 1015 1399 1015 1354 1002.5 c 128,-1,24
 1309 990 1309 990 1260 983 c 0,25,26
 1215 977 1215 977 1167 974 c 128,-1,27
 1119 971 1119 971 1071 971 c 1,28,-1
 1055 1014 l 1,29,30
 1110 1020 1110 1020 1164.5 1030 c 128,-1,31
 1219 1040 1219 1040 1276 1059 c 0,32,33
 1327 1076 1327 1076 1347.5 1101.5 c 128,-1,34
 1368 1127 1368 1127 1368 1153 c 0,35,36
 1368 1184 1368 1184 1351 1201.5 c 128,-1,37
 1334 1219 1334 1219 1292 1219 c 0,38,39
 1260 1219 1260 1219 1211.5 1207 c 128,-1,40
 1163 1195 1163 1195 1118 1176 c 0,41,42
 1087 1162 1087 1162 1053.5 1147 c 128,-1,43
 1020 1132 1020 1132 988.5 1117 c 128,-1,44
 957 1102 957 1102 929 1089.5 c 128,-1,45
 901 1077 901 1077 881 1069 c 1,46,47
 870 1034 870 1034 857.5 988.5 c 128,-1,48
 845 943 845 943 834 891 c 128,-1,49
 823 839 823 839 815.5 782 c 128,-1,50
 808 725 808 725 807 668 c 1,51,52
 837 680 837 680 877 693 c 128,-1,53
 917 706 917 706 958.5 717.5 c 128,-1,54
 1000 729 1000 729 1040 738 c 128,-1,55
 1080 747 1080 747 1110 752 c 1,56,57
 1116 784 1116 784 1092 813 c 1,58,-1
 1139 827 l 1,59,60
 1154 812 1154 812 1163.5 795.5 c 128,-1,61
 1173 779 1173 779 1178 762 c 1,62,63
 1212 765 1212 765 1262 767.5 c 128,-1,64
 1312 770 1312 770 1378 764 c 0,65,66
 1466 756 1466 756 1538 726 c 128,-1,67
 1610 696 1610 696 1661 647 c 0,68,69
 1710 599 1710 599 1736.5 547.5 c 128,-1,70
 1763 496 1763 496 1763 430 c 0,71,72
 1763 335 1763 335 1725 259.5 c 128,-1,73
 1687 184 1687 184 1606 115 c 0,74,75
 1540 58 1540 58 1457.5 22.5 c 128,-1,76
 1375 -13 1375 -13 1284 -41 c 0,77,78
 1249 -52 1249 -52 1218.5 -60.5 c 128,-1,79
 1188 -69 1188 -69 1157.5 -76.5 c 128,-1,80
 1127 -84 1127 -84 1094 -90.5 c 128,-1,81
 1061 -97 1061 -97 1022 -104 c 1,82,-1
 991 -53 l 1,83,84
 1076 -39 1076 -39 1137.5 -21 c 128,-1,85
 1199 -3 1199 -3 1245 16 c 0,86,87
 1288 34 1288 34 1325 51 c 128,-1,88
 1362 68 1362 68 1395 87 c 128,-1,89
 1428 106 1428 106 1458 128 c 128,-1,90
 1488 150 1488 150 1518 178 c 0,91,92
 1550 208 1550 208 1570.5 240 c 128,-1,93
 1591 272 1591 272 1603 304.5 c 128,-1,94
 1615 337 1615 337 1619.5 369 c 128,-1,95
 1624 401 1624 401 1624 432 c 0,96,97
 1624 485 1624 485 1605 530.5 c 128,-1,98
 1586 576 1586 576 1551.5 610.5 c 128,-1,99
 1517 645 1517 645 1469.5 667.5 c 128,-1,100
 1422 690 1422 690 1366 698 c 0,101,102
 1321 705 1321 705 1272 705 c 128,-1,103
 1223 705 1223 705 1180 700 c 1,104,105
 1178 683 1178 683 1172 666 c 128,-1,106
 1166 649 1166 649 1163 641 c 0,107,108
 1168 587 1168 587 1175.5 532 c 128,-1,109
 1183 477 1183 477 1191 430.5 c 128,-1,110
 1199 384 1199 384 1207 350 c 128,-1,111
 1215 316 1215 316 1221 303 c 0,112,113
 1228 288 1228 288 1234.5 281.5 c 128,-1,114
 1241 275 1241 275 1249 270 c 0,115,116
 1268 260 1268 260 1268 242 c 0,117,118
 1268 232 1268 232 1263.5 220 c 128,-1,119
 1259 208 1259 208 1247 197 c 0,120,121
 1228 180 1228 180 1189.5 168 c 128,-1,122
 1151 156 1151 156 1108 156 c 0,123,124
 1060 156 1060 156 1011 164 c 128,-1,125
 962 172 962 172 930 190 c 0,126,127
 913 200 913 200 893.5 211.5 c 128,-1,128
 874 223 874 223 860 236 c 1,129,130
 826 210 826 210 780 174.5 c 128,-1,131
 734 139 734 139 680 111 c 0,132,133
 653 97 653 97 621 83.5 c 128,-1,134
 589 70 589 70 557.5 59.5 c 128,-1,135
 526 49 526 49 496.5 43 c 128,-1,136
 467 37 467 37 444 37 c 0,137,138
 413 37 413 37 395 52.5 c 128,-1,139
 377 68 377 68 371 113 c 0,140,141
 368 134 368 134 359 160 c 128,-1,142
 350 186 350 186 340 211 c 0,143,144
 325 251 325 251 293 283 c 0,145,146
 274 302 274 302 271.5 325.5 c 128,-1,147
 269 349 269 349 289 377 c 0,148,149
 316 414 316 414 360.5 446.5 c 128,-1,150
 405 479 405 479 453 508 c 0,151,152
 471 519 471 519 501.5 535.5 c 128,-1,153
 532 552 532 552 567.5 569.5 c 128,-1,154
 603 587 603 587 640 604.5 c 128,-1,155
 677 622 677 622 709 635 c 1,156,157
 710 682 710 682 716 733.5 c 128,-1,158
 722 785 722 785 731 839 c 128,-1,159
 740 893 740 893 750.5 947.5 c 128,-1,160
 761 1002 761 1002 772 1055 c 1,161,162
 747 1049 747 1049 722 1045.5 c 128,-1,163
 697 1042 697 1042 680 1040 c 0,164,165
 586 1030 586 1030 521 1065 c 128,-1,166
 456 1100 456 1100 424 1188 c 1,167,-1
 457 1217 l 1,168,169
 491 1172 491 1172 534 1151 c 128,-1,170
 577 1130 577 1130 637 1130 c 0,171,172
 671 1130 671 1130 708.5 1133 c 128,-1,173
 746 1136 746 1136 791 1145 c 1,174,175
 796 1168 796 1168 797.5 1185.5 c 128,-1,176
 799 1203 799 1203 801 1217 c 0,177,178
 805 1251 805 1251 777 1275 c 128,-1,179
 749 1299 749 1299 707 1317 c 1,180,-1
 735 1352 l 1,0,1
1149 1620 m 0,181,182
 1156 1620 1156 1620 1166.5 1618 c 128,-1,183
 1177 1616 1177 1616 1187.5 1612 c 128,-1,184
 1198 1608 1198 1608 1207.5 1603.5 c 128,-1,185
 1217 1599 1217 1599 1223 1593 c 0,186,187
 1237 1579 1237 1579 1244 1568 c 128,-1,188
 1251 1557 1251 1557 1251 1540 c 0,189,190
 1251 1510 1251 1510 1221 1497 c 0,191,192
 1198 1488 1198 1488 1176 1485 c 0,193,194
 1141 1480 1141 1480 1069.5 1453 c 128,-1,195
 998 1426 998 1426 907 1382 c 1,196,-1
 874 1417 l 1,197,198
 890 1425 890 1425 908.5 1434.5 c 128,-1,199
 927 1444 927 1444 944 1454 c 128,-1,200
 961 1464 961 1464 976 1474 c 128,-1,201
 991 1484 991 1484 1001 1493 c 1,202,203
 910 1479 910 1479 827 1502 c 128,-1,204
 744 1525 744 1525 684 1585 c 1,205,-1
 709 1618 l 1,206,207
 740 1599 740 1599 780 1589 c 128,-1,208
 820 1579 820 1579 864 1576.5 c 128,-1,209
 908 1574 908 1574 954 1579.5 c 128,-1,210
 1000 1585 1000 1585 1044 1597 c 0,211,212
 1078 1607 1078 1607 1100.5 1613.5 c 128,-1,213
 1123 1620 1123 1620 1149 1620 c 0,181,182
709 549 m 1,214,215
 683 538 683 538 650 521.5 c 128,-1,216
 617 505 617 505 584 486 c 128,-1,217
 551 467 551 467 520 447.5 c 128,-1,218
 489 428 489 428 467 410 c 0,219,220
 438 387 438 387 419.5 371 c 128,-1,221
 401 355 401 355 390.5 341 c 128,-1,222
 380 327 380 327 377 313 c 128,-1,223
 374 299 374 299 377 281 c 0,224,225
 382 252 382 252 391.5 230 c 128,-1,226
 401 208 401 208 412 193 c 0,227,228
 427 171 427 171 438 163.5 c 128,-1,229
 449 156 449 156 471 156 c 0,230,231
 484 156 484 156 503.5 159 c 128,-1,232
 523 162 523 162 545 167.5 c 128,-1,233
 567 173 567 173 590 180.5 c 128,-1,234
 613 188 613 188 633 197 c 0,235,236
 654 206 654 206 677.5 218.5 c 128,-1,237
 701 231 701 231 724 245 c 128,-1,238
 747 259 747 259 768.5 273.5 c 128,-1,239
 790 288 790 288 805 301 c 1,240,241
 785 322 785 322 768.5 352 c 128,-1,242
 752 382 752 382 739 416 c 128,-1,243
 726 450 726 450 718.5 484.5 c 128,-1,244
 711 519 711 519 709 549 c 1,214,215
1124 582 m 1,245,246
 1113 558 1113 558 1095 526 c 128,-1,247
 1077 494 1077 494 1053 457.5 c 128,-1,248
 1029 421 1029 421 999.5 383 c 128,-1,249
 970 345 970 345 936 309 c 1,250,251
 951 297 951 297 972 288 c 128,-1,252
 993 279 993 279 1015.5 273 c 128,-1,253
 1038 267 1038 267 1059.5 264.5 c 128,-1,254
 1081 262 1081 262 1096 264 c 0,255,256
 1113 266 1113 266 1118.5 273.5 c 128,-1,257
 1124 281 1124 281 1126 303 c 0,258,259
 1127 323 1127 323 1127.5 359 c 128,-1,260
 1128 395 1128 395 1127.5 435.5 c 128,-1,261
 1127 476 1127 476 1126 515.5 c 128,-1,262
 1125 555 1125 555 1124 582 c 1,245,246
1108 686 m 1,263,264
 1079 682 1079 682 1041 673 c 128,-1,265
 1003 664 1003 664 962.5 651 c 128,-1,266
 922 638 922 638 881 622 c 128,-1,267
 840 606 840 606 805 588 c 1,268,269
 806 558 806 558 812.5 526.5 c 128,-1,270
 819 495 819 495 829.5 465.5 c 128,-1,271
 840 436 840 436 853.5 412 c 128,-1,272
 867 388 867 388 883 373 c 1,273,274
 914 401 914 401 948 441 c 128,-1,275
 982 481 982 481 1013 524 c 128,-1,276
 1044 567 1044 567 1069 609.5 c 128,-1,277
 1094 652 1094 652 1108 686 c 1,263,264
EndSplineSet
Validated: 33
EndChar

StartChar: u1B014
Encoding: 12500 110612 19
Width: 2048
Flags: W
LayerCount: 2
Fore
SplineSet
512 1608 m 1,0,1
 584 1606 584 1606 643 1588.5 c 128,-1,2
 702 1571 702 1571 733 1540 c 0,3,4
 755 1518 755 1518 758.5 1485.5 c 128,-1,5
 762 1453 762 1453 754 1405 c 0,6,7
 744 1345 744 1345 737 1282.5 c 128,-1,8
 730 1220 730 1220 725 1139 c 1,9,10
 745 1149 745 1149 763.5 1160 c 128,-1,11
 782 1171 782 1171 799 1182 c 0,12,13
 823 1197 823 1197 838 1203.5 c 128,-1,14
 853 1210 853 1210 874 1210 c 0,15,16
 888 1210 888 1210 908 1206.5 c 128,-1,17
 928 1203 928 1203 940 1196 c 0,18,19
 954 1188 954 1188 959.5 1178 c 128,-1,20
 965 1168 965 1168 965 1157 c 0,21,22
 965 1131 965 1131 934 1112 c 0,23,24
 892 1087 892 1087 836.5 1066 c 128,-1,25
 781 1045 781 1045 721 1028 c 1,26,27
 719 982 719 982 718 928.5 c 128,-1,28
 717 875 717 875 717 815 c 1,29,30
 751 849 751 849 787 883 c 128,-1,31
 823 917 823 917 858 952 c 1,32,-1
 881 913 l 1,33,34
 836 864 836 864 795.5 817 c 128,-1,35
 755 770 755 770 717 725 c 1,36,37
 716 663 716 663 715 594 c 128,-1,38
 714 525 714 525 714 452.5 c 128,-1,39
 714 380 714 380 716 305.5 c 128,-1,40
 718 231 718 231 723 158 c 0,41,42
 726 113 726 113 726 80.5 c 128,-1,43
 726 48 726 48 719 20 c 0,44,45
 713 -3 713 -3 696 -29 c 128,-1,46
 679 -55 679 -55 659 -68 c 0,47,48
 647 -76 647 -76 632.5 -77.5 c 128,-1,49
 618 -79 618 -79 608 -74 c 0,50,51
 585 -63 585 -63 555 8 c 0,52,53
 543 35 543 35 529 65 c 128,-1,54
 515 95 515 95 493.5 131.5 c 128,-1,55
 472 168 472 168 438.5 213 c 128,-1,56
 405 258 405 258 354 315 c 1,57,58
 334 288 334 288 317 262 c 128,-1,59
 300 236 300 236 289 217 c 0,60,61
 266 182 266 182 238 182 c 0,62,63
 221 182 221 182 206.5 194.5 c 128,-1,64
 192 207 192 207 184 219 c 0,65,66
 175 233 175 233 167.5 254 c 128,-1,67
 160 275 160 275 160 313 c 0,68,69
 160 350 160 350 173.5 393.5 c 128,-1,70
 187 437 187 437 207 471 c 1,71,-1
 248 459 l 1,72,73
 242 445 242 445 240 427.5 c 128,-1,74
 238 410 238 410 240 399 c 0,75,76
 245 371 245 371 260 375 c 128,-1,77
 275 379 275 379 307 410 c 0,78,79
 325 427 325 427 355.5 457 c 128,-1,80
 386 487 386 487 427.5 527.5 c 128,-1,81
 469 568 469 568 519 617.5 c 128,-1,82
 569 667 569 667 625 723 c 1,83,84
 625 752 625 752 626 781.5 c 128,-1,85
 627 811 627 811 627 840 c 0,86,87
 627 885 627 885 628 925.5 c 128,-1,88
 629 966 629 966 631 1008 c 1,89,90
 586 998 586 998 548 993.5 c 128,-1,91
 510 989 510 989 481 989 c 0,92,93
 391 989 391 989 333.5 1019.5 c 128,-1,94
 276 1050 276 1050 238 1118 c 1,95,-1
 262 1149 l 1,96,97
 294 1117 294 1117 337.5 1099 c 128,-1,98
 381 1081 381 1081 455 1081 c 0,99,100
 492 1081 492 1081 536.5 1086.5 c 128,-1,101
 581 1092 581 1092 635 1108 c 1,102,103
 637 1202 637 1202 638 1277.5 c 128,-1,104
 639 1353 639 1353 635 1419 c 0,105,106
 633 1450 633 1450 621.5 1473 c 128,-1,107
 610 1496 610 1496 591.5 1513 c 128,-1,108
 573 1530 573 1530 548.5 1541.5 c 128,-1,109
 524 1553 524 1553 496 1561 c 1,110,-1
 512 1608 l 1,0,1
621 618 m 1,111,112
 564 557 564 557 519.5 509 c 128,-1,113
 475 461 475 461 449 432 c 0,114,115
 435 417 435 417 419.5 398 c 128,-1,116
 404 379 404 379 387 356 c 1,117,118
 426 317 426 317 456 286.5 c 128,-1,119
 486 256 486 256 511.5 230 c 128,-1,120
 537 204 537 204 561 179.5 c 128,-1,121
 585 155 585 155 612 127 c 1,122,123
 614 230 614 230 615.5 354 c 128,-1,124
 617 478 617 478 621 618 c 1,111,112
1145 1477 m 1,125,126
 1165 1500 1165 1500 1183 1514.5 c 128,-1,127
 1201 1529 1201 1529 1221 1544 c 0,128,129
 1253 1569 1253 1569 1289.5 1581 c 128,-1,130
 1326 1593 1326 1593 1354 1593 c 0,131,132
 1391 1593 1391 1593 1413 1583.5 c 128,-1,133
 1435 1574 1435 1574 1452 1546 c 0,134,135
 1461 1531 1461 1531 1460 1508 c 128,-1,136
 1459 1485 1459 1485 1450 1460 c 0,137,138
 1438 1428 1438 1428 1410 1380.5 c 128,-1,139
 1382 1333 1382 1333 1343 1282 c 0,140,141
 1322 1255 1322 1255 1299.5 1228 c 128,-1,142
 1277 1201 1277 1201 1255.5 1176 c 128,-1,143
 1234 1151 1234 1151 1215 1130.5 c 128,-1,144
 1196 1110 1196 1110 1182 1096 c 0,145,146
 1164 1078 1164 1078 1190 1081 c 0,147,148
 1232 1086 1232 1086 1275 1092.5 c 128,-1,149
 1318 1099 1318 1099 1346 1104 c 0,150,151
 1403 1114 1403 1114 1463 1125.5 c 128,-1,152
 1523 1137 1523 1137 1583 1153 c 0,153,154
 1617 1162 1617 1162 1645.5 1165 c 128,-1,155
 1674 1168 1674 1168 1706 1165 c 0,156,157
 1726 1163 1726 1163 1748 1159 c 128,-1,158
 1770 1155 1770 1155 1786 1149 c 0,159,160
 1805 1142 1805 1142 1820 1134 c 128,-1,161
 1835 1126 1835 1126 1847 1118 c 0,162,163
 1860 1110 1860 1110 1868 1097.5 c 128,-1,164
 1876 1085 1876 1085 1876 1069 c 0,165,166
 1876 1047 1876 1047 1856 1035.5 c 128,-1,167
 1836 1024 1836 1024 1808 1024 c 0,168,169
 1790 1024 1790 1024 1769 1026.5 c 128,-1,170
 1748 1029 1748 1029 1726 1032 c 0,171,172
 1683 1038 1683 1038 1606.5 1038.5 c 128,-1,173
 1530 1039 1530 1039 1436 1036 c 0,174,175
 1388 1034 1388 1034 1341 1029 c 128,-1,176
 1294 1024 1294 1024 1250.5 1017 c 128,-1,177
 1207 1010 1207 1010 1168.5 1003 c 128,-1,178
 1130 996 1130 996 1100 991 c 0,179,180
 1072 986 1072 986 1061.5 991 c 128,-1,181
 1051 996 1051 996 1049 1004 c 256,182,183
 1047 1012 1047 1012 1047.5 1022.5 c 128,-1,184
 1048 1033 1048 1033 1053 1042 c 0,185,186
 1058 1053 1058 1053 1063 1060 c 128,-1,187
 1068 1067 1068 1067 1077 1075 c 0,188,189
 1085 1082 1085 1082 1095 1089.5 c 128,-1,190
 1105 1097 1105 1097 1116 1108 c 0,191,192
 1139 1131 1139 1131 1159 1156 c 128,-1,193
 1179 1181 1179 1181 1196 1204 c 0,194,195
 1214 1229 1214 1229 1233 1261 c 128,-1,196
 1252 1293 1252 1293 1269 1325.5 c 128,-1,197
 1286 1358 1286 1358 1299.5 1386.5 c 128,-1,198
 1313 1415 1313 1415 1319 1432 c 0,199,200
 1333 1469 1333 1469 1316 1482 c 128,-1,201
 1299 1495 1299 1495 1262 1487 c 0,202,203
 1239 1482 1239 1482 1215 1470.5 c 128,-1,204
 1191 1459 1191 1459 1171 1442 c 1,205,-1
 1145 1477 l 1,125,126
1348 760 m 1,206,207
 1335 747 1335 747 1324 730 c 128,-1,208
 1313 713 1313 713 1313 694 c 0,209,210
 1313 674 1313 674 1318.5 663 c 128,-1,211
 1324 652 1324 652 1339 647 c 256,212,213
 1354 642 1354 642 1371 637 c 128,-1,214
 1388 632 1388 632 1403.5 628 c 128,-1,215
 1419 624 1419 624 1432 620 c 128,-1,216
 1445 616 1445 616 1454 612 c 0,217,218
 1479 601 1479 601 1492 582 c 128,-1,219
 1505 563 1505 563 1505 545 c 0,220,221
 1505 525 1505 525 1494 508.5 c 128,-1,222
 1483 492 1483 492 1452 473 c 0,223,224
 1431 460 1431 460 1405 441.5 c 128,-1,225
 1379 423 1379 423 1353 402.5 c 128,-1,226
 1327 382 1327 382 1303 361.5 c 128,-1,227
 1279 341 1279 341 1262 324 c 0,228,229
 1242 304 1242 304 1243 295 c 128,-1,230
 1244 286 1244 286 1266 276 c 0,231,232
 1289 266 1289 266 1318.5 253 c 128,-1,233
 1348 240 1348 240 1378 226.5 c 128,-1,234
 1408 213 1408 213 1435 200.5 c 128,-1,235
 1462 188 1462 188 1479 180 c 0,236,237
 1533 154 1533 154 1572 131 c 128,-1,238
 1611 108 1611 108 1634 86 c 0,239,240
 1683 40 1683 40 1692 6 c 0,241,242
 1702 -28 1702 -28 1695 -53 c 128,-1,243
 1688 -78 1688 -78 1669 -86 c 0,244,245
 1655 -92 1655 -92 1637 -89.5 c 128,-1,246
 1619 -87 1619 -87 1604 -72 c 0,247,248
 1590 -58 1590 -58 1569 -38.5 c 128,-1,249
 1548 -19 1548 -19 1522 6 c 0,250,251
 1498 28 1498 28 1465 53.5 c 128,-1,252
 1432 79 1432 79 1394 105 c 128,-1,253
 1356 131 1356 131 1315.5 156 c 128,-1,254
 1275 181 1275 181 1237 201 c 0,255,256
 1208 216 1208 216 1192 230.5 c 128,-1,257
 1176 245 1176 245 1176 266 c 0,258,259
 1176 289 1176 289 1185.5 305.5 c 128,-1,260
 1195 322 1195 322 1212 344 c 0,261,262
 1224 359 1224 359 1242 379 c 128,-1,263
 1260 399 1260 399 1279.5 419 c 128,-1,264
 1299 439 1299 439 1316.5 455.5 c 128,-1,265
 1334 472 1334 472 1346 481 c 0,266,267
 1368 498 1368 498 1367.5 507.5 c 128,-1,268
 1367 517 1367 517 1350 522 c 0,269,270
 1330 528 1330 528 1307 539.5 c 128,-1,271
 1284 551 1284 551 1264 565 c 0,272,273
 1248 576 1248 576 1238.5 598 c 128,-1,274
 1229 620 1229 620 1229 649 c 0,275,276
 1229 667 1229 667 1236 687.5 c 128,-1,277
 1243 708 1243 708 1255 727 c 128,-1,278
 1267 746 1267 746 1283 761.5 c 128,-1,279
 1299 777 1299 777 1317 786 c 1,280,-1
 1348 760 l 1,206,207
EndSplineSet
Validated: 33
EndChar

StartChar: u1B015
Encoding: 12501 110613 20
Width: 2048
Flags: W
LayerCount: 2
Fore
SplineSet
563 1618 m 1,0,1
 638 1616 638 1616 697.5 1600 c 128,-1,2
 757 1584 757 1584 784 1548 c 0,3,4
 803 1524 803 1524 804 1494.5 c 128,-1,5
 805 1465 805 1465 797 1417 c 0,6,7
 788 1363 788 1363 781.5 1296.5 c 128,-1,8
 775 1230 775 1230 770 1149 c 1,9,10
 803 1160 803 1160 835 1174.5 c 128,-1,11
 867 1189 867 1189 899 1208 c 0,12,13
 930 1227 930 1227 948 1232 c 128,-1,14
 966 1237 966 1237 985 1235 c 0,15,16
 1011 1233 1011 1233 1020.5 1219 c 128,-1,17
 1030 1205 1030 1205 1030 1190 c 0,18,19
 1030 1171 1030 1171 1019 1154 c 128,-1,20
 1008 1137 1008 1137 977 1120 c 0,21,22
 934 1097 934 1097 879 1075.5 c 128,-1,23
 824 1054 824 1054 764 1038 c 1,24,25
 762 980 762 980 761 913.5 c 128,-1,26
 760 847 760 847 760 772 c 0,27,28
 760 705 760 705 758.5 628 c 128,-1,29
 757 551 757 551 757 468.5 c 128,-1,30
 757 386 757 386 758.5 300 c 128,-1,31
 760 214 760 214 766 129 c 0,32,33
 769 86 769 86 769 53 c 128,-1,34
 769 20 769 20 762 -8 c 0,35,36
 757 -32 757 -32 739.5 -58 c 128,-1,37
 722 -84 722 -84 702 -96 c 0,38,39
 676 -113 676 -113 651 -102 c 0,40,41
 633 -94 633 -94 626 -75.5 c 128,-1,42
 619 -57 619 -57 616 -37 c 0,43,44
 611 -2 611 -2 599.5 29 c 128,-1,45
 588 60 588 60 564.5 94 c 128,-1,46
 541 128 541 128 504 167.5 c 128,-1,47
 467 207 467 207 410 260 c 1,48,-1
 350 162 l 2,49,50
 328 127 328 127 314.5 115 c 128,-1,51
 301 103 301 103 287 106 c 0,52,53
 274 109 274 109 262 125.5 c 128,-1,54
 250 142 250 142 250 174 c 0,55,56
 250 203 250 203 260 224 c 128,-1,57
 270 245 270 245 281 262 c 0,58,59
 289 274 289 274 298.5 289.5 c 128,-1,60
 308 305 308 305 330 336 c 0,61,62
 421 466 421 466 504.5 605.5 c 128,-1,63
 588 745 588 745 672 907 c 1,64,65
 674 936 674 936 674 964.5 c 128,-1,66
 674 993 674 993 676 1022 c 1,67,68
 644 1017 644 1017 611 1014.5 c 128,-1,69
 578 1012 578 1012 547 1014 c 0,70,71
 447 1020 447 1020 380.5 1065.5 c 128,-1,72
 314 1111 314 1111 266 1204 c 1,73,-1
 309 1243 l 1,74,75
 386 1116 386 1116 549 1116 c 0,76,77
 622 1116 622 1116 678 1126 c 1,78,79
 680 1220 680 1220 680.5 1296 c 128,-1,80
 681 1372 681 1372 678 1432 c 0,81,82
 675 1493 675 1493 639.5 1525 c 128,-1,83
 604 1557 604 1557 541 1567 c 1,84,-1
 563 1618 l 1,0,1
668 733 m 1,85,86
 614 625 614 625 559.5 524 c 128,-1,87
 505 423 505 423 440 313 c 1,88,-1
 653 135 l 1,89,90
 654 186 654 186 656 254.5 c 128,-1,91
 658 323 658 323 660 401 c 128,-1,92
 662 479 662 479 664 564 c 128,-1,93
 666 649 666 649 668 733 c 1,85,86
1268 446 m 1,94,95
 1260 426 1260 426 1261 400.5 c 128,-1,96
 1262 375 1262 375 1272 340 c 0,97,98
 1278 317 1278 317 1304.5 295.5 c 128,-1,99
 1331 274 1331 274 1362 262 c 0,100,101
 1419 240 1419 240 1498.5 232.5 c 128,-1,102
 1578 225 1578 225 1663 225 c 0,103,104
 1679 225 1679 225 1695 220.5 c 128,-1,105
 1711 216 1711 216 1723.5 207.5 c 128,-1,106
 1736 199 1736 199 1743.5 186.5 c 128,-1,107
 1751 174 1751 174 1751 158 c 0,108,109
 1751 130 1751 130 1726.5 116 c 128,-1,110
 1702 102 1702 102 1665 100 c 0,111,112
 1617 98 1617 98 1566.5 101 c 128,-1,113
 1516 104 1516 104 1468.5 112.5 c 128,-1,114
 1421 121 1421 121 1379.5 134.5 c 128,-1,115
 1338 148 1338 148 1307 166 c 0,116,117
 1262 192 1262 192 1233.5 232 c 128,-1,118
 1205 272 1205 272 1198 309 c 0,119,120
 1190 354 1190 354 1192.5 390.5 c 128,-1,121
 1195 427 1195 427 1210 465 c 1,122,-1
 1268 446 l 1,94,95
1286 1235 m 1,123,124
 1332 1261 1332 1261 1385 1271.5 c 128,-1,125
 1438 1282 1438 1282 1492 1279.5 c 128,-1,126
 1546 1277 1546 1277 1598.5 1262 c 128,-1,127
 1651 1247 1651 1247 1698 1221 c 0,128,129
 1723 1207 1723 1207 1747 1184 c 128,-1,130
 1771 1161 1771 1161 1784 1141 c 0,131,132
 1795 1124 1795 1124 1799 1103 c 128,-1,133
 1803 1082 1803 1082 1800 1067 c 256,134,135
 1797 1052 1797 1052 1786.5 1039.5 c 128,-1,136
 1776 1027 1776 1027 1763 1022 c 0,137,138
 1749 1017 1749 1017 1731.5 1023.5 c 128,-1,139
 1714 1030 1714 1030 1702 1038 c 0,140,141
 1697 1041 1697 1041 1687.5 1043.5 c 128,-1,142
 1678 1046 1678 1046 1667 1047 c 128,-1,143
 1656 1048 1656 1048 1644 1047.5 c 128,-1,144
 1632 1047 1632 1047 1622 1044 c 0,145,146
 1597 1037 1597 1037 1555 1023 c 128,-1,147
 1513 1009 1513 1009 1468 983 c 1,148,-1
 1430 1020 l 1,149,150
 1471 1048 1471 1048 1511.5 1077.5 c 128,-1,151
 1552 1107 1552 1107 1575 1128 c 0,152,153
 1601 1151 1601 1151 1548 1178 c 0,154,155
 1506 1198 1506 1198 1440 1203 c 128,-1,156
 1374 1208 1374 1208 1305 1190 c 1,157,-1
 1286 1235 l 1,123,124
EndSplineSet
Validated: 33
EndChar

StartChar: u1B016
Encoding: 12502 110614 21
Width: 2048
Flags: W
LayerCount: 2
Fore
SplineSet
297 1573 m 1,0,1
 306 1542 306 1542 321 1516.5 c 128,-1,2
 336 1491 336 1491 354 1473 c 256,3,4
 372 1455 372 1455 401.5 1445 c 128,-1,5
 431 1435 431 1435 487 1446 c 0,6,7
 554 1459 554 1459 655 1542 c 0,8,9
 686 1567 686 1567 709.5 1573 c 128,-1,10
 733 1579 733 1579 752 1573 c 0,11,12
 771 1566 771 1566 785 1559 c 128,-1,13
 799 1552 799 1552 809 1544 c 0,14,15
 829 1528 829 1528 836 1510 c 128,-1,16
 843 1492 843 1492 838 1477 c 0,17,18
 835 1468 835 1468 830 1460 c 128,-1,19
 825 1452 825 1452 816 1443.5 c 128,-1,20
 807 1435 807 1435 793.5 1425.5 c 128,-1,21
 780 1416 780 1416 760 1403 c 0,22,23
 737 1388 737 1388 708.5 1354 c 128,-1,24
 680 1320 680 1320 651 1272 c 0,25,26
 639 1252 639 1252 634.5 1233 c 128,-1,27
 630 1214 630 1214 641 1198 c 0,28,29
 650 1186 650 1186 662 1169 c 128,-1,30
 674 1152 674 1152 685.5 1133.5 c 128,-1,31
 697 1115 697 1115 707 1096 c 128,-1,32
 717 1077 717 1077 723 1061 c 0,33,34
 736 1026 736 1026 738.5 996 c 128,-1,35
 741 966 741 966 741 938 c 0,36,37
 741 922 741 922 734.5 907 c 128,-1,38
 728 892 728 892 717.5 881 c 128,-1,39
 707 870 707 870 693 863 c 128,-1,40
 679 856 679 856 664 856 c 0,41,42
 631 856 631 856 596 891 c 0,43,44
 587 900 587 900 575 910.5 c 128,-1,45
 563 921 563 921 550.5 930.5 c 128,-1,46
 538 940 538 940 526 947.5 c 128,-1,47
 514 955 514 955 504 958 c 0,48,49
 484 965 484 965 469.5 953.5 c 128,-1,50
 455 942 455 942 449 918 c 0,51,52
 433 855 433 855 422.5 736 c 128,-1,53
 412 617 412 617 408 430 c 0,54,55
 406 374 406 374 408 313.5 c 128,-1,56
 410 253 410 253 413.5 197 c 128,-1,57
 417 141 417 141 422.5 94 c 128,-1,58
 428 47 428 47 434 18 c 0,59,60
 439 -5 439 -5 434 -28.5 c 128,-1,61
 429 -52 429 -52 418 -66 c 0,62,63
 407 -81 407 -81 394 -89.5 c 128,-1,64
 381 -98 381 -98 369 -96 c 0,65,66
 344 -92 344 -92 331.5 -70 c 128,-1,67
 319 -48 319 -48 311 -10 c 0,68,69
 306 16 306 16 301.5 58 c 128,-1,70
 297 100 297 100 294.5 150 c 128,-1,71
 292 200 292 200 291.5 254.5 c 128,-1,72
 291 309 291 309 293 360 c 0,73,74
 297 472 297 472 306 566 c 128,-1,75
 315 660 315 660 326 748 c 0,76,77
 339 848 339 848 356 908.5 c 128,-1,78
 373 969 373 969 401 1004 c 0,79,80
 421 1029 421 1029 439 1034.5 c 128,-1,81
 457 1040 457 1040 477 1040 c 0,82,83
 496 1040 496 1040 507 1033.5 c 128,-1,84
 518 1027 518 1027 532 1016 c 0,85,86
 548 1004 548 1004 561 997.5 c 128,-1,87
 574 991 574 991 590 985 c 0,88,89
 605 979 605 979 613 992.5 c 128,-1,90
 621 1006 621 1006 621 1026 c 0,91,92
 621 1055 621 1055 612.5 1088.5 c 128,-1,93
 604 1122 604 1122 590 1151 c 0,94,95
 575 1182 575 1182 570 1207.5 c 128,-1,96
 565 1233 565 1233 567 1253 c 0,97,98
 571 1291 571 1291 591 1339.5 c 128,-1,99
 611 1388 611 1388 649 1448 c 1,100,101
 602 1413 602 1413 556 1382 c 128,-1,102
 510 1351 510 1351 481 1337 c 256,103,104
 452 1323 452 1323 429.5 1320 c 128,-1,105
 407 1317 407 1317 391 1319 c 0,106,107
 372 1320 372 1320 353.5 1330 c 128,-1,108
 335 1340 335 1340 319 1355 c 128,-1,109
 303 1370 303 1370 290.5 1389 c 128,-1,110
 278 1408 278 1408 272 1427 c 0,111,112
 260 1466 260 1466 257.5 1492.5 c 128,-1,113
 255 1519 255 1519 254 1550 c 1,114,-1
 297 1573 l 1,0,1
1024 1569 m 1,115,116
 1036 1555 1036 1555 1059 1548.5 c 128,-1,117
 1082 1542 1082 1542 1108 1540 c 256,118,119
 1134 1538 1134 1538 1156 1538 c 128,-1,120
 1178 1538 1178 1538 1201 1540 c 128,-1,121
 1224 1542 1224 1542 1250 1546 c 128,-1,122
 1276 1550 1276 1550 1309 1556 c 0,123,124
 1351 1564 1351 1564 1385 1574.5 c 128,-1,125
 1419 1585 1419 1585 1450 1599 c 0,126,127
 1476 1612 1476 1612 1506.5 1608 c 128,-1,128
 1537 1604 1537 1604 1579 1579 c 0,129,130
 1595 1570 1595 1570 1600.5 1558 c 128,-1,131
 1606 1546 1606 1546 1606 1532 c 256,132,133
 1606 1518 1606 1518 1596.5 1506.5 c 128,-1,134
 1587 1495 1587 1495 1561 1481 c 0,135,136
 1541 1470 1541 1470 1526.5 1462 c 128,-1,137
 1512 1454 1512 1454 1499 1446.5 c 128,-1,138
 1486 1439 1486 1439 1473.5 1431.5 c 128,-1,139
 1461 1424 1461 1424 1446 1415 c 0,140,141
 1418 1398 1418 1398 1393.5 1382.5 c 128,-1,142
 1369 1367 1369 1367 1341 1348 c 128,-1,143
 1313 1329 1313 1329 1278.5 1304.5 c 128,-1,144
 1244 1280 1244 1280 1196 1245 c 1,145,146
 1253 1265 1253 1265 1311 1277.5 c 128,-1,147
 1369 1290 1369 1290 1415 1290 c 0,148,149
 1482 1290 1482 1290 1501 1247 c 0,150,151
 1517 1211 1517 1211 1491 1176 c 0,152,153
 1477 1157 1477 1157 1453.5 1141 c 128,-1,154
 1430 1125 1430 1125 1407 1110 c 0,155,156
 1361 1079 1361 1079 1316.5 1050.5 c 128,-1,157
 1272 1022 1272 1022 1221 991 c 1,158,159
 1296 1025 1296 1025 1363.5 1042.5 c 128,-1,160
 1431 1060 1431 1060 1491 1057 c 0,161,162
 1545 1054 1545 1054 1582.5 1043 c 128,-1,163
 1620 1032 1620 1032 1649 1012 c 0,164,165
 1666 1000 1666 1000 1682 980.5 c 128,-1,166
 1698 961 1698 961 1711 936.5 c 128,-1,167
 1724 912 1724 912 1731.5 883.5 c 128,-1,168
 1739 855 1739 855 1739 825 c 0,169,170
 1739 773 1739 773 1731 725.5 c 128,-1,171
 1723 678 1723 678 1694 621 c 256,172,173
 1665 564 1665 564 1610.5 511.5 c 128,-1,174
 1556 459 1556 459 1487 424 c 0,175,176
 1450 405 1450 405 1399.5 388.5 c 128,-1,177
 1349 372 1349 372 1292 362 c 1,178,179
 1191 312 1191 312 1141 262 c 0,180,181
 1085 206 1085 206 1085 170 c 0,182,183
 1085 147 1085 147 1097 124 c 128,-1,184
 1109 101 1109 101 1149 86 c 0,185,186
 1178 75 1178 75 1216.5 69 c 128,-1,187
 1255 63 1255 63 1286 61 c 0,188,189
 1337 58 1337 58 1383 59.5 c 128,-1,190
 1429 61 1429 61 1477 66 c 0,191,192
 1519 71 1519 71 1556.5 76 c 128,-1,193
 1594 81 1594 81 1642 92 c 0,194,195
 1668 98 1668 98 1697.5 100 c 128,-1,196
 1727 102 1727 102 1747 88 c 0,197,198
 1768 74 1768 74 1770 52 c 128,-1,199
 1772 30 1772 30 1757 10 c 0,200,201
 1744 -7 1744 -7 1716.5 -20 c 128,-1,202
 1689 -33 1689 -33 1649 -39 c 0,203,204
 1570 -51 1570 -51 1494.5 -54 c 128,-1,205
 1419 -57 1419 -57 1341 -55 c 256,206,207
 1263 -53 1263 -53 1200 -37 c 128,-1,208
 1137 -21 1137 -21 1100 2 c 0,209,210
 1062 25 1062 25 1037 58.5 c 128,-1,211
 1012 92 1012 92 1008 152 c 0,212,213
 1006 181 1006 181 1024 217.5 c 128,-1,214
 1042 254 1042 254 1071 283 c 0,215,216
 1087 298 1087 298 1111.5 316 c 128,-1,217
 1136 334 1136 334 1174 352 c 1,218,219
 1068 352 1068 352 1018 381 c 0,220,221
 984 400 984 400 972.5 425 c 128,-1,222
 961 450 961 450 961 481 c 0,223,224
 961 531 961 531 992 568.5 c 128,-1,225
 1023 606 1023 606 1069 635 c 0,226,227
 1111 661 1111 661 1161 682 c 128,-1,228
 1211 703 1211 703 1274 709 c 0,229,230
 1328 714 1328 714 1359.5 704.5 c 128,-1,231
 1391 695 1391 695 1411 680 c 0,232,233
 1439 658 1439 658 1444.5 633.5 c 128,-1,234
 1450 609 1450 609 1450 586 c 0,235,236
 1450 554 1450 554 1427.5 518.5 c 128,-1,237
 1405 483 1405 483 1374 455 c 1,238,239
 1400 465 1400 465 1427 483.5 c 128,-1,240
 1454 502 1454 502 1478 525.5 c 128,-1,241
 1502 549 1502 549 1522 575 c 128,-1,242
 1542 601 1542 601 1554 627 c 0,243,244
 1575 672 1575 672 1585 721.5 c 128,-1,245
 1595 771 1595 771 1595 817 c 0,246,247
 1595 868 1595 868 1585.5 902.5 c 128,-1,248
 1576 937 1576 937 1555.5 957.5 c 128,-1,249
 1535 978 1535 978 1503.5 986.5 c 128,-1,250
 1472 995 1472 995 1427 995 c 0,251,252
 1395 995 1395 995 1358.5 984.5 c 128,-1,253
 1322 974 1322 974 1281.5 956.5 c 128,-1,254
 1241 939 1241 939 1196.5 916.5 c 128,-1,255
 1152 894 1152 894 1106 870 c 0,256,257
 1058 845 1058 845 1022.5 824.5 c 128,-1,258
 987 804 987 804 956 788 c 0,259,260
 900 759 900 759 897 805 c 0,261,262
 894 837 894 837 905 868 c 0,263,264
 913 890 913 890 925 897.5 c 128,-1,265
 937 905 937 905 963 913 c 0,266,267
 994 923 994 923 1019 932 c 128,-1,268
 1044 941 1044 941 1069 952 c 0,269,270
 1088 961 1088 961 1103 968 c 128,-1,271
 1118 975 1118 975 1132.5 983 c 128,-1,272
 1147 991 1147 991 1162.5 1002 c 128,-1,273
 1178 1013 1178 1013 1198 1030 c 0,274,275
 1255 1078 1255 1078 1302.5 1122.5 c 128,-1,276
 1350 1167 1350 1167 1376 1204 c 0,277,278
 1393 1229 1393 1229 1380 1237 c 128,-1,279
 1367 1245 1367 1245 1325 1233 c 0,280,281
 1314 1230 1314 1230 1294.5 1222 c 128,-1,282
 1275 1214 1275 1214 1251 1203.5 c 128,-1,283
 1227 1193 1227 1193 1201 1181.5 c 128,-1,284
 1175 1170 1175 1170 1153 1159 c 0,285,286
 1130 1148 1130 1148 1117.5 1147.5 c 128,-1,287
 1105 1147 1105 1147 1090 1155 c 1,288,289
 1079 1166 1079 1166 1075.5 1174 c 128,-1,290
 1072 1182 1072 1182 1069 1196 c 0,291,292
 1066 1211 1066 1211 1070 1222.5 c 128,-1,293
 1074 1234 1074 1234 1090 1249 c 1,294,295
 1111 1261 1111 1261 1128 1271 c 128,-1,296
 1145 1281 1145 1281 1161 1291 c 128,-1,297
 1177 1301 1177 1301 1194.5 1312.5 c 128,-1,298
 1212 1324 1212 1324 1233 1339 c 0,299,300
 1255 1355 1255 1355 1278.5 1374.5 c 128,-1,301
 1302 1394 1302 1394 1324 1414 c 128,-1,302
 1346 1434 1346 1434 1364 1453 c 128,-1,303
 1382 1472 1382 1472 1393 1487 c 1,304,305
 1373 1479 1373 1479 1342 1473 c 128,-1,306
 1311 1467 1311 1467 1275.5 1463.5 c 128,-1,307
 1240 1460 1240 1460 1203 1459.5 c 128,-1,308
 1166 1459 1166 1459 1135 1462 c 0,309,310
 1087 1467 1087 1467 1053.5 1488 c 128,-1,311
 1020 1509 1020 1509 997 1538 c 1,312,-1
 1024 1569 l 1,115,116
1257 422 m 1,313,314
 1274 436 1274 436 1286 447.5 c 128,-1,315
 1298 459 1298 459 1309 479 c 0,316,317
 1321 501 1321 501 1326 519.5 c 128,-1,318
 1331 538 1331 538 1331 561 c 0,319,320
 1331 590 1331 590 1315.5 604 c 128,-1,321
 1300 618 1300 618 1260 618 c 0,322,323
 1240 618 1240 618 1217.5 615 c 128,-1,324
 1195 612 1195 612 1172.5 606 c 128,-1,325
 1150 600 1150 600 1129 590 c 128,-1,326
 1108 580 1108 580 1090 565 c 0,327,328
 1054 536 1054 536 1041.5 515.5 c 128,-1,329
 1029 495 1029 495 1032 469 c 0,330,331
 1035 444 1035 444 1051.5 433.5 c 128,-1,332
 1068 423 1068 423 1114 416 c 0,333,334
 1140 412 1140 412 1175.5 413 c 128,-1,335
 1211 414 1211 414 1257 422 c 1,313,314
EndSplineSet
Validated: 33
EndChar

StartChar: u1B017
Encoding: 12503 110615 22
Width: 2048
Flags: W
LayerCount: 2
Fore
SplineSet
498 1575 m 1,0,1
 521 1518 521 1518 523 1448 c 128,-1,2
 525 1378 525 1378 502 1300 c 0,3,4
 477 1215 477 1215 411 1112.5 c 128,-1,5
 345 1010 345 1010 254 889 c 0,6,7
 240 870 240 870 239.5 850 c 128,-1,8
 239 830 239 830 264 811 c 0,9,10
 283 797 283 797 301.5 777 c 128,-1,11
 320 757 320 757 336 735 c 0,12,13
 351 715 351 715 360 678 c 128,-1,14
 369 641 369 641 373 598.5 c 128,-1,15
 377 556 377 556 377.5 512.5 c 128,-1,16
 378 469 378 469 377 436 c 0,17,18
 376 420 376 420 375 395 c 128,-1,19
 374 370 374 370 372.5 342 c 128,-1,20
 371 314 371 314 369.5 285 c 128,-1,21
 368 256 368 256 367 231 c 1,22,23
 385 279 385 279 404.5 327.5 c 128,-1,24
 424 376 424 376 442.5 420 c 128,-1,25
 461 464 461 464 479 502.5 c 128,-1,26
 497 541 497 541 512 569 c 1,27,-1
 551 541 l 1,28,29
 534 500 534 500 516 451.5 c 128,-1,30
 498 403 498 403 481.5 354 c 128,-1,31
 465 305 465 305 450.5 259 c 128,-1,32
 436 213 436 213 426 178 c 0,33,34
 412 130 412 130 400.5 90.5 c 128,-1,35
 389 51 389 51 391 25 c 0,36,37
 394 -14 394 -14 375.5 -30.5 c 128,-1,38
 357 -47 357 -47 336 -47 c 0,39,40
 314 -47 314 -47 299.5 -35 c 128,-1,41
 285 -23 285 -23 274 -6 c 0,42,43
 248 37 248 37 254 94 c 0,44,45
 258 131 258 131 262 180 c 128,-1,46
 266 229 266 229 269 283.5 c 128,-1,47
 272 338 272 338 273.5 395 c 128,-1,48
 275 452 275 452 275 506.5 c 128,-1,49
 275 561 275 561 273 610.5 c 128,-1,50
 271 660 271 660 266 698 c 0,51,52
 263 724 263 724 253.5 743.5 c 128,-1,53
 244 763 244 763 227 784 c 0,54,55
 221 792 221 792 208.5 804.5 c 128,-1,56
 196 817 196 817 188 823 c 0,57,58
 167 840 167 840 154 860 c 128,-1,59
 141 880 141 880 141 903 c 0,60,61
 141 925 141 925 152.5 951.5 c 128,-1,62
 164 978 164 978 193 1010 c 0,63,64
 247 1070 247 1070 298.5 1136.5 c 128,-1,65
 350 1203 350 1203 387 1276 c 0,66,67
 409 1319 409 1319 424 1356.5 c 128,-1,68
 439 1394 439 1394 448 1429 c 128,-1,69
 457 1464 457 1464 460 1497 c 128,-1,70
 463 1530 463 1530 461 1565 c 1,71,-1
 498 1575 l 1,0,1
1114 1653 m 1,72,73
 1133 1651 1133 1651 1156.5 1648 c 128,-1,74
 1180 1645 1180 1645 1203.5 1641 c 128,-1,75
 1227 1637 1227 1637 1248.5 1632 c 128,-1,76
 1270 1627 1270 1627 1284 1622 c 0,77,78
 1318 1609 1318 1609 1337 1583 c 128,-1,79
 1356 1557 1356 1557 1348 1509 c 0,80,81
 1340 1457 1340 1457 1335.5 1411 c 128,-1,82
 1331 1365 1331 1365 1333 1341 c 1,83,84
 1362 1343 1362 1343 1398 1344.5 c 128,-1,85
 1434 1346 1434 1346 1470.5 1346.5 c 128,-1,86
 1507 1347 1507 1347 1540 1345.5 c 128,-1,87
 1573 1344 1573 1344 1597 1341 c 0,88,89
 1633 1336 1633 1336 1660.5 1328 c 128,-1,90
 1688 1320 1688 1320 1704 1311 c 0,91,92
 1741 1289 1741 1289 1741 1257 c 0,93,94
 1741 1243 1741 1243 1725 1231 c 128,-1,95
 1709 1219 1709 1219 1677 1217 c 0,96,97
 1653 1215 1653 1215 1633 1216.5 c 128,-1,98
 1613 1218 1613 1218 1593 1221 c 0,99,100
 1583 1222 1583 1222 1565.5 1224.5 c 128,-1,101
 1548 1227 1548 1227 1527 1230 c 128,-1,102
 1506 1233 1506 1233 1485 1235 c 128,-1,103
 1464 1237 1464 1237 1448 1237 c 0,104,105
 1414 1237 1414 1237 1384 1236 c 128,-1,106
 1354 1235 1354 1235 1329 1233 c 1,107,-1
 1315 881 l 1,108,109
 1330 868 1330 868 1348 854.5 c 128,-1,110
 1366 841 1366 841 1378 827 c 0,111,112
 1386 818 1386 818 1391.5 803 c 128,-1,113
 1397 788 1397 788 1397 772 c 0,114,115
 1397 749 1397 749 1387.5 726.5 c 128,-1,116
 1378 704 1378 704 1360 678 c 0,117,118
 1355 671 1355 671 1348.5 660 c 128,-1,119
 1342 649 1342 649 1334.5 636 c 128,-1,120
 1327 623 1327 623 1320.5 609.5 c 128,-1,121
 1314 596 1314 596 1309 584 c 1,122,123
 1309 564 1309 564 1308.5 541.5 c 128,-1,124
 1308 519 1308 519 1308 496.5 c 128,-1,125
 1308 474 1308 474 1308.5 453 c 128,-1,126
 1309 432 1309 432 1311 414 c 0,127,128
 1314 376 1314 376 1292 348 c 0,129,130
 1275 326 1275 326 1259 324 c 128,-1,131
 1243 322 1243 322 1231 330 c 0,132,133
 1217 339 1217 339 1205 346.5 c 128,-1,134
 1193 354 1193 354 1171 367 c 1,135,136
 1157 358 1157 358 1137 343 c 128,-1,137
 1117 328 1117 328 1094.5 309 c 128,-1,138
 1072 290 1072 290 1050 268 c 128,-1,139
 1028 246 1028 246 1010 223 c 0,140,141
 971 172 971 172 976.5 138 c 128,-1,142
 982 104 982 104 1036 78 c 0,143,144
 1071 61 1071 61 1132.5 51 c 128,-1,145
 1194 41 1194 41 1262 41 c 0,146,147
 1325 41 1325 41 1371 48.5 c 128,-1,148
 1417 56 1417 56 1446 66 c 0,149,150
 1467 73 1467 73 1479 83 c 128,-1,151
 1491 93 1491 93 1497 110.5 c 128,-1,152
 1503 128 1503 128 1503.5 155 c 128,-1,153
 1504 182 1504 182 1501 223 c 0,154,155
 1499 245 1499 245 1495 279 c 128,-1,156
 1491 313 1491 313 1486.5 351 c 128,-1,157
 1482 389 1482 389 1476.5 427 c 128,-1,158
 1471 465 1471 465 1466 496 c 1,159,-1
 1513 502 l 1,160,161
 1520 471 1520 471 1529.5 434.5 c 128,-1,162
 1539 398 1539 398 1550 360 c 128,-1,163
 1561 322 1561 322 1573 285 c 128,-1,164
 1585 248 1585 248 1597 217 c 256,165,166
 1609 186 1609 186 1620 165.5 c 128,-1,167
 1631 145 1631 145 1651 129 c 0,168,169
 1670 114 1670 114 1675.5 98.5 c 128,-1,170
 1681 83 1681 83 1681 72 c 0,171,172
 1681 47 1681 47 1648.5 20.5 c 128,-1,173
 1616 -6 1616 -6 1559 -25 c 0,174,175
 1489 -48 1489 -48 1413 -55.5 c 128,-1,176
 1337 -63 1337 -63 1268 -63 c 0,177,178
 1227 -63 1227 -63 1186.5 -58.5 c 128,-1,179
 1146 -54 1146 -54 1109 -46.5 c 128,-1,180
 1072 -39 1072 -39 1040.5 -28 c 128,-1,181
 1009 -17 1009 -17 987 -4 c 0,182,183
 942 22 942 22 919.5 59.5 c 128,-1,184
 897 97 897 97 897 139 c 0,185,186
 897 176 897 176 918 215 c 128,-1,187
 939 254 939 254 979 297 c 0,188,189
 1017 338 1017 338 1043.5 364.5 c 128,-1,190
 1070 391 1070 391 1096 414 c 1,191,192
 1067 437 1067 437 1032.5 455.5 c 128,-1,193
 998 474 998 474 963 489 c 0,194,195
 921 506 921 506 903 532 c 128,-1,196
 885 558 885 558 885 592 c 0,197,198
 885 627 885 627 918.5 670.5 c 128,-1,199
 952 714 952 714 1036 774 c 0,200,201
 1061 792 1061 792 1087 807.5 c 128,-1,202
 1113 823 1113 823 1138.5 836.5 c 128,-1,203
 1164 850 1164 850 1186.5 860 c 128,-1,204
 1209 870 1209 870 1227 877 c 1,205,-1
 1233 1223 l 1,206,207
 1209 1221 1209 1221 1180.5 1215 c 128,-1,208
 1152 1209 1152 1209 1122.5 1200 c 128,-1,209
 1093 1191 1093 1191 1063 1180 c 128,-1,210
 1033 1169 1033 1169 1006 1157 c 0,211,212
 952 1134 952 1134 889 1103.5 c 128,-1,213
 826 1073 826 1073 766 1028 c 1,214,-1
 735 1073 l 1,215,216
 759 1094 759 1094 789 1115.5 c 128,-1,217
 819 1137 819 1137 850.5 1156.5 c 128,-1,218
 882 1176 882 1176 911 1192 c 128,-1,219
 940 1208 940 1208 963 1219 c 0,220,221
 1004 1239 1004 1239 1039.5 1255 c 128,-1,222
 1075 1271 1075 1271 1106.5 1284 c 128,-1,223
 1138 1297 1138 1297 1168 1306.5 c 128,-1,224
 1198 1316 1198 1316 1229 1323 c 1,225,226
 1230 1338 1230 1338 1230.5 1359 c 128,-1,227
 1231 1380 1231 1380 1230.5 1403 c 128,-1,228
 1230 1426 1230 1426 1229 1449 c 128,-1,229
 1228 1472 1228 1472 1227 1493 c 0,230,231
 1225 1511 1225 1511 1223.5 1522.5 c 128,-1,232
 1222 1534 1222 1534 1218 1542.5 c 128,-1,233
 1214 1551 1214 1551 1206.5 1557.5 c 128,-1,234
 1199 1564 1199 1564 1186 1573 c 0,235,236
 1172 1582 1172 1582 1148.5 1590 c 128,-1,237
 1125 1598 1125 1598 1096 1606 c 1,238,-1
 1114 1653 l 1,72,73
1612 1006 m 1,239,240
 1658 978 1658 978 1710.5 940.5 c 128,-1,241
 1763 903 1763 903 1808 846 c 256,242,243
 1853 789 1853 789 1872.5 734 c 128,-1,244
 1892 679 1892 679 1892 645 c 0,245,246
 1892 578 1892 578 1876 545 c 0,247,248
 1863 517 1863 517 1847.5 502 c 128,-1,249
 1832 487 1832 487 1815 487 c 0,250,251
 1793 489 1793 489 1783.5 498.5 c 128,-1,252
 1774 508 1774 508 1772 522 c 0,253,254
 1769 544 1769 544 1753.5 559.5 c 128,-1,255
 1738 575 1738 575 1724 584 c 0,256,257
 1707 595 1707 595 1677 605.5 c 128,-1,258
 1647 616 1647 616 1591 621 c 1,259,-1
 1581 674 l 1,260,261
 1626 671 1626 671 1657 670.5 c 128,-1,262
 1688 670 1688 670 1708 670 c 0,263,264
 1751 670 1751 670 1751 721 c 0,265,266
 1751 747 1751 747 1740 777 c 128,-1,267
 1729 807 1729 807 1710 838 c 0,268,269
 1704 848 1704 848 1690.5 864.5 c 128,-1,270
 1677 881 1677 881 1659 899.5 c 128,-1,271
 1641 918 1641 918 1620.5 936.5 c 128,-1,272
 1600 955 1600 955 1581 969 c 1,273,-1
 1612 1006 l 1,239,240
1225 774 m 1,274,275
 1216 773 1216 773 1199 766.5 c 128,-1,276
 1182 760 1182 760 1162 750 c 128,-1,277
 1142 740 1142 740 1119 726 c 128,-1,278
 1096 712 1096 712 1075 696 c 0,279,280
 1044 672 1044 672 1024.5 655 c 128,-1,281
 1005 638 1005 638 994 625 c 128,-1,282
 983 612 983 612 979 602 c 128,-1,283
 975 592 975 592 975 582 c 0,284,285
 975 566 975 566 995.5 548 c 128,-1,286
 1016 530 1016 530 1067 502 c 0,287,288
 1081 494 1081 494 1099.5 483 c 128,-1,289
 1118 472 1118 472 1130 461 c 1,290,291
 1140 471 1140 471 1153 487 c 128,-1,292
 1166 503 1166 503 1178.5 521.5 c 128,-1,293
 1191 540 1191 540 1202.5 559 c 128,-1,294
 1214 578 1214 578 1221 594 c 1,295,-1
 1225 774 l 1,274,275
EndSplineSet
Validated: 33
EndChar

StartChar: u1B018
Encoding: 12504 110616 23
Width: 2048
Flags: W
LayerCount: 2
Fore
SplineSet
709 1497 m 0,0,1
 778 1466 778 1466 792.5 1426.5 c 128,-1,2
 807 1387 807 1387 782 1339 c 0,3,4
 771 1318 771 1318 759.5 1292 c 128,-1,5
 748 1266 748 1266 737 1241 c 0,6,7
 722 1207 722 1207 710.5 1173 c 128,-1,8
 699 1139 699 1139 694 1116 c 1,9,10
 732 1132 732 1132 765.5 1139.5 c 128,-1,11
 799 1147 799 1147 825 1147 c 0,12,13
 853 1147 853 1147 880.5 1139.5 c 128,-1,14
 908 1132 908 1132 934 1114 c 0,15,16
 974 1086 974 1086 997 1033.5 c 128,-1,17
 1020 981 1020 981 1020 918 c 0,18,19
 1020 856 1020 856 1014 789.5 c 128,-1,20
 1008 723 1008 723 995 655 c 128,-1,21
 982 587 982 587 961.5 521 c 128,-1,22
 941 455 941 455 913 395 c 0,23,24
 871 307 871 307 826.5 244.5 c 128,-1,25
 782 182 782 182 731 131 c 0,26,27
 669 69 669 69 616.5 47 c 128,-1,28
 564 25 564 25 522 25 c 0,29,30
 497 25 497 25 474 34 c 128,-1,31
 451 43 451 43 432 74 c 0,32,33
 420 94 420 94 411.5 121.5 c 128,-1,34
 403 149 403 149 401 178 c 0,35,36
 399 204 399 204 402 237 c 128,-1,37
 405 270 405 270 410 293 c 1,38,-1
 457 297 l 1,39,40
 455 280 455 280 457.5 255 c 128,-1,41
 460 230 460 230 465 211 c 0,42,43
 472 184 472 184 484.5 160.5 c 128,-1,44
 497 137 497 137 522 137 c 0,45,46
 545 137 545 137 574 148.5 c 128,-1,47
 603 160 603 160 635 190 c 0,48,49
 690 241 690 241 739.5 319.5 c 128,-1,50
 789 398 789 398 827 498 c 0,51,52
 843 539 843 539 857 589.5 c 128,-1,53
 871 640 871 640 881 694.5 c 128,-1,54
 891 749 891 749 897 806 c 128,-1,55
 903 863 903 863 903 918 c 0,56,57
 903 1012 903 1012 878 1049 c 128,-1,58
 853 1086 853 1086 805 1079 c 0,59,60
 793 1077 793 1077 775.5 1072.5 c 128,-1,61
 758 1068 758 1068 738 1061 c 128,-1,62
 718 1054 718 1054 697 1045 c 128,-1,63
 676 1036 676 1036 657 1026 c 1,64,65
 639 984 639 984 617.5 924 c 128,-1,66
 596 864 596 864 576 801 c 128,-1,67
 556 738 556 738 538 680 c 128,-1,68
 520 622 520 622 510 584 c 2,69,-1
 469 436 l 2,70,71
 460 402 460 402 447.5 387.5 c 128,-1,72
 435 373 435 373 412 373 c 0,73,74
 401 373 401 373 391.5 380 c 128,-1,75
 382 387 382 387 374 397 c 128,-1,76
 366 407 366 407 360.5 419 c 128,-1,77
 355 431 355 431 352 442 c 0,78,79
 345 468 345 468 353.5 506 c 128,-1,80
 362 544 362 544 385 586 c 0,81,82
 394 603 394 603 407 632.5 c 128,-1,83
 420 662 420 662 435 699 c 128,-1,84
 450 736 450 736 466 777 c 128,-1,85
 482 818 482 818 497 857 c 128,-1,86
 512 896 512 896 525 930.5 c 128,-1,87
 538 965 538 965 547 989 c 1,88,89
 528 982 528 982 505 972 c 128,-1,90
 482 962 482 962 458 950 c 128,-1,91
 434 938 434 938 411 925.5 c 128,-1,92
 388 913 388 913 369 901 c 0,93,94
 312 866 312 866 275 857.5 c 128,-1,95
 238 849 238 849 207 866 c 0,96,97
 189 876 189 876 173 894 c 128,-1,98
 157 912 157 912 143 934.5 c 128,-1,99
 129 957 129 957 118 982.5 c 128,-1,100
 107 1008 107 1008 100 1034 c 1,101,-1
 141 1063 l 1,102,103
 166 1015 166 1015 202 995 c 128,-1,104
 238 975 238 975 289 991 c 0,105,106
 323 1001 323 1001 361 1013.5 c 128,-1,107
 399 1026 399 1026 437 1038.5 c 128,-1,108
 475 1051 475 1051 510 1062 c 128,-1,109
 545 1073 545 1073 573 1081 c 1,110,111
 585 1110 585 1110 596 1146.5 c 128,-1,112
 607 1183 607 1183 617 1219.5 c 128,-1,113
 627 1256 627 1256 635 1290 c 128,-1,114
 643 1324 643 1324 649 1348 c 0,115,116
 656 1378 656 1378 652 1399 c 128,-1,117
 648 1420 648 1420 632.5 1435.5 c 128,-1,118
 617 1451 617 1451 588.5 1463.5 c 128,-1,119
 560 1476 560 1476 518 1489 c 1,120,-1
 551 1536 l 1,121,122
 568 1534 568 1534 589.5 1530 c 128,-1,123
 611 1526 611 1526 633 1520.5 c 128,-1,124
 655 1515 655 1515 675 1509 c 128,-1,125
 695 1503 695 1503 709 1497 c 0,0,1
1270 1077 m 1,126,127
 1295 1066 1295 1066 1320 1044.5 c 128,-1,128
 1345 1023 1345 1023 1360 995 c 0,129,130
 1379 961 1379 961 1390.5 920 c 128,-1,131
 1402 879 1402 879 1407 848 c 1,132,133
 1444 891 1444 891 1481.5 920.5 c 128,-1,134
 1519 950 1519 950 1554 975 c 0,135,136
 1592 1001 1592 1001 1628 1011.5 c 128,-1,137
 1664 1022 1664 1022 1704 1022 c 0,138,139
 1747 1022 1747 1022 1781.5 1004.5 c 128,-1,140
 1816 987 1816 987 1847 956 c 0,141,142
 1879 924 1879 924 1891 882 c 128,-1,143
 1903 840 1903 840 1903 795 c 0,144,145
 1903 724 1903 724 1873.5 660.5 c 128,-1,146
 1844 597 1844 597 1784 524 c 0,147,148
 1755 489 1755 489 1716 451.5 c 128,-1,149
 1677 414 1677 414 1632 378.5 c 128,-1,150
 1587 343 1587 343 1538.5 310.5 c 128,-1,151
 1490 278 1490 278 1442 252 c 1,152,-1
 1403 293 l 1,153,154
 1497 350 1497 350 1570.5 420 c 128,-1,155
 1644 490 1644 490 1698 565 c 0,156,157
 1741 625 1741 625 1755 679.5 c 128,-1,158
 1769 734 1769 734 1769 793 c 0,159,160
 1769 865 1769 865 1743.5 907.5 c 128,-1,161
 1718 950 1718 950 1673 950 c 0,162,163
 1649 950 1649 950 1623.5 934.5 c 128,-1,164
 1598 919 1598 919 1572.5 895.5 c 128,-1,165
 1547 872 1547 872 1523.5 844 c 128,-1,166
 1500 816 1500 816 1481 791 c 0,167,168
 1459 762 1459 762 1451.5 734 c 128,-1,169
 1444 706 1444 706 1444 686 c 0,170,171
 1444 649 1444 649 1426.5 635 c 128,-1,172
 1409 621 1409 621 1386 621 c 0,173,174
 1371 621 1371 621 1359 624.5 c 128,-1,175
 1347 628 1347 628 1337 638.5 c 128,-1,176
 1327 649 1327 649 1318.5 667.5 c 128,-1,177
 1310 686 1310 686 1303 715 c 0,178,179
 1299 732 1299 732 1296.5 757 c 128,-1,180
 1294 782 1294 782 1292.5 810.5 c 128,-1,181
 1291 839 1291 839 1289.5 868.5 c 128,-1,182
 1288 898 1288 898 1286 924 c 0,183,184
 1284 949 1284 949 1280 967 c 128,-1,185
 1276 985 1276 985 1270.5 999 c 128,-1,186
 1265 1013 1265 1013 1257.5 1024.5 c 128,-1,187
 1250 1036 1250 1036 1241 1049 c 1,188,-1
 1270 1077 l 1,126,127
EndSplineSet
Validated: 33
EndChar

StartChar: u1B019
Encoding: 12505 110617 24
Width: 2048
Flags: W
LayerCount: 2
Fore
SplineSet
1223 969 m 0,0,1
 1307 969 1307 969 1378 946.5 c 128,-1,2
 1449 924 1449 924 1501 879.5 c 128,-1,3
 1553 835 1553 835 1582.5 769.5 c 128,-1,4
 1612 704 1612 704 1612 618 c 0,5,6
 1612 525 1612 525 1569.5 425 c 128,-1,7
 1527 325 1527 325 1446 240 c 0,8,9
 1400 192 1400 192 1349.5 150 c 128,-1,10
 1299 108 1299 108 1238.5 69 c 128,-1,11
 1178 30 1178 30 1104 -7.5 c 128,-1,12
 1030 -45 1030 -45 936 -84 c 1,13,-1
 895 -29 l 1,14,15
 1065 47 1065 47 1173.5 126 c 128,-1,16
 1282 205 1282 205 1348 285 c 0,17,18
 1381 325 1381 325 1405 368.5 c 128,-1,19
 1429 412 1429 412 1444.5 456.5 c 128,-1,20
 1460 501 1460 501 1467.5 543.5 c 128,-1,21
 1475 586 1475 586 1475 623 c 0,22,23
 1475 693 1475 693 1455.5 745 c 128,-1,24
 1436 797 1436 797 1400.5 831.5 c 128,-1,25
 1365 866 1365 866 1315 883.5 c 128,-1,26
 1265 901 1265 901 1204 901 c 0,27,28
 1147 901 1147 901 1089 895.5 c 128,-1,29
 1031 890 1031 890 971 874 c 1,30,31
 969 841 969 841 962 804.5 c 128,-1,32
 955 768 955 768 944 731 c 128,-1,33
 933 694 933 694 918 658.5 c 128,-1,34
 903 623 903 623 885 592 c 256,35,36
 867 561 867 561 842 529 c 128,-1,37
 817 497 817 497 788.5 467.5 c 128,-1,38
 760 438 760 438 731 414 c 128,-1,39
 702 390 702 390 676 375 c 0,40,41
 607 335 607 335 568 335.5 c 128,-1,42
 529 336 529 336 504 379 c 0,43,44
 493 397 493 397 480 417.5 c 128,-1,45
 467 438 467 438 454 457.5 c 128,-1,46
 441 477 441 477 430 493.5 c 128,-1,47
 419 510 419 510 412 520 c 0,48,49
 391 549 391 549 392.5 588 c 128,-1,50
 394 627 394 627 424 662 c 0,51,52
 450 692 450 692 495.5 730 c 128,-1,53
 541 768 541 768 604 805 c 0,54,55
 749 890 749 890 901 929.5 c 128,-1,56
 1053 969 1053 969 1223 969 c 0,0,1
897 854 m 1,57,58
 837 835 837 835 779.5 806 c 128,-1,59
 722 777 722 777 659 739 c 0,60,61
 582 691 582 691 550 639 c 128,-1,62
 518 587 518 587 518 535 c 0,63,64
 518 503 518 503 535.5 481 c 128,-1,65
 553 459 553 459 588 459 c 0,66,67
 603 459 603 459 627 471 c 128,-1,68
 651 483 651 483 679 505.5 c 128,-1,69
 707 528 707 528 737.5 559.5 c 128,-1,70
 768 591 768 591 797 631 c 0,71,72
 828 674 828 674 855 734 c 128,-1,73
 882 794 882 794 897 854 c 1,57,58
657 1667 m 1,74,75
 705 1613 705 1613 763.5 1572 c 128,-1,76
 822 1531 822 1531 883 1501.5 c 128,-1,77
 944 1472 944 1472 1004.5 1454.5 c 128,-1,78
 1065 1437 1065 1437 1116 1430 c 0,79,80
 1158 1424 1158 1424 1195 1422.5 c 128,-1,81
 1232 1421 1232 1421 1264 1421 c 0,82,83
 1293 1421 1293 1421 1313 1418.5 c 128,-1,84
 1333 1416 1333 1416 1352 1403 c 0,85,86
 1369 1391 1369 1391 1382 1376.5 c 128,-1,87
 1395 1362 1395 1362 1395 1343 c 0,88,89
 1395 1287 1395 1287 1292 1290 c 0,90,91
 1188 1293 1188 1293 1090 1316.5 c 128,-1,92
 992 1340 992 1340 905 1383 c 128,-1,93
 818 1426 818 1426 744.5 1487.5 c 128,-1,94
 671 1549 671 1549 616 1628 c 1,95,-1
 657 1667 l 1,74,75
EndSplineSet
Validated: 33
EndChar

StartChar: u1B01A
Encoding: 12506 110618 25
Width: 2048
Flags: W
LayerCount: 2
Fore
SplineSet
879 1595 m 1,0,1
 917 1589 917 1589 947.5 1580 c 128,-1,2
 978 1571 978 1571 1004 1559 c 0,3,4
 1056 1534 1056 1534 1082 1500 c 128,-1,5
 1108 1466 1108 1466 1108 1432 c 0,6,7
 1108 1410 1108 1410 1099.5 1390 c 128,-1,8
 1091 1370 1091 1370 1079 1352 c 0,9,10
 1073 1343 1073 1343 1065 1331 c 128,-1,11
 1057 1319 1057 1319 1049 1306.5 c 128,-1,12
 1041 1294 1041 1294 1032.5 1281.5 c 128,-1,13
 1024 1269 1024 1269 1018 1260 c 0,14,15
 996 1228 996 1228 966.5 1186 c 128,-1,16
 937 1144 937 1144 915 1106 c 1,17,18
 982 1141 982 1141 1056.5 1154 c 128,-1,19
 1131 1167 1131 1167 1200 1167 c 0,20,21
 1232 1167 1232 1167 1269 1161 c 128,-1,22
 1306 1155 1306 1155 1343.5 1143 c 128,-1,23
 1381 1131 1381 1131 1416.5 1112 c 128,-1,24
 1452 1093 1452 1093 1481 1067 c 0,25,26
 1507 1044 1507 1044 1530.5 1013.5 c 128,-1,27
 1554 983 1554 983 1572 944 c 128,-1,28
 1590 905 1590 905 1601 856.5 c 128,-1,29
 1612 808 1612 808 1612 748 c 0,30,31
 1612 686 1612 686 1598.5 620.5 c 128,-1,32
 1585 555 1585 555 1556.5 490.5 c 128,-1,33
 1528 426 1528 426 1485 365 c 128,-1,34
 1442 304 1442 304 1382 250 c 0,35,36
 1231 114 1231 114 1056.5 20.5 c 128,-1,37
 882 -73 882 -73 680 -133 c 1,38,-1
 651 -84 l 1,39,40
 753 -46 753 -46 846 -2 c 128,-1,41
 939 42 939 42 1022.5 94 c 128,-1,42
 1106 146 1106 146 1179 207.5 c 128,-1,43
 1252 269 1252 269 1313 342 c 0,44,45
 1353 390 1353 390 1381.5 441 c 128,-1,46
 1410 492 1410 492 1428 543 c 128,-1,47
 1446 594 1446 594 1454 643.5 c 128,-1,48
 1462 693 1462 693 1462 739 c 0,49,50
 1462 792 1462 792 1456.5 834.5 c 128,-1,51
 1451 877 1451 877 1438 912 c 128,-1,52
 1425 947 1425 947 1403 977 c 128,-1,53
 1381 1007 1381 1007 1348 1036 c 0,54,55
 1314 1066 1314 1066 1258 1082 c 128,-1,56
 1202 1098 1202 1098 1124 1098 c 0,57,58
 1001 1098 1001 1098 864 1024 c 1,59,60
 846 999 846 999 811 961 c 128,-1,61
 776 923 776 923 739 885 c 0,62,63
 727 873 727 873 710.5 857.5 c 128,-1,64
 694 842 694 842 676 826.5 c 128,-1,65
 658 811 658 811 640 797.5 c 128,-1,66
 622 784 622 784 608 776 c 0,67,68
 577 759 577 759 558.5 764.5 c 128,-1,69
 540 770 540 770 537 788 c 0,70,71
 534 805 534 805 533.5 826 c 128,-1,72
 533 847 533 847 539 874 c 0,73,74
 557 947 557 947 633 989 c 0,75,76
 678 1014 678 1014 723.5 1036 c 128,-1,77
 769 1058 769 1058 811 1073 c 1,78,79
 854 1135 854 1135 885 1189.5 c 128,-1,80
 916 1244 916 1244 936 1292 c 0,81,82
 951 1329 951 1329 956 1356.5 c 128,-1,83
 961 1384 961 1384 961 1421 c 0,84,85
 961 1440 961 1440 954.5 1457.5 c 128,-1,86
 948 1475 948 1475 928 1499 c 0,87,88
 919 1510 919 1510 895 1526.5 c 128,-1,89
 871 1543 871 1543 842 1559 c 1,90,-1
 879 1595 l 1,0,1
EndSplineSet
Validated: 1
EndChar

StartChar: u1B01B
Encoding: 12507 110619 26
Width: 2048
Flags: W
LayerCount: 2
Fore
SplineSet
852 1649 m 1,0,1
 892 1646 892 1646 930 1636 c 128,-1,2
 968 1626 968 1626 1004 1614 c 0,3,4
 1050 1598 1050 1598 1071 1578 c 128,-1,5
 1092 1558 1092 1558 1094 1532 c 0,6,7
 1096 1509 1096 1509 1092 1482.5 c 128,-1,8
 1088 1456 1088 1456 1083 1430 c 0,9,10
 1080 1413 1080 1413 1077.5 1395 c 128,-1,11
 1075 1377 1075 1377 1073 1362 c 1,12,13
 1145 1373 1145 1373 1215 1387.5 c 128,-1,14
 1285 1402 1285 1402 1348 1423 c 0,15,16
 1366 1429 1366 1429 1384 1435 c 128,-1,17
 1402 1441 1402 1441 1418.5 1446.5 c 128,-1,18
 1435 1452 1435 1452 1449.5 1456.5 c 128,-1,19
 1464 1461 1464 1461 1473 1464 c 0,20,21
 1496 1472 1496 1472 1525.5 1467.5 c 128,-1,22
 1555 1463 1555 1463 1577 1446 c 0,23,24
 1600 1427 1600 1427 1599 1404 c 128,-1,25
 1598 1381 1598 1381 1567 1364 c 0,26,27
 1553 1356 1553 1356 1524 1346 c 128,-1,28
 1495 1336 1495 1336 1450 1325 c 0,29,30
 1418 1317 1418 1317 1375.5 1308.5 c 128,-1,31
 1333 1300 1333 1300 1283 1291.5 c 128,-1,32
 1233 1283 1233 1283 1177.5 1275 c 128,-1,33
 1122 1267 1122 1267 1065 1260 c 1,34,35
 1063 1224 1063 1224 1062 1189.5 c 128,-1,36
 1061 1155 1061 1155 1059 1124 c 0,37,38
 1057 1089 1057 1089 1062 1073 c 128,-1,39
 1067 1057 1067 1057 1085 1051 c 0,40,41
 1124 1038 1124 1038 1171 1031 c 128,-1,42
 1218 1024 1218 1024 1260 1026 c 0,43,44
 1294 1028 1294 1028 1315.5 1013 c 128,-1,45
 1337 998 1337 998 1348 975 c 0,46,47
 1365 940 1365 940 1344 920 c 128,-1,48
 1323 900 1323 900 1257 885 c 0,49,50
 1114 851 1114 851 995.5 814.5 c 128,-1,51
 877 778 877 778 768 733 c 1,52,53
 759 707 759 707 747 681.5 c 128,-1,54
 735 656 735 656 721 627 c 1,55,56
 764 639 764 639 801 645 c 128,-1,57
 838 651 838 651 866 651 c 0,58,59
 939 651 939 651 977 625 c 0,60,61
 1017 598 1017 598 1036 549.5 c 128,-1,62
 1055 501 1055 501 1055 444 c 0,63,64
 1055 377 1055 377 1040.5 315.5 c 128,-1,65
 1026 254 1026 254 999.5 200.5 c 128,-1,66
 973 147 973 147 937 102.5 c 128,-1,67
 901 58 901 58 858 25 c 0,68,69
 812 -10 812 -10 767 -28.5 c 128,-1,70
 722 -47 722 -47 696 -47 c 0,71,72
 667 -47 667 -47 647 -35 c 128,-1,73
 627 -23 627 -23 606 8 c 0,74,75
 581 44 581 44 547 84 c 128,-1,76
 513 124 513 124 481 154 c 1,77,78
 467 131 467 131 453.5 106.5 c 128,-1,79
 440 82 440 82 426 59 c 0,80,81
 414 39 414 39 399.5 19.5 c 128,-1,82
 385 0 385 0 369.5 -15.5 c 128,-1,83
 354 -31 354 -31 338.5 -40 c 128,-1,84
 323 -49 323 -49 309 -47 c 0,85,86
 300 -46 300 -46 292 -39 c 128,-1,87
 284 -32 284 -32 278.5 -21.5 c 128,-1,88
 273 -11 273 -11 270 2 c 128,-1,89
 267 15 267 15 268 27 c 0,90,91
 270 47 270 47 281 69.5 c 128,-1,92
 292 92 292 92 315 115 c 0,93,94
 397 196 397 196 428 244 c 0,95,96
 471 310 471 310 504 372.5 c 128,-1,97
 537 435 537 435 565 498 c 1,98,99
 545 490 545 490 526.5 481 c 128,-1,100
 508 472 508 472 489 463 c 0,101,102
 451 444 451 444 415.5 426 c 128,-1,103
 380 408 380 408 346 385 c 0,104,105
 318 366 318 366 299 356 c 128,-1,106
 280 346 280 346 260 346 c 0,107,108
 234 346 234 346 223.5 363.5 c 128,-1,109
 213 381 213 381 211 418 c 0,110,111
 210 442 210 442 212.5 468 c 128,-1,112
 215 494 215 494 223 521 c 128,-1,113
 231 548 231 548 247 576 c 128,-1,114
 263 604 263 604 289 633 c 1,115,-1
 334 610 l 1,116,117
 323 592 323 592 316 572 c 128,-1,118
 309 552 309 552 305 532 c 0,119,120
 300 506 300 506 316.5 496 c 128,-1,121
 333 486 333 486 381 506 c 0,122,123
 435 529 435 529 491 551 c 128,-1,124
 547 573 547 573 604 592 c 1,125,126
 612 614 612 614 619.5 633.5 c 128,-1,127
 627 653 627 653 633 676 c 0,128,129
 639 700 639 700 637 720.5 c 128,-1,130
 635 741 635 741 622.5 756.5 c 128,-1,131
 610 772 610 772 584 782.5 c 128,-1,132
 558 793 558 793 516 797 c 1,133,-1
 539 848 l 1,134,135
 587 851 587 851 625.5 847.5 c 128,-1,136
 664 844 664 844 698 838 c 0,137,138
 756 828 756 828 768 786 c 1,139,140
 859 824 859 824 948.5 857.5 c 128,-1,141
 1038 891 1038 891 1110 915 c 0,142,143
 1133 923 1133 923 1129.5 929.5 c 128,-1,144
 1126 936 1126 936 1112 936 c 0,145,146
 1084 936 1084 936 1057 941 c 128,-1,147
 1030 946 1030 946 1010 954 c 0,148,149
 987 963 987 963 974 976.5 c 128,-1,150
 961 990 961 990 955 1009 c 128,-1,151
 949 1028 949 1028 947.5 1051.5 c 128,-1,152
 946 1075 946 1075 946 1104 c 0,153,154
 946 1130 946 1130 947 1167 c 128,-1,155
 948 1204 948 1204 950 1247 c 1,156,157
 907 1242 907 1242 866.5 1240.5 c 128,-1,158
 826 1239 826 1239 788 1239 c 0,159,160
 735 1239 735 1239 691.5 1251 c 128,-1,161
 648 1263 648 1263 612.5 1282.5 c 128,-1,162
 577 1302 577 1302 550.5 1328 c 128,-1,163
 524 1354 524 1354 506 1382 c 1,164,-1
 543 1425 l 1,165,166
 587 1379 587 1379 638 1355 c 128,-1,167
 689 1331 689 1331 764 1331 c 0,168,169
 802 1331 802 1331 850 1334.5 c 128,-1,170
 898 1338 898 1338 952 1346 c 1,171,172
 952 1372 952 1372 953 1400 c 128,-1,173
 954 1428 954 1428 954 1454 c 0,174,175
 954 1488 954 1488 948.5 1511.5 c 128,-1,176
 943 1535 943 1535 928 1551.5 c 128,-1,177
 913 1568 913 1568 887 1580 c 128,-1,178
 861 1592 861 1592 821 1602 c 1,179,-1
 852 1649 l 1,0,1
852 590 m 0,180,181
 823 590 823 590 779.5 577.5 c 128,-1,182
 736 565 736 565 682 547 c 1,183,184
 650 475 650 475 606 385.5 c 128,-1,185
 562 296 562 296 508 199 c 1,186,187
 550 165 550 165 590.5 136 c 128,-1,188
 631 107 631 107 657 92 c 0,189,190
 679 80 679 80 699.5 79 c 128,-1,191
 720 78 720 78 741 90 c 0,192,193
 787 116 787 116 824 154.5 c 128,-1,194
 861 193 861 193 886.5 240.5 c 128,-1,195
 912 288 912 288 926 341 c 128,-1,196
 940 394 940 394 940 449 c 0,197,198
 940 526 940 526 919 558 c 128,-1,199
 898 590 898 590 852 590 c 0,180,181
1231 608 m 1,200,201
 1245 562 1245 562 1259.5 533.5 c 128,-1,202
 1274 505 1274 505 1294 479 c 0,203,204
 1324 442 1324 442 1360 475 c 0,205,206
 1426 535 1426 535 1498 571.5 c 128,-1,207
 1570 608 1570 608 1642 608 c 0,208,209
 1692 608 1692 608 1733 597.5 c 128,-1,210
 1774 587 1774 587 1803 564 c 128,-1,211
 1832 541 1832 541 1848 504 c 128,-1,212
 1864 467 1864 467 1864 414 c 0,213,214
 1864 340 1864 340 1821 275.5 c 128,-1,215
 1778 211 1778 211 1695.5 155 c 128,-1,216
 1613 99 1613 99 1492 51.5 c 128,-1,217
 1371 4 1371 4 1214 -35 c 1,218,-1
 1180 23 l 1,219,220
 1320 61 1320 61 1423.5 107 c 128,-1,221
 1527 153 1527 153 1595.5 203.5 c 128,-1,222
 1664 254 1664 254 1697.5 306 c 128,-1,223
 1731 358 1731 358 1731 408 c 0,224,225
 1731 474 1731 474 1704 506.5 c 128,-1,226
 1677 539 1677 539 1626 539 c 0,227,228
 1605 539 1605 539 1580.5 532.5 c 128,-1,229
 1556 526 1556 526 1529 509.5 c 128,-1,230
 1502 493 1502 493 1474 464.5 c 128,-1,231
 1446 436 1446 436 1419 391 c 0,232,233
 1405 368 1405 368 1395 351.5 c 128,-1,234
 1385 335 1385 335 1374 322 c 0,235,236
 1353 299 1353 299 1333 299 c 0,237,238
 1316 299 1316 299 1288 314.5 c 128,-1,239
 1260 330 1260 330 1235 369 c 0,240,241
 1209 411 1209 411 1196.5 464.5 c 128,-1,242
 1184 518 1184 518 1182 584 c 1,243,-1
 1231 608 l 1,200,201
EndSplineSet
Validated: 33
EndChar

StartChar: u1B01C
Encoding: 12508 110620 27
Width: 2048
Flags: W
LayerCount: 2
Fore
SplineSet
926 1661 m 1,0,1
 1007 1645 1007 1645 1057.5 1623 c 128,-1,2
 1108 1601 1108 1601 1139 1569 c 0,3,4
 1176 1530 1176 1530 1168.5 1502.5 c 128,-1,5
 1161 1475 1161 1475 1116 1466 c 0,6,7
 1041 1451 1041 1451 968.5 1431.5 c 128,-1,8
 896 1412 896 1412 829 1386.5 c 128,-1,9
 762 1361 762 1361 701.5 1329 c 128,-1,10
 641 1297 641 1297 590 1257 c 0,11,12
 555 1230 555 1230 538.5 1210 c 128,-1,13
 522 1190 522 1190 522 1165 c 0,14,15
 522 1147 522 1147 540.5 1133.5 c 128,-1,16
 559 1120 559 1120 594 1114 c 0,17,18
 622 1109 622 1109 659.5 1109 c 128,-1,19
 697 1109 697 1109 739.5 1113.5 c 128,-1,20
 782 1118 782 1118 828.5 1128 c 128,-1,21
 875 1138 875 1138 922 1153 c 1,22,23
 945 1184 945 1184 962.5 1207.5 c 128,-1,24
 980 1231 980 1231 997 1249 c 0,25,26
 1014 1268 1014 1268 1031.5 1266 c 128,-1,27
 1049 1264 1049 1264 1069 1255 c 0,28,29
 1083 1248 1083 1248 1098 1237.5 c 128,-1,30
 1113 1227 1113 1227 1122 1219 c 0,31,32
 1144 1200 1144 1200 1144 1183.5 c 128,-1,33
 1144 1167 1144 1167 1128 1151 c 0,34,35
 1106 1129 1106 1129 1077 1114 c 128,-1,36
 1048 1099 1048 1099 1010 1083 c 1,37,38
 986 1059 986 1059 967 1037 c 128,-1,39
 948 1015 948 1015 931 993 c 128,-1,40
 914 971 914 971 898 948.5 c 128,-1,41
 882 926 882 926 864 901 c 0,42,43
 836 862 836 862 874 842 c 0,44,45
 919 819 919 819 957 791.5 c 128,-1,46
 995 764 995 764 1026 727 c 1,47,48
 1090 770 1090 770 1153 807 c 128,-1,49
 1216 844 1216 844 1275 873.5 c 128,-1,50
 1334 903 1334 903 1388.5 923 c 128,-1,51
 1443 943 1443 943 1491 952 c 256,52,53
 1539 961 1539 961 1572 956 c 128,-1,54
 1605 951 1605 951 1625.5 937.5 c 128,-1,55
 1646 924 1646 924 1655.5 904.5 c 128,-1,56
 1665 885 1665 885 1665 866 c 0,57,58
 1665 846 1665 846 1659 823.5 c 128,-1,59
 1653 801 1653 801 1643.5 777 c 128,-1,60
 1634 753 1634 753 1623 727.5 c 128,-1,61
 1612 702 1612 702 1602 676 c 0,62,63
 1594 656 1594 656 1584.5 632.5 c 128,-1,64
 1575 609 1575 609 1566 585 c 128,-1,65
 1557 561 1557 561 1550 538.5 c 128,-1,66
 1543 516 1543 516 1540 498 c 0,67,68
 1537 479 1537 479 1544 476 c 128,-1,69
 1551 473 1551 473 1567 479 c 0,70,71
 1609 496 1609 496 1652 505 c 128,-1,72
 1695 514 1695 514 1749 514 c 0,73,74
 1780 514 1780 514 1811 508 c 128,-1,75
 1842 502 1842 502 1867.5 487.5 c 128,-1,76
 1893 473 1893 473 1909 449 c 128,-1,77
 1925 425 1925 425 1925 389 c 0,78,79
 1925 344 1925 344 1885.5 301.5 c 128,-1,80
 1846 259 1846 259 1773.5 218 c 128,-1,81
 1701 177 1701 177 1599.5 137 c 128,-1,82
 1498 97 1498 97 1374 57 c 1,83,-1
 1339 111 l 1,84,85
 1439 145 1439 145 1522 181 c 128,-1,86
 1605 217 1605 217 1664 252 c 128,-1,87
 1723 287 1723 287 1755.5 319.5 c 128,-1,88
 1788 352 1788 352 1788 381 c 0,89,90
 1788 418 1788 418 1767.5 432.5 c 128,-1,91
 1747 447 1747 447 1710 449 c 0,92,93
 1670 451 1670 451 1631.5 440 c 128,-1,94
 1593 429 1593 429 1554 412 c 0,95,96
 1537 404 1537 404 1521.5 402 c 128,-1,97
 1506 400 1506 400 1495 408 c 256,98,99
 1484 416 1484 416 1474.5 423 c 128,-1,100
 1465 430 1465 430 1458 444 c 0,101,102
 1447 467 1447 467 1445.5 484.5 c 128,-1,103
 1444 502 1444 502 1448 526 c 0,104,105
 1453 558 1453 558 1462.5 600.5 c 128,-1,106
 1472 643 1472 643 1483 678 c 0,107,108
 1494 712 1494 712 1506 752.5 c 128,-1,109
 1518 793 1518 793 1532 838 c 0,110,111
 1541 867 1541 867 1527.5 883.5 c 128,-1,112
 1514 900 1514 900 1466 889 c 0,113,114
 1375 869 1375 869 1271.5 812.5 c 128,-1,115
 1168 756 1168 756 1059 678 c 1,116,117
 1088 627 1088 627 1105 563.5 c 128,-1,118
 1122 500 1122 500 1122 412 c 0,119,120
 1122 318 1122 318 1101.5 230.5 c 128,-1,121
 1081 143 1081 143 1036 68 c 0,122,123
 1020 42 1020 42 1005 21 c 128,-1,124
 990 0 990 0 974 -17 c 128,-1,125
 958 -34 958 -34 940 -48 c 128,-1,126
 922 -62 922 -62 901 -74 c 0,127,128
 872 -91 872 -91 847.5 -92.5 c 128,-1,129
 823 -94 823 -94 807 -74 c 0,130,131
 795 -58 795 -58 787 -47.5 c 128,-1,132
 779 -37 779 -37 766 -18 c 0,133,134
 739 22 739 22 714 52.5 c 128,-1,135
 689 83 689 83 663.5 108 c 128,-1,136
 638 133 638 133 610.5 154 c 128,-1,137
 583 175 583 175 551 195 c 1,138,139
 537 181 537 181 525 167 c 128,-1,140
 513 153 513 153 500 137 c 0,141,142
 485 118 485 118 472.5 107 c 128,-1,143
 460 96 460 96 444 96 c 0,144,145
 431 96 431 96 416.5 102.5 c 128,-1,146
 402 109 402 109 389.5 120 c 128,-1,147
 377 131 377 131 368.5 147 c 128,-1,148
 360 163 360 163 360 182 c 0,149,150
 360 208 360 208 365 244.5 c 128,-1,151
 370 281 370 281 379 319 c 0,152,153
 392 370 392 370 406.5 418.5 c 128,-1,154
 421 467 421 467 434 512 c 0,155,156
 443 546 443 546 424.5 579.5 c 128,-1,157
 406 613 406 613 358 633 c 1,158,-1
 387 680 l 1,159,160
 471 654 471 654 499.5 613 c 128,-1,161
 528 572 528 572 512 512 c 0,162,163
 504 483 504 483 497.5 451 c 128,-1,164
 491 419 491 419 486.5 388.5 c 128,-1,165
 482 358 482 358 479.5 330 c 128,-1,166
 477 302 477 302 477 281 c 1,167,168
 589 387 589 387 708 485.5 c 128,-1,169
 827 584 827 584 948 672 c 1,170,171
 925 710 925 710 895 741 c 128,-1,172
 865 772 865 772 827 797 c 0,173,174
 795 818 795 818 789.5 841.5 c 128,-1,175
 784 865 784 865 799 897 c 0,176,177
 818 937 818 937 839.5 973.5 c 128,-1,178
 861 1010 861 1010 881 1044 c 1,179,180
 845 1033 845 1033 804 1026.5 c 128,-1,181
 763 1020 763 1020 722 1018 c 128,-1,182
 681 1016 681 1016 643.5 1017.5 c 128,-1,183
 606 1019 606 1019 578 1024 c 0,184,185
 542 1030 542 1030 516.5 1043 c 128,-1,186
 491 1056 491 1056 475.5 1073.5 c 128,-1,187
 460 1091 460 1091 453 1111.5 c 128,-1,188
 446 1132 446 1132 446 1153 c 0,189,190
 446 1175 446 1175 454 1195.5 c 128,-1,191
 462 1216 462 1216 475.5 1235 c 128,-1,192
 489 1254 489 1254 506.5 1272 c 128,-1,193
 524 1290 524 1290 543 1307 c 0,194,195
 577 1338 577 1338 629.5 1372.5 c 128,-1,196
 682 1407 682 1407 739 1438.5 c 128,-1,197
 796 1470 796 1470 850 1495.5 c 128,-1,198
 904 1521 904 1521 942 1534 c 0,199,200
 968 1543 968 1543 973 1556.5 c 128,-1,201
 978 1570 978 1570 967 1581 c 0,202,203
 953 1595 953 1595 935.5 1602 c 128,-1,204
 918 1609 918 1609 895 1618 c 1,205,-1
 926 1661 l 1,0,1
975 612 m 1,206,207
 881 538 881 538 787.5 448 c 128,-1,208
 694 358 694 358 590 238 c 1,209,210
 619 223 619 223 651.5 203.5 c 128,-1,211
 684 184 684 184 714.5 164 c 128,-1,212
 745 144 745 144 772 124 c 128,-1,213
 799 104 799 104 817 88 c 0,214,215
 842 66 842 66 858.5 67 c 128,-1,216
 875 68 875 68 897 94 c 0,217,218
 948 157 948 157 975 236.5 c 128,-1,219
 1002 316 1002 316 1004 401 c 0,220,221
 1006 465 1006 465 999 517.5 c 128,-1,222
 992 570 992 570 975 612 c 1,206,207
EndSplineSet
Validated: 33
EndChar

StartChar: u1B01D
Encoding: 12509 110621 28
Width: 2048
Flags: W
LayerCount: 2
Fore
SplineSet
539 1298 m 1,0,1
 553 1286 553 1286 581 1277.5 c 128,-1,2
 609 1269 609 1269 655 1266 c 0,3,4
 703 1263 703 1263 746.5 1268.5 c 128,-1,5
 790 1274 790 1274 821 1284 c 0,6,7
 855 1295 855 1295 864 1311 c 128,-1,8
 873 1327 873 1327 864 1362 c 0,9,10
 856 1393 856 1393 841.5 1417 c 128,-1,11
 827 1441 827 1441 813 1458 c 0,12,13
 759 1524 759 1524 713 1524 c 0,14,15
 671 1524 671 1524 643 1502 c 128,-1,16
 615 1480 615 1480 592 1442 c 0,17,18
 581 1424 581 1424 573 1408.5 c 128,-1,19
 565 1393 565 1393 559 1376.5 c 128,-1,20
 553 1360 553 1360 548 1341 c 128,-1,21
 543 1322 543 1322 539 1298 c 1,0,1
524 1233 m 1,22,23
 516 1204 516 1204 508.5 1159 c 128,-1,24
 501 1114 501 1114 495 1062.5 c 128,-1,25
 489 1011 489 1011 483.5 957.5 c 128,-1,26
 478 904 478 904 475 858 c 0,27,28
 473 835 473 835 481 826 c 128,-1,29
 489 817 489 817 512 815 c 0,30,31
 562 811 562 811 596.5 805.5 c 128,-1,32
 631 800 631 800 672 788 c 1,33,34
 704 820 704 820 737 854 c 128,-1,35
 770 888 770 888 800.5 920.5 c 128,-1,36
 831 953 831 953 857 983.5 c 128,-1,37
 883 1014 883 1014 901 1040 c 1,38,-1
 938 1010 l 1,39,40
 898 947 898 947 847.5 877.5 c 128,-1,41
 797 808 797 808 743 745 c 1,42,43
 771 724 771 724 790 705.5 c 128,-1,44
 809 687 809 687 822.5 667 c 128,-1,45
 836 647 836 647 845 623 c 128,-1,46
 854 599 854 599 862 567 c 0,47,48
 868 542 868 542 870.5 523.5 c 128,-1,49
 873 505 873 505 874 490 c 128,-1,50
 875 475 875 475 874.5 461.5 c 128,-1,51
 874 448 874 448 874 434 c 0,52,53
 874 402 874 402 868.5 362.5 c 128,-1,54
 863 323 863 323 851 281 c 128,-1,55
 839 239 839 239 819 197.5 c 128,-1,56
 799 156 799 156 770 121 c 0,57,58
 719 59 719 59 672.5 33.5 c 128,-1,59
 626 8 626 8 569 8 c 0,60,61
 524 8 524 8 488 31 c 128,-1,62
 452 54 452 54 412 102 c 0,63,64
 383 137 383 137 368.5 166 c 128,-1,65
 354 195 354 195 338 227 c 1,66,67
 324 210 324 210 310.5 192 c 128,-1,68
 297 174 297 174 289 162 c 0,69,70
 258 114 258 114 240 98 c 128,-1,71
 222 82 222 82 207 82 c 0,72,73
 194 82 194 82 179.5 87.5 c 128,-1,74
 165 93 165 93 154 109 c 0,75,76
 138 130 138 130 129.5 152.5 c 128,-1,77
 121 175 121 175 121 201 c 0,78,79
 121 237 121 237 123.5 265.5 c 128,-1,80
 126 294 126 294 132.5 319.5 c 128,-1,81
 139 345 139 345 150.5 370.5 c 128,-1,82
 162 396 162 396 180 426 c 1,83,-1
 223 410 l 1,84,85
 214 388 214 388 207.5 361 c 128,-1,86
 201 334 201 334 201 309 c 0,87,88
 201 286 201 286 214.5 282.5 c 128,-1,89
 228 279 228 279 256 299 c 0,90,91
 279 316 279 316 304 343.5 c 128,-1,92
 329 371 329 371 352 397 c 0,93,94
 379 428 379 428 417 472 c 128,-1,95
 455 516 455 516 494.5 562 c 128,-1,96
 534 608 534 608 570 649.5 c 128,-1,97
 606 691 606 691 629 717 c 1,98,99
 615 724 615 724 599.5 729 c 128,-1,100
 584 734 584 734 561.5 737 c 128,-1,101
 539 740 539 740 507.5 741.5 c 128,-1,102
 476 743 476 743 430 743 c 0,103,104
 399 743 399 743 379.5 756 c 128,-1,105
 360 769 360 769 360 809 c 0,106,107
 360 833 360 833 361 855.5 c 128,-1,108
 362 878 362 878 364.5 903 c 128,-1,109
 367 928 367 928 369.5 958.5 c 128,-1,110
 372 989 372 989 375 1030 c 0,111,112
 377 1060 377 1060 383 1098.5 c 128,-1,113
 389 1137 389 1137 399 1179.5 c 128,-1,114
 409 1222 409 1222 423 1266 c 128,-1,115
 437 1310 437 1310 455 1352 c 0,116,117
 481 1410 481 1410 507.5 1449.5 c 128,-1,118
 534 1489 534 1489 559 1514 c 128,-1,119
 584 1539 584 1539 607 1552.5 c 128,-1,120
 630 1566 630 1566 649 1573 c 0,121,122
 675 1583 675 1583 709 1579.5 c 128,-1,123
 743 1576 743 1576 778 1556 c 0,124,125
 807 1539 807 1539 835 1517.5 c 128,-1,126
 863 1496 863 1496 885 1473 c 0,127,128
 902 1454 902 1454 921.5 1430 c 128,-1,129
 941 1406 941 1406 952 1386 c 0,130,131
 966 1360 966 1360 971.5 1340.5 c 128,-1,132
 977 1321 977 1321 977 1296 c 0,133,134
 977 1264 977 1264 961.5 1246 c 128,-1,135
 946 1228 946 1228 920 1214 c 0,136,137
 908 1208 908 1208 889.5 1201.5 c 128,-1,138
 871 1195 871 1195 849 1189.5 c 128,-1,139
 827 1184 827 1184 803 1179.5 c 128,-1,140
 779 1175 779 1175 756 1174 c 0,141,142
 678 1169 678 1169 622 1184 c 128,-1,143
 566 1199 566 1199 524 1233 c 1,22,23
700 684 m 1,144,145
 665 645 665 645 624.5 596 c 128,-1,146
 584 547 584 547 543 494.5 c 128,-1,147
 502 442 502 442 462.5 388 c 128,-1,148
 423 334 423 334 391 285 c 1,149,150
 402 260 402 260 420.5 230.5 c 128,-1,151
 439 201 439 201 455 184 c 0,152,153
 486 150 486 150 508.5 136.5 c 128,-1,154
 531 123 531 123 557 123 c 0,155,156
 611 123 611 123 648 150 c 128,-1,157
 685 177 685 177 711 231 c 0,158,159
 731 273 731 273 742.5 324 c 128,-1,160
 754 375 754 375 754 438 c 0,161,162
 754 466 754 466 751.5 501 c 128,-1,163
 749 536 749 536 743 571 c 0,164,165
 737 609 737 609 728 636.5 c 128,-1,166
 719 664 719 664 700 684 c 1,144,145
1145 1470 m 1,167,168
 1168 1496 1168 1496 1190.5 1516 c 128,-1,169
 1213 1536 1213 1536 1235 1550 c 0,170,171
 1265 1570 1265 1570 1287.5 1583 c 128,-1,172
 1310 1596 1310 1596 1330 1604 c 128,-1,173
 1350 1612 1350 1612 1369 1616 c 128,-1,174
 1388 1620 1388 1620 1411 1622 c 0,175,176
 1440 1624 1440 1624 1461.5 1610.5 c 128,-1,177
 1483 1597 1483 1597 1499 1577 c 0,178,179
 1513 1560 1513 1560 1513 1535.5 c 128,-1,180
 1513 1511 1513 1511 1499 1491 c 0,181,182
 1490 1478 1490 1478 1477.5 1460.5 c 128,-1,183
 1465 1443 1465 1443 1451 1423 c 128,-1,184
 1437 1403 1437 1403 1421.5 1382 c 128,-1,185
 1406 1361 1406 1361 1391 1341 c 0,186,187
 1340 1272 1340 1272 1293 1208 c 128,-1,188
 1246 1144 1246 1144 1204 1092 c 1,189,190
 1232 1113 1232 1113 1252.5 1127.5 c 128,-1,191
 1273 1142 1273 1142 1291.5 1154 c 128,-1,192
 1310 1166 1310 1166 1328.5 1176.5 c 128,-1,193
 1347 1187 1347 1187 1370 1200 c 0,194,195
 1396 1215 1396 1215 1426.5 1228.5 c 128,-1,196
 1457 1242 1457 1242 1488 1252.5 c 128,-1,197
 1519 1263 1519 1263 1549 1269.5 c 128,-1,198
 1579 1276 1579 1276 1604 1276 c 0,199,200
 1655 1276 1655 1276 1691 1269 c 128,-1,201
 1727 1262 1727 1262 1755 1245 c 0,202,203
 1797 1219 1797 1219 1815 1187 c 128,-1,204
 1833 1155 1833 1155 1833 1106 c 0,205,206
 1833 980 1833 980 1714 899 c 0,207,208
 1654 858 1654 858 1590.5 842.5 c 128,-1,209
 1527 827 1527 827 1475 827 c 1,210,211
 1473 795 1473 795 1462 740.5 c 128,-1,212
 1451 686 1451 686 1430 627 c 0,213,214
 1415 585 1415 585 1395 540 c 128,-1,215
 1375 495 1375 495 1352.5 451.5 c 128,-1,216
 1330 408 1330 408 1304.5 366.5 c 128,-1,217
 1279 325 1279 325 1253 289 c 1,218,219
 1282 301 1282 301 1313 310 c 128,-1,220
 1344 319 1344 319 1386 319 c 0,221,222
 1437 319 1437 319 1481.5 307 c 128,-1,223
 1526 295 1526 295 1559 279 c 0,224,225
 1611 255 1611 255 1651.5 232.5 c 128,-1,226
 1692 210 1692 210 1733 182 c 0,227,228
 1757 165 1757 165 1778.5 149 c 128,-1,229
 1800 133 1800 133 1823 113 c 256,230,231
 1846 93 1846 93 1857 67.5 c 128,-1,232
 1868 42 1868 42 1868 16 c 0,233,234
 1868 -59 1868 -59 1808 -47 c 0,235,236
 1784 -42 1784 -42 1764 -25.5 c 128,-1,237
 1744 -9 1744 -9 1716 23 c 0,238,239
 1678 68 1678 68 1632.5 111.5 c 128,-1,240
 1587 155 1587 155 1530 197 c 0,241,242
 1490 226 1490 226 1449 244 c 128,-1,243
 1408 262 1408 262 1370 262 c 0,244,245
 1336 262 1336 262 1305.5 252 c 128,-1,246
 1275 242 1275 242 1237 217 c 0,247,248
 1206 197 1206 197 1173 164.5 c 128,-1,249
 1140 132 1140 132 1102 94 c 0,250,251
 1070 62 1070 62 1043.5 37.5 c 128,-1,252
 1017 13 1017 13 991 -12 c 0,253,254
 976 -26 976 -26 962 -31.5 c 128,-1,255
 948 -37 948 -37 936.5 -35.5 c 128,-1,256
 925 -34 925 -34 917.5 -26.5 c 128,-1,257
 910 -19 910 -19 909 -6 c 0,258,259
 906 25 906 25 915 55 c 0,260,261
 927 94 927 94 973 125 c 0,262,263
 999 143 999 143 1022.5 160.5 c 128,-1,264
 1046 178 1046 178 1075 203 c 0,265,266
 1094 219 1094 219 1110 235 c 128,-1,267
 1126 251 1126 251 1142.5 274 c 128,-1,268
 1159 297 1159 297 1179 329.5 c 128,-1,269
 1199 362 1199 362 1225 410 c 0,270,271
 1250 456 1250 456 1271.5 509 c 128,-1,272
 1293 562 1293 562 1309 615.5 c 128,-1,273
 1325 669 1325 669 1335 720 c 128,-1,274
 1345 771 1345 771 1348 815 c 0,275,276
 1351 858 1351 858 1346 873 c 128,-1,277
 1341 888 1341 888 1325 891 c 0,278,279
 1316 893 1316 893 1305 890.5 c 128,-1,280
 1294 888 1294 888 1280 885 c 1,281,-1
 1270 924 l 1,282,283
 1287 934 1287 934 1300 940 c 128,-1,284
 1313 946 1313 946 1324.5 949.5 c 128,-1,285
 1336 953 1336 953 1348 954.5 c 128,-1,286
 1360 956 1360 956 1376 958 c 0,287,288
 1395 960 1395 960 1409 958.5 c 128,-1,289
 1423 957 1423 957 1440 946 c 0,290,291
 1473 925 1473 925 1479 883 c 1,292,293
 1503 885 1503 885 1530.5 891.5 c 128,-1,294
 1558 898 1558 898 1581 909 c 0,295,296
 1592 914 1592 914 1611.5 928.5 c 128,-1,297
 1631 943 1631 943 1651 963 c 0,298,299
 1679 990 1679 990 1689.5 1027.5 c 128,-1,300
 1700 1065 1700 1065 1700 1110 c 0,301,302
 1700 1161 1700 1161 1678.5 1191 c 128,-1,303
 1657 1221 1657 1221 1608 1223 c 0,304,305
 1566 1225 1566 1225 1529.5 1213 c 128,-1,306
 1493 1201 1493 1201 1448 1178 c 0,307,308
 1388 1147 1388 1147 1336 1108.5 c 128,-1,309
 1284 1070 1284 1070 1233 1024 c 0,310,311
 1199 993 1199 993 1167.5 961.5 c 128,-1,312
 1136 930 1136 930 1110 899 c 0,313,314
 1088 873 1088 873 1072.5 872.5 c 128,-1,315
 1057 872 1057 872 1044 897 c 0,316,317
 1039 908 1039 908 1035.5 925 c 128,-1,318
 1032 942 1032 942 1030 965 c 0,319,320
 1028 982 1028 982 1039.5 1004 c 128,-1,321
 1051 1026 1051 1026 1071 1040 c 0,322,323
 1093 1056 1093 1056 1111.5 1074 c 128,-1,324
 1130 1092 1130 1092 1153 1126 c 0,325,326
 1210 1211 1210 1211 1256 1297 c 128,-1,327
 1302 1383 1302 1383 1339 1477 c 0,328,329
 1350 1505 1350 1505 1344 1513.5 c 128,-1,330
 1338 1522 1338 1522 1307 1511 c 0,331,332
 1270 1498 1270 1498 1236.5 1479.5 c 128,-1,333
 1203 1461 1203 1461 1182 1438 c 1,334,-1
 1145 1470 l 1,167,168
EndSplineSet
Validated: 33
EndChar

StartChar: u1B01E
Encoding: 12510 110622 29
Width: 2048
Flags: W
LayerCount: 2
Fore
SplineSet
598 1686 m 1,0,1
 649 1688 649 1688 693 1680 c 128,-1,2
 737 1672 737 1672 766 1657 c 0,3,4
 800 1640 800 1640 803.5 1612 c 128,-1,5
 807 1584 807 1584 795 1546 c 0,6,7
 789 1528 789 1528 779.5 1509 c 128,-1,8
 770 1490 770 1490 758 1468 c 1,9,10
 783 1472 783 1472 805 1474.5 c 128,-1,11
 827 1477 827 1477 846 1477 c 0,12,13
 877 1477 877 1477 901 1471.5 c 128,-1,14
 925 1466 925 1466 948 1450 c 0,15,16
 984 1426 984 1426 1000 1387 c 128,-1,17
 1016 1348 1016 1348 1016 1305 c 0,18,19
 1016 1184 1016 1184 979 1091.5 c 128,-1,20
 942 999 942 999 879 936 c 0,21,22
 856 913 856 913 832 894.5 c 128,-1,23
 808 876 808 876 788 866 c 0,24,25
 768 857 768 857 748 855 c 128,-1,26
 728 853 728 853 711 862 c 0,27,28
 697 870 697 870 685.5 882 c 128,-1,29
 674 894 674 894 657 911 c 0,30,31
 639 929 639 929 622.5 944.5 c 128,-1,32
 606 960 606 960 589.5 973 c 128,-1,33
 573 986 573 986 556 997 c 128,-1,34
 539 1008 539 1008 518 1018 c 1,35,36
 506 995 506 995 495 978.5 c 128,-1,37
 484 962 484 962 473 946 c 0,38,39
 455 920 455 920 439 907.5 c 128,-1,40
 423 895 423 895 412 895 c 0,41,42
 393 895 393 895 379 917 c 128,-1,43
 365 939 365 939 365 971 c 0,44,45
 365 1014 365 1014 406 1055 c 0,46,47
 424 1073 424 1073 444 1096 c 128,-1,48
 464 1119 464 1119 481 1147 c 0,49,50
 507 1189 507 1189 535.5 1240 c 128,-1,51
 564 1291 564 1291 592 1348 c 1,52,53
 566 1338 566 1338 534.5 1325 c 128,-1,54
 503 1312 503 1312 467 1296 c 0,55,56
 422 1276 422 1276 387 1276 c 0,57,58
 368 1276 368 1276 349.5 1285.5 c 128,-1,59
 331 1295 331 1295 315 1311 c 0,60,61
 288 1339 288 1339 270 1373 c 128,-1,62
 252 1407 252 1407 244 1430 c 1,63,-1
 287 1460 l 1,64,65
 330 1401 330 1401 368.5 1387 c 128,-1,66
 407 1373 407 1373 455 1389 c 0,67,68
 490 1400 490 1400 536.5 1413.5 c 128,-1,69
 583 1427 583 1427 637 1440 c 1,70,71
 646 1465 646 1465 656 1489.5 c 128,-1,72
 666 1514 666 1514 676 1540 c 0,73,74
 690 1578 690 1578 663 1605.5 c 128,-1,75
 636 1633 636 1633 573 1642 c 1,76,-1
 598 1686 l 1,0,1
829 1407 m 0,77,78
 784 1407 784 1407 709 1384 c 1,79,80
 674 1321 674 1321 633.5 1239 c 128,-1,81
 593 1157 593 1157 545 1063 c 1,82,83
 583 1047 583 1047 622.5 1028 c 128,-1,84
 662 1009 662 1009 696 989 c 0,85,86
 721 975 721 975 740.5 976.5 c 128,-1,87
 760 978 760 978 778 993 c 0,88,89
 807 1018 807 1018 830.5 1053 c 128,-1,90
 854 1088 854 1088 870.5 1128.5 c 128,-1,91
 887 1169 887 1169 896 1212 c 128,-1,92
 905 1255 905 1255 905 1296 c 0,93,94
 905 1356 905 1356 888 1381.5 c 128,-1,95
 871 1407 871 1407 829 1407 c 0,77,78
1227 1489 m 1,96,97
 1217 1466 1217 1466 1213.5 1439 c 128,-1,98
 1210 1412 1210 1412 1212 1389 c 0,99,100
 1216 1328 1216 1328 1266 1366 c 0,101,102
 1297 1389 1297 1389 1332.5 1410 c 128,-1,103
 1368 1431 1368 1431 1405 1447.5 c 128,-1,104
 1442 1464 1442 1464 1479 1473.5 c 128,-1,105
 1516 1483 1516 1483 1550 1483 c 0,106,107
 1604 1483 1604 1483 1644.5 1469.5 c 128,-1,108
 1685 1456 1685 1456 1712.5 1434.5 c 128,-1,109
 1740 1413 1740 1413 1753.5 1386 c 128,-1,110
 1767 1359 1767 1359 1767 1331 c 0,111,112
 1767 1308 1767 1308 1761.5 1288.5 c 128,-1,113
 1756 1269 1756 1269 1745 1251 c 128,-1,114
 1734 1233 1734 1233 1717 1214.5 c 128,-1,115
 1700 1196 1700 1196 1677 1176 c 0,116,117
 1595 1105 1595 1105 1429.5 1005.5 c 128,-1,118
 1264 906 1264 906 999 770 c 1,119,120
 1093 784 1093 784 1151 794.5 c 128,-1,121
 1209 805 1209 805 1251 815 c 0,122,123
 1296 826 1296 826 1325.5 828.5 c 128,-1,124
 1355 831 1355 831 1376 823 c 0,125,126
 1390 818 1390 818 1404.5 804 c 128,-1,127
 1419 790 1419 790 1419 768 c 0,128,129
 1419 751 1419 751 1408.5 735 c 128,-1,130
 1398 719 1398 719 1370 713 c 0,131,132
 1299 698 1299 698 1226 674 c 128,-1,133
 1153 650 1153 650 1087 622.5 c 128,-1,134
 1021 595 1021 595 966.5 567 c 128,-1,135
 912 539 912 539 879 516 c 0,136,137
 857 501 857 501 858 493 c 128,-1,138
 859 485 859 485 893 485 c 256,139,140
 927 485 927 485 968.5 489.5 c 128,-1,141
 1010 494 1010 494 1055 502 c 128,-1,142
 1100 510 1100 510 1147 521 c 128,-1,143
 1194 532 1194 532 1241 545 c 0,144,145
 1279 556 1279 556 1303.5 561 c 128,-1,146
 1328 566 1328 566 1348 559 c 0,147,148
 1383 547 1383 547 1397 512 c 0,149,150
 1405 492 1405 492 1401 477 c 128,-1,151
 1397 462 1397 462 1378 449 c 0,152,153
 1360 437 1360 437 1334.5 431 c 128,-1,154
 1309 425 1309 425 1274 416 c 0,155,156
 1212 400 1212 400 1132 365.5 c 128,-1,157
 1052 331 1052 331 963.5 285 c 128,-1,158
 875 239 875 239 784.5 186.5 c 128,-1,159
 694 134 694 134 612 82 c 1,160,161
 685 114 685 114 747.5 137.5 c 128,-1,162
 810 161 810 161 865.5 177 c 128,-1,163
 921 193 921 193 971 200.5 c 128,-1,164
 1021 208 1021 208 1069 209 c 0,165,166
 1162 210 1162 210 1239.5 201.5 c 128,-1,167
 1317 193 1317 193 1385.5 173.5 c 128,-1,168
 1454 154 1454 154 1517.5 122.5 c 128,-1,169
 1581 91 1581 91 1647 47 c 0,170,171
 1692 17 1692 17 1708 -11.5 c 128,-1,172
 1724 -40 1724 -40 1724 -68 c 0,173,174
 1724 -86 1724 -86 1716 -101.5 c 128,-1,175
 1708 -117 1708 -117 1688 -125 c 0,176,177
 1662 -136 1662 -136 1632 -119 c 0,178,179
 1609 -107 1609 -107 1597 -95.5 c 128,-1,180
 1585 -84 1585 -84 1567 -68 c 0,181,182
 1494 -7 1494 -7 1432.5 32.5 c 128,-1,183
 1371 72 1371 72 1311.5 94.5 c 128,-1,184
 1252 117 1252 117 1190.5 126 c 128,-1,185
 1129 135 1129 135 1057 135 c 0,186,187
 1004 135 1004 135 944 123 c 128,-1,188
 884 111 884 111 814 85.5 c 128,-1,189
 744 60 744 60 663.5 19 c 128,-1,190
 583 -22 583 -22 489 -80 c 0,191,192
 449 -105 449 -105 424 -121.5 c 128,-1,193
 399 -138 399 -138 373 -143 c 0,194,195
 353 -147 353 -147 340.5 -134.5 c 128,-1,196
 328 -122 328 -122 328 -94 c 0,197,198
 328 -79 328 -79 333 -53 c 128,-1,199
 338 -27 338 -27 348 -8 c 0,200,201
 365 25 365 25 399 45.5 c 128,-1,202
 433 66 433 66 481 92 c 0,203,204
 553 131 553 131 629 173.5 c 128,-1,205
 705 216 705 216 780 259.5 c 128,-1,206
 855 303 855 303 927 346.5 c 128,-1,207
 999 390 999 390 1063 430 c 1,208,209
 963 404 963 404 884 384.5 c 128,-1,210
 805 365 805 365 762 362 c 0,211,212
 727 359 727 359 708.5 370.5 c 128,-1,213
 690 382 690 382 690 414 c 0,214,215
 690 438 690 438 704 458 c 128,-1,216
 718 478 718 478 741 494 c 0,217,218
 766 511 766 511 808.5 536 c 128,-1,219
 851 561 851 561 902 589 c 128,-1,220
 953 617 953 617 1009 647 c 128,-1,221
 1065 677 1065 677 1118 705 c 1,222,223
 1080 695 1080 695 1049 687.5 c 128,-1,224
 1018 680 1018 680 990 674 c 128,-1,225
 962 668 962 668 935.5 663 c 128,-1,226
 909 658 909 658 881 653 c 0,227,228
 862 650 862 650 846 650.5 c 128,-1,229
 830 651 830 651 819 662 c 0,230,231
 807 674 807 674 805 688 c 128,-1,232
 803 702 803 702 805 715 c 0,233,234
 809 740 809 740 832 754 c 128,-1,235
 855 768 855 768 887 780 c 0,236,237
 916 791 916 791 946 804 c 128,-1,238
 976 817 976 817 1004 831 c 0,239,240
 1135 897 1135 897 1249.5 965.5 c 128,-1,241
 1364 1034 1364 1034 1449 1101 c 128,-1,242
 1534 1168 1534 1168 1583 1230.5 c 128,-1,243
 1632 1293 1632 1293 1632 1346 c 0,244,245
 1632 1384 1632 1384 1610.5 1407 c 128,-1,246
 1589 1430 1589 1430 1544 1430 c 0,247,248
 1509 1430 1509 1430 1472 1416 c 128,-1,249
 1435 1402 1435 1402 1400.5 1379 c 128,-1,250
 1366 1356 1366 1356 1335.5 1325.5 c 128,-1,251
 1305 1295 1305 1295 1282 1262 c 0,252,253
 1265 1237 1265 1237 1254 1220.5 c 128,-1,254
 1243 1204 1243 1204 1225 1186 c 0,255,256
 1215 1177 1215 1177 1205 1172.5 c 128,-1,257
 1195 1168 1195 1168 1178 1178 c 0,258,259
 1158 1189 1158 1189 1146.5 1211.5 c 128,-1,260
 1135 1234 1135 1234 1133 1280 c 0,261,262
 1130 1352 1130 1352 1144 1408.5 c 128,-1,263
 1158 1465 1158 1465 1178 1499 c 1,264,-1
 1227 1489 l 1,96,97
EndSplineSet
Validated: 33
EndChar

